{
classes = (
{
code = "s sacute scaron scedilla scircumflex scommaaccent";
name = s;
},
{
code = "s sacute scaron scedilla scircumflex scommaaccent";
name = s1;
},
{
code = "F Gamma";
name = F;
},
{
code = "F Gamma";
name = F1;
},
{
code = "c cacute ccaron ccedilla ccircumflex cdotaccent cent";
name = c;
},
{
code = "c cacute ccaron ccedilla ccircumflex cdotaccent cent";
name = c1;
},
{
code = "p rho";
name = p;
},
{
code = "p rho";
name = p1;
},
{
code = "epsilon epsilontonos";
name = epsilon;
},
{
code = "epsilon epsilontonos";
name = epsilon1;
},
{
code = "Xi Sigma";
name = Xi;
},
{
code = "Xi Sigma";
name = Xi1;
},
{
code = "eta etatonos";
name = eta;
},
{
code = "eta etatonos";
name = eta1;
},
{
code = "T Tau Tbar Tcaron Tcedilla uni021A";
name = T;
},
{
code = "T Tau Tbar Tcaron Tcedilla uni021A";
name = T1;
},
{
code = "E Eacute Ecaron Ecircumflex Edieresis Edotaccent Egrave Emacron Eogonek Epsilon Epsilontonos";
name = E;
},
{
code = "E Eacute Ecaron Ecircumflex Edieresis Edotaccent Egrave Emacron Eogonek Epsilon Epsilontonos";
name = E1;
},
{
code = "S Sacute Scaron Scircumflex Scommaaccent dollar";
name = S;
},
{
code = "S Sacute Scaron Scircumflex Scommaaccent dollar";
name = S1;
},
{
code = "U Uacute Ubreve Ucircumflex Udieresis Ugrave Uhungarumlaut Umacron Uogonek Uring Utilde";
name = U;
},
{
code = "U Uacute Ubreve Ucircumflex Udieresis Ugrave Uhungarumlaut Umacron Uogonek Uring Utilde";
name = U1;
},
{
code = "X Chi";
name = X;
},
{
code = "X Chi";
name = X1;
},
{
code = "i dotlessi iacute icircumflex idieresis igrave imacron iogonek iota iotadieresis iotadieresistonos iotatonos itilde";
name = i;
},
{
code = "i dotlessi iacute icircumflex idieresis igrave imacron iogonek iota iotadieresis iotadieresistonos iotatonos itilde";
name = i1;
},
{
code = "M Mu";
name = M;
},
{
code = "M Mu";
name = M1;
},
{
code = "comma quotedblbase quotedblright quoteright semicolon";
name = comma;
},
{
code = "comma quotedblbase quotedblright quoteright semicolon";

glyphs = (
{
color = (153,255,177,1);
glyphname = AE;
layers = (
{
layerId = "F362B091-5F2C-44B8-BCF3-B70645E7FBBC";
name = Regular;
paths = (
{
closed = 1;
nodes = (
"383 0 LINE",
"716 0 LINE",
"716 50 LINE",
"440 50 LINE",
"440 355 LINE",
"612 355 LINE",
"631 413 LINE",
"440 413 LINE",
"440 645 LINE",
"719 645 LINE",
"719 698 LINE",
"291 698 LINE",
"20 0 LINE",
"79 0 LINE",
"173 243 LINE",
"383 243 LINE"
);
},
{
closed = 1;
nodes = (
"194 299 LINE",
"329 645 LINE",
"383 645 LINE",
"383 299 LINE"
);
}
);
width = 750;
}
);
unicode = 00C6;
userData = {
com.typemytype.robofont.mark = (
0.6,
1,
0.694,
1
);
};
},
{
color = (153,255,177,1);
glyphname = A;
layers = (
{
anchors = (
{
name = bottom;
position = "{272, 0}";
},
{
name = center;
position = "{272, 300}";
},
{
name = ogonek;
position = "{271, 0}";
},
{
name = tonos;
position = "{90, 700}";
},
{
name = top;
position = "{272, 735}";
}
);
layerId = "F362B091-5F2C-44B8-BCF3-B70645E7FBBC";
name = Regular;
paths = (
{
closed = 1;
nodes = (
"525 0 LINE",
"298 698 LINE",
"245 698 LINE",
"21 0 LINE",
"81 0 LINE",
"159 244 LINE",
"386 244 LINE",
"466 0 LINE"
);
},
{
closed = 1;
nodes = (
"174 299 LINE",
"271 612 LINE",
"371 299 LINE"
);
}
);
width = 545;
}
);
leftKerningGroup = A;
rightKerningGroup = A;
unicode = 0041;
userData = {
com.typemytype.robofont.mark = (
0.6,
1,
0.694,
1
);
};
},
{
color = (153,255,177,1);
glyphname = B;
layers = (
{
anchors = (
{
name = bottom;
position = "{251, 0}";
},
{
name = center;
position = "{251, 300}";
},
{
name = ogonek;
position = "{250, 0}";
},
{
name = tonos;
position = "{83, 700}";
},
{
name = top;
position = "{251, 735}";
}
);
layerId = "F362B091-5F2C-44B8-BCF3-B70645E7FBBC";
name = Regular;
paths = (
{
closed = 1;
nodes = (
"261 698 CURVE SMOOTH",
"41 698 LINE",
"41 0 LINE",
"271 0 LINE SMOOTH",
"347 0 OFFCURVE",
"404 26 OFFCURVE",
"433 69 CURVE SMOOTH",
"459 109 OFFCURVE",
"473 155 OFFCURVE",
"473 208 CURVE SMOOTH",
"473 304 OFFCURVE",
"429 363 OFFCURVE",
"370 389 CURVE",
"370 391 LINE SMOOTH",
"370 392 OFFCURVE",
"371 392 OFFCURVE",
"371 393 CURVE",
"415 422 OFFCURVE",
"437 466 OFFCURVE",
"437 526 CURVE SMOOTH",
"437 584 OFFCURVE",
"422 628 OFFCURVE",
"390 656 CURVE SMOOTH",
"359 684 OFFCURVE",
"316 698 OFFCURVE"
);
},
{
closed = 1;
nodes = (
"260 411 CURVE SMOOTH",
"97 411 LINE",
"97 645 LINE",
"253 645 LINE SMOOTH",
"337 645 OFFCURVE",
"379 606 OFFCURVE",
"379 528 CURVE SMOOTH",
"379 498 OFFCURVE",
"372 473 OFFCURVE",
"359 454 CURVE SMOOTH",
"339 426 OFFCURVE",
"305 411 OFFCURVE"
);
},
{
closed = 1;
nodes = (
"269 53 CURVE SMOOTH",
"97 53 LINE",
"97 356 LINE",
"285 356 LINE SMOOTH",
"354 356 OFFCURVE",
"413 305 OFFCURVE",
"413 212 CURVE SMOOTH",
"413 106 OFFCURVE",
"365 53 OFFCURVE"
);
}
);
width = 503;
}
);
leftKerningGroup = B;
rightKerningGroup = B;
unicode = 0042;
userData = {
com.typemytype.robofont.mark = (
0.6,
1,
0.694,
1
);
};
},
{
color = (153,255,177,1);
glyphname = C;
layers = (
{
anchors = (
{
name = bottom;
position = "{211, 0}";
},
{
name = center;
position = "{211, 300}";
},
{
name = ogonek;
position = "{210, 0}";
},
{
name = tonos;
position = "{70, 700}";
},
{
name = top;
position = "{211, 735}";
}
);
layerId = "F362B091-5F2C-44B8-BCF3-B70645E7FBBC";
name = Regular;
paths = (
{
closed = 1;
nodes = (
"353 637 CURVE",
"370 675 LINE",
"327 697 OFFCURVE",
"279 708 OFFCURVE",
"228 708 CURVE SMOOTH",
"187 708 OFFCURVE",
"151 700 OFFCURVE",
"121 683 CURVE SMOOTH",
"63 647 OFFCURVE",
"34 590 OFFCURVE",
"34 503 CURVE SMOOTH",
"34 183 LINE SMOOTH",
"34 99 OFFCURVE",
"67 42 OFFCURVE",
"116 15 CURVE SMOOTH",
"164 -10 OFFCURVE",
"213 -10 OFFCURVE",
"234 -10 CURVE SMOOTH",
"284 -10 OFFCURVE",
"338 1 OFFCURVE",
"395 23 CURVE",
"383 69 LINE",
"326 50 OFFCURVE",
"277 40 OFFCURVE",
"238 40 CURVE SMOOTH",
"192 40 OFFCURVE",
"160 48 OFFCURVE",
"137 65 CURVE SMOOTH",
"101 90 OFFCURVE",
"90 132 OFFCURVE",
"90 185 CURVE SMOOTH",
"90 512 LINE SMOOTH",
"90 568 OFFCURVE",
"107 607 OFFCURVE",
"141 631 CURVE SMOOTH",
"166 649 OFFCURVE",
"202 658 OFFCURVE",
"246 658 CURVE SMOOTH",
"280 658 OFFCURVE",
"316 651 OFFCURVE"
);
}
);
width = 422;
}
);
leftKerningGroup = C;
rightKerningGroup = C;
unicode = 0043;
userData = {
com.typemytype.robofont.mark = (
0.6,
1,
0.694,
1
);
};
},
{
color = (153,255,177,1);
glyphname = D;
layers = (
{
anchors = (
{
name = bottom;
position = "{247, 0}";
},
{
name = center;
position = "{247, 300}";
},
{
name = ogonek;
position = "{247, 0}";
},
{
name = tonos;
position = "{82, 700}";
},
{
name = top;
position = "{247, 735}";
}
);
layerId = "F362B091-5F2C-44B8-BCF3-B70645E7FBBC";
name = Regular;
paths = (
{
closed = 1;
nodes = (
"229 698 CURVE SMOOTH",
"41 698 LINE",
"41 0 LINE",
"249 0 LINE SMOOTH",
"390 0 OFFCURVE",
"460 67 OFFCURVE",
"460 199 CURVE SMOOTH",
"460 473 LINE SMOOTH",
"460 609 OFFCURVE",
"379 698 OFFCURVE"
);
},
{
closed = 1;
nodes = (
"232 50 CURVE SMOOTH",
"97 50 LINE",
"97 648 LINE",
"239 648 LINE SMOOTH",
"356 648 OFFCURVE",
"404 574 OFFCURVE",
"404 488 CURVE SMOOTH",
"404 189 LINE SMOOTH",
"404 97 OFFCURVE",
"347 50 OFFCURVE"
);
}
);
width = 495;
}
);
leftKerningGroup = D;
rightKerningGroup = D;
unicode = 0044;
userData = {
com.typemytype.robofont.mark = (
0.6,
1,
0.694,
1
);
};
},
{
color = (153,255,177,1);
glyphname = Deltagreek;
layers = (
{
layerId = "F362B091-5F2C-44B8-BCF3-B70645E7FBBC";
name = Regular;
paths = (
{
closed = 1;
nodes = (
"525 0 LINE",
"298 698 LINE",
"245 698 LINE",
"21 0 LINE"
);
},
{
closed = 1;
nodes = (
"95 50 LINE",
"271 612 LINE",
"449 50 LINE"
);
}
);
width = 545;
}
);
leftKerningGroup = A;
rightKerningGroup = A;
unicode = 0394;
userData = {
com.typemytype.robofont.mark = (
0.6,
1,
0.694,
1
);
};
},
{
color = (153,255,177,1);
glyphname = E;
layers = (
{
anchors = (
{
name = bottom;
position = "{202, 0}";
},
{
name = center;
position = "{202, 300}";
},
{
name = ogonek;
position = "{202, 0}";
},
{
name = tonos;
position = "{67, 700}";
},
{
name = top;
position = "{202, 735}";
}
);
layerId = "F362B091-5F2C-44B8-BCF3-B70645E7FBBC";
name = Regular;
paths = (
{
closed = 1;
nodes = (
"41 0 LINE",
"372 0 LINE",
"372 50 LINE",
"97 50 LINE",
"97 356 LINE",
"269 356 LINE",
"287 411 LINE",
"97 411 LINE",
"97 646 LINE",
"374 646 LINE",
"374 698 LINE",
"41 698 LINE"
);
}
);
width = 405;
}
);
leftKerningGroup = E;
rightKerningGroup = E;
unicode = 0045;
userData = {
com.typemytype.robofont.mark = (
0.6,
1,
0.694,
1
);
};
},
{
color = (153,255,177,1);
glyphname = Eng;
layers = (
{
layerId = "F362B091-5F2C-44B8-BCF3-B70645E7FBBC";
name = Regular;
paths = (
{
closed = 1;
nodes = (
"533 -62 CURVE SMOOTH",
"533 698 LINE",
"477 698 LINE",
"477 103 LINE",
"98 698 LINE",
"41 698 LINE",
"41 0 LINE",
"97 0 LINE",
"97 595 LINE",
"477 1 LINE",
"477 -62 LINE SMOOTH",
"477 -89 OFFCURVE",
"471 -112 OFFCURVE",
"458 -130 CURVE SMOOTH",
"447 -145 OFFCURVE",
"432 -157 OFFCURVE",
"412 -165 CURVE",
"427 -208 LINE",
"460 -197 OFFCURVE",
"483 -184 OFFCURVE",
"501 -165 CURVE SMOOTH",
"524 -140 OFFCURVE",
"533 -107 OFFCURVE"
);
}
);
width = 576;
}
);
leftKerningGroup = N;
rightKerningGroup = N;
unicode = 014A;
userData = {
com.typemytype.robofont.mark = (
0.6,
1,
0.694,
1
);
};
},
{
color = (153,255,177,1);
glyphname = Eth;
layers = (
{
layerId = "F362B091-5F2C-44B8-BCF3-B70645E7FBBC";
name = Regular;
paths = (
{
closed = 1;
nodes = (
"229 698 CURVE SMOOTH",
"41 698 LINE",
"41 0 LINE",
"249 0 LINE SMOOTH",
"390 0 OFFCURVE",
"460 67 OFFCURVE",
"460 199 CURVE SMOOTH",
"460 473 LINE SMOOTH",
"460 609 OFFCURVE",
"379 698 OFFCURVE"
);
},
{
closed = 1;
nodes = (
"232 50 CURVE SMOOTH",
"97 50 LINE",
"97 359 LINE",
"286 359 LINE",
"301 413 LINE",
"97 413 LINE",
"97 648 LINE",
"239 648 LINE SMOOTH",
"356 648 OFFCURVE",
"404 574 OFFCURVE",
"404 488 CURVE SMOOTH",
"404 189 LINE SMOOTH",
"404 97 OFFCURVE",
"347 50 OFFCURVE"
);
}
);
width = 495;
}
);
leftKerningGroup = D;
rightKerningGroup = D;
unicode = 00D0;
userData = {
com.typemytype.robofont.mark = (
0.6,
1,
0.694,
1
);
};
},
{
color = (153,255,177,1);
glyphname = Euro;
layers = (
{
layerId = "F362B091-5F2C-44B8-BCF3-B70645E7FBBC";
name = Regular;
paths = (
{
closed = 1;
nodes = (
"141 185 CURVE SMOOTH",
"141 266 LINE",
"387 266 LINE",
"387 322 LINE",
"141 322 LINE",
"141 375 LINE",
"387 375 LINE",
"387 432 LINE",
"141 432 LINE",
"141 512 LINE SMOOTH",
"141 568 OFFCURVE",
"157 607 OFFCURVE",
"191 631 CURVE SMOOTH",
"217 649 OFFCURVE",
"252 658 OFFCURVE",
"296 658 CURVE SMOOTH",
"330 658 OFFCURVE",
"366 651 OFFCURVE",
"404 637 CURVE",
"420 675 LINE",
"377 697 OFFCURVE",
"329 708 OFFCURVE",
"278 708 CURVE SMOOTH",
"238 708 OFFCURVE",
"201 700 OFFCURVE",
"172 683 CURVE SMOOTH",
"112 647 OFFCURVE",
"85 590 OFFCURVE",
"85 503 CURVE SMOOTH",
"85 432 LINE",
"29 432 LINE",
"29 375 LINE",
"85 375 LINE",
"85 322 LINE",
"29 322 LINE",
"29 266 LINE",
"85 266 LINE",
"85 183 LINE SMOOTH",
"85 99 OFFCURVE",
"118 42 OFFCURVE",
"165 15 CURVE",
"215 -10 OFFCURVE",
"262 -10 OFFCURVE",
"283 -10 CURVE SMOOTH",
"334 -10 OFFCURVE",
"388 1 OFFCURVE",
"444 23 CURVE",
"432 69 LINE",
"376 50 OFFCURVE",
"328 40 OFFCURVE",
"288 40 CURVE SMOOTH",
"242 40 OFFCURVE",
"209 48 OFFCURVE",
"187 65 CURVE SMOOTH",
"152 90 OFFCURVE",
"141 132 OFFCURVE"
);
}
);
width = 473;
}
);
leftKerningGroup = C;
rightKerningGroup = C;
unicode = 20AC;
userData = {
com.typemytype.robofont.mark = (
0.6,
1,
0.694,
1
);
};
},
{
color = (153,255,177,1);
glyphname = F;
layers = (
{
layerId = "F362B091-5F2C-44B8-BCF3-B70645E7FBBC";
name = Regular;
paths = (
{
closed = 1;
nodes = (
"374 698 LINE",
"41 698 LINE",
"41 0 LINE",
"97 0 LINE",
"97 356 LINE",
"265 356 LINE",
"288 411 LINE",
"97 411 LINE",
"97 645 LINE",
"374 645 LINE"
);
}
);
width = 390;
}
);
leftKerningGroup = F;
rightKerningGroup = F;
unicode = 0046;
userData = {
com.typemytype.robofont.mark = (
0.6,
1,
0.694,
1
);
};
},
{
color = (153,255,177,1);
glyphname = G;
layers = (
{
anchors = (
{
name = bottom;
position = "{238, 0}";
},
{
name = center;
position = "{238, 300}";
},
{
name = ogonek;
position = "{238, 0}";
},
{
name = tonos;
position = "{79, 700}";
},
{
name = top;
position = "{238, 735}";
}
);
layerId = "F362B091-5F2C-44B8-BCF3-B70645E7FBBC";
name = Regular;
paths = (
{
closed = 1;
nodes = (
"353 636 CURVE",
"370 674 LINE",
"327 696 OFFCURVE",
"279 707 OFFCURVE",
"228 707 CURVE SMOOTH",
"187 707 OFFCURVE",
"151 698 OFFCURVE",
"121 682 CURVE",
"64 647 OFFCURVE",
"34 586 OFFCURVE",
"34 502 CURVE SMOOTH",
"34 188 LINE SMOOTH",
"34 122 OFFCURVE",
"54 73 OFFCURVE",
"96 40 CURVE SMOOTH",
"137 7 OFFCURVE",
"187 -10 OFFCURVE",
"247 -10 CURVE SMOOTH",
"308 -10 OFFCURVE",
"354 7 OFFCURVE",
"390 41 CURVE",
"404 0 LINE",
"445 0 LINE",
"445 299 LINE",
"243 299 LINE",
"263 244 LINE",
"392 244 LINE",
"392 186 LINE SMOOTH",
"392 143 OFFCURVE",
"378 109 OFFCURVE",
"352 84 CURVE SMOOTH",
"327 58 OFFCURVE",
"290 44 OFFCURVE",
"245 44 CURVE SMOOTH",
"155 44 OFFCURVE",
"90 98 OFFCURVE",
"90 186 CURVE SMOOTH",
"90 510 LINE SMOOTH",
"90 562 OFFCURVE",
"105 599 OFFCURVE",
"133 624 CURVE SMOOTH",
"160 646 OFFCURVE",
"197 657 OFFCURVE",
"247 657 CURVE SMOOTH",
"280 657 OFFCURVE",
"316 650 OFFCURVE"
);
}
);
width = 477;
}
);
leftKerningGroup = G;
rightKerningGroup = G;
unicode = 0047;
userData = {
com.typemytype.robofont.mark = (
0.6,
1,
0.694,
1
);
};
},
{
color = (153,255,177,1);
glyphname = Gamma;
layers = (
{
layerId = "F362B091-5F2C-44B8-BCF3-B70645E7FBBC";
name = Regular;
paths = (
{
closed = 1;
nodes = (
"41 0 LINE",
"97 0 LINE",
"97 645 LINE",
"374 645 LINE",
"374 698 LINE",
"41 698 LINE"
);
}
);
width = 382;
}
);
leftKerningGroup = F;
rightKerningGroup = F;
unicode = 0393;
userData = {
com.typemytype.robofont.mark = (
0.6,
1,
0.694,
1
);
};
},
{
color = (153,255,177,1);
glyphname = H;
layers = (
{
anchors = (
{
name = bottom;
position = "{256, 0}";
},
{
name = center;
position = "{256, 300}";
},
{
name = ogonek;
position = "{256, 0}";
},
{
name = tonos;
position = "{85, 700}";
},
{
name = top;
position = "{256, 735}";
}
);
layerId = "F362B091-5F2C-44B8-BCF3-B70645E7FBBC";
name = Regular;
paths = (
{
closed = 1;
nodes = (
"414 411 LINE",
"97 411 LINE",
"97 698 LINE",
"41 698 LINE",
"41 0 LINE",
"97 0 LINE",
"97 356 LINE",
"414 356 LINE",
"414 0 LINE",
"470 0 LINE",
"470 698 LINE",
"414 698 LINE"
);
}
);
width = 513;
}
);
leftKerningGroup = H;
rightKerningGroup = H;
unicode = 0048;
userData = {
com.typemytype.robofont.mark = (
0.6,
1,
0.694,
1
);
};
},
{
color = (153,255,177,1);
glyphname = Hbar;
layers = (
{
layerId = "F362B091-5F2C-44B8-BCF3-B70645E7FBBC";
name = Regular;
paths = (
{
closed = 1;
nodes = (
"131 356 LINE",
"448 356 LINE",
"448 0 LINE",
"504 0 LINE",
"504 498 LINE",
"550 498 LINE",
"550 552 LINE",
"504 552 LINE",
"504 698 LINE",
"448 698 LINE",
"448 552 LINE",
"131 552 LINE",
"131 698 LINE",
"75 698 LINE",
"75 552 LINE",
"26 552 LINE",
"26 498 LINE",
"75 498 LINE",
"75 0 LINE",
"131 0 LINE"
);
},
{
closed = 1;
nodes = (
"448 498 LINE",
"448 411 LINE",
"131 411 LINE",
"131 498 LINE"
);
}
);
width = 579;
}
);
leftKerningGroup = H;
rightKerningGroup = H;
unicode = 0126;
userData = {
com.typemytype.robofont.mark = (
0.6,
1,
0.694,
1
);
};
},
{
color = (153,255,177,1);
glyphname = I;
layers = (
{
anchors = (
{
name = bottom;
position = "{93, 0}";
},
{
name = center;
position = "{93, 300}";
},
{
name = ogonek;
position = "{93, 0}";
},
{
name = tonos;
position = "{31, 700}";
},
{
name = top;
position = "{93, 735}";
}
);
layerId = "F362B091-5F2C-44B8-BCF3-B70645E7FBBC";
name = Regular;
paths = (
{
closed = 1;
nodes = (
"20 649 LINE",
"88 647 LINE",
"88 0 LINE",
"143 0 LINE",
"143 698 LINE",
"20 698 LINE"
);
}
);
width = 186;
}
);
leftKerningGroup = I;
rightKerningGroup = I;
unicode = 0049;
userData = {
com.typemytype.robofont.mark = (
0.6,
1,
0.694,
1
);
};
},
{
color = (153,255,177,1);
glyphname = J;
layers = (
{
anchors = (
{
name = bottom;
position = "{103, 0}";
},
{
name = center;
position = "{103, 300}";
},
{
name = ogonek;
position = "{102, 0}";
},
{
name = tonos;
position = "{34, 700}";
},
{
name = top;
position = "{103, 735}";
}
);
layerId = "F362B091-5F2C-44B8-BCF3-B70645E7FBBC";
name = Regular;
paths = (
{
closed = 1;
nodes = (
"165 118 CURVE SMOOTH",
"165 698 LINE",
"42 698 LINE",
"42 649 LINE",
"108 647 LINE",
"108 113 LINE SMOOTH",
"108 34 OFFCURVE",
"71 0 OFFCURVE",
"27 0 CURVE",
"40 -37 LINE",
"83 -37 OFFCURVE",
"116 -21 OFFCURVE",
"137 10 CURVE SMOOTH",
"156 36 OFFCURVE",
"165 73 OFFCURVE"
);
}
);
width = 206;
}
);
leftKerningGroup = J;
rightKerningGroup = J;
unicode = 004A;
userData = {
com.typemytype.robofont.mark = (
0.6,
1,
0.694,
1
);
};
},
{
color = (153,255,177,1);
glyphname = K;
layers = (
{
anchors = (
{
name = bottom;
position = "{228, 0}";
},
{
name = center;
position = "{228, 300}";
},
{
name = ogonek;
position = "{228, 0}";
},
{
name = tonos;
position = "{76, 700}";
},
{
name = top;
position = "{228, 735}";
}
);
layerId = "F362B091-5F2C-44B8-BCF3-B70645E7FBBC";
name = Regular;
paths = (
{
closed = 1;
nodes = (
"97 366 LINE",
"97 698 LINE",
"41 698 LINE",
"41 0 LINE",
"97 0 LINE",
"97 268 LINE",
"144 344 LINE",
"370 0 LINE",
"437 0 LINE",
"181 397 LINE",
"385 698 LINE",
"320 698 LINE"
);
}
);
width = 457;
}
);
leftKerningGroup = K;
rightKerningGroup = K;
unicode = 004B;
userData = {
com.typemytype.robofont.mark = (
0.6,
1,
0.694,
1
);
};
},
{
color = (153,255,177,1);
glyphname = L;
layers = (
{
anchors = (
{
name = bottom;
position = "{211, 0}";
},
{
name = center;
position = "{211, 300}";
},
{
name = ogonek;
position = "{211, 0}";
},
{
name = tonos;
position = "{70, 700}";
},
{
name = top;
position = "{211, 735}";
}
);
layerId = "F362B091-5F2C-44B8-BCF3-B70645E7FBBC";
name = Regular;
paths = (
{
closed = 1;
nodes = (
"41 0 LINE",
"401 0 LINE",
"401 50 LINE",
"97 50 LINE",
"97 698 LINE",
"41 698 LINE"
);
}
);
width = 423;
}
);
leftKerningGroup = L;
rightKerningGroup = L;
unicode = 004C;
userData = {
com.typemytype.robofont.mark = (
0.6,
1,
0.694,
1
);
};
},
{
glyphname = Lambda;
layers = (
{
layerId = "F362B091-5F2C-44B8-BCF3-B70645E7FBBC";
name = Regular;
paths = (
{
closed = 1;
nodes = (
"271 612 LINE",
"465 0 LINE",
"525 0 LINE",
"298 698 LINE",
"245 698 LINE",
"21 0 LINE",
"81 0 LINE"
);
}
);
width = 545;
}
);
leftKerningGroup = A;
rightKerningGroup = A;
unicode = 039B;
userData = {
com.typemytype.robofont.mark = (
0.6,
1,
0.694,
1
);
};
},
{
glyphname = Lslash;
layers = (
{
layerId = "F362B091-5F2C-44B8-BCF3-B70645E7FBBC";
name = Regular;
paths = (
{
closed = 1;
nodes = (
"126 0 LINE",
"487 0 LINE",
"487 50 LINE",
"182 50 LINE",
"182 372 LINE",
"332 439 LINE",
"309 488 LINE",
"182 431 LINE",
"182 698 LINE",
"126 698 LINE",
"126 406 LINE",
"18 358 LINE",
"40 308 LINE",
"126 346 LINE"
);
}
);
width = 509;
}
);
leftKerningGroup = L;
rightKerningGroup = L;
unicode = 0141;
userData = {
com.typemytype.robofont.mark = (
0.6,
1,
0.694,
1
);
};
},
{
glyphname = M;
layers = (
{
anchors = (
{
name = bottom;
position = "{309, 0}";
},
{
name = center;
position = "{309, 300}";
},
{
name = ogonek;
position = "{309, 0}";
},
{
name = tonos;
position = "{103, 700}";
},
{
name = top;
position = "{309, 735}";
}
);
layerId = "F362B091-5F2C-44B8-BCF3-B70645E7FBBC";
name = Regular;
paths = (
{
closed = 1;
nodes = (
"97 698 LINE",
"41 698 LINE",
"41 0 LINE",
"97 0 LINE",
"97 533 LINE",
"277 0 LINE",
"338 0 LINE",
"520 533 LINE",
"520 0 LINE",
"576 0 LINE",
"576 698 LINE",
"520 698 LINE",
"307 86 LINE"
);
}
);
width = 619;
}
);
leftKerningGroup = M;
rightKerningGroup = M;
unicode = 004D;
userData = {
com.typemytype.robofont.mark = (
0.6,
1,
0.694,
1
);
};
},
{
glyphname = N;
layers = (
{
anchors = (
{
name = bottom;
position = "{287, 0}";
},
{
name = center;
position = "{287, 300}";
},
{
name = ogonek;
position = "{286, 0}";
},
{
name = tonos;
position = "{95, 700}";
},
{
name = top;
position = "{287, 735}";
}
);
layerId = "F362B091-5F2C-44B8-BCF3-B70645E7FBBC";
name = Regular;
paths = (
{
closed = 1;
nodes = (
"532 698 LINE",
"476 698 LINE",
"476 102 LINE",
"97 698 LINE",
"41 698 LINE",
"41 0 LINE",
"97 0 LINE",
"97 595 LINE",
"476 0 LINE",
"532 0 LINE"
);
}
);
width = 575;
}
);
leftKerningGroup = N;
rightKerningGroup = N;
unicode = 004E;
userData = {
com.typemytype.robofont.mark = (
0.6,
1,
0.694,
1
);
};
},
{
glyphname = OE;
layers = (
{
layerId = "F362B091-5F2C-44B8-BCF3-B70645E7FBBC";
name = Regular;
paths = (
{
closed = 1;
nodes = (
"397 0 LINE",
"729 0 LINE",
"729 50 LINE",
"454 50 LINE",
"454 356 LINE",
"625 356 LINE",
"644 411 LINE",
"454 411 LINE",
"454 646 LINE",
"731 646 LINE",
"731 698 LINE",
"397 698 LINE",
"397 660 LINE",
"362 695 OFFCURVE",
"310 714 OFFCURVE",
"246 714 CURVE SMOOTH",
"114 714 OFFCURVE",
"34 642 OFFCURVE",
"34 506 CURVE SMOOTH",
"34 185 LINE SMOOTH",
"34 56 OFFCURVE",
"127 -11 OFFCURVE",
"245 -11 CURVE SMOOTH",
"307 -11 OFFCURVE",
"360 8 OFFCURVE",
"397 43 CURVE"
);
},
{
closed = 1;
nodes = (
"90 186 CURVE SMOOTH",
"90 515 LINE SMOOTH",
"90 612 OFFCURVE",
"151 661 OFFCURVE",
"243 661 CURVE SMOOTH",
"329 661 OFFCURVE",
"389 618 OFFCURVE",
"397 536 CURVE",
"397 164 LINE",
"389 81 OFFCURVE",
"327 42 OFFCURVE",
"243 42 CURVE SMOOTH",
"155 42 OFFCURVE",
"90 90 OFFCURVE"
);
}
);
width = 762;
}
);
unicode = 0152;
userData = {
com.typemytype.robofont.mark = (
0.6,
1,
0.694,
1
);
};
},
{
glyphname = O;
layers = (
{
anchors = (
{
name = bottom;
position = "{245, 0}";
},
{
name = center;
position = "{245, 300}";
},
{
name = ogonek;
position = "{244, 0}";
},
{
name = tonos;
position = "{81, 700}";
},
{
name = top;
position = "{245, 735}";
}
);
layerId = "F362B091-5F2C-44B8-BCF3-B70645E7FBBC";
name = Regular;
paths = (
{
closed = 1;
nodes = (
"34 506 CURVE SMOOTH",
"34 185 LINE SMOOTH",
"34 56 OFFCURVE",
"127 -11 OFFCURVE",
"245 -11 CURVE SMOOTH",
"368 -11 OFFCURVE",
"454 64 OFFCURVE",
"454 185 CURVE SMOOTH",
"454 505 LINE SMOOTH",
"454 635 OFFCURVE",
"378 714 OFFCURVE",
"246 714 CURVE SMOOTH",
"114 714 OFFCURVE",
"34 642 OFFCURVE"
);
},
{
closed = 1;
nodes = (
"90 186 CURVE SMOOTH",
"90 515 LINE SMOOTH",
"90 612 OFFCURVE",
"151 661 OFFCURVE",
"243 661 CURVE SMOOTH",
"337 661 OFFCURVE",
"399 612 OFFCURVE",
"399 515 CURVE SMOOTH",
"399 186 LINE SMOOTH",
"399 88 OFFCURVE",
"335 42 OFFCURVE",
"243 42 CURVE SMOOTH",
"155 42 OFFCURVE",
"90 90 OFFCURVE"
);
}
);
width = 490;
}
);
leftKerningGroup = O;
rightKerningGroup = O;
unicode = 004F;
userData = {
com.typemytype.robofont.mark = (
0.6,
1,
0.694,
1
);
};
},
{
glyphname = Omegagreek;
layers = (
{
anchors = (
{
name = bottom;
position = "{290, 0}";
},
{
name = center;
position = "{290, 300}";
},
{
name = ogonek;
position = "{289, 0}";
},
{
name = tonos;
position = "{96, 700}";
},
{
name = top;
position = "{290, 735}";
}
);
layerId = "F362B091-5F2C-44B8-BCF3-B70645E7FBBC";
name = Regular;
paths = (
{
closed = 1;
nodes = (
"533 194 CURVE SMOOTH",
"533 501 LINE SMOOTH",
"533 623 OFFCURVE",
"470 704 OFFCURVE",
"346 704 CURVE SMOOTH",
"234 704 LINE SMOOTH",
"109 704 OFFCURVE",
"47 623 OFFCURVE",
"47 501 CURVE SMOOTH",
"47 194 LINE SMOOTH",
"47 127 OFFCURVE",
"70 78 OFFCURVE",
"115 50 CURVE",
"51 50 LINE",
"33 -1 LINE",
"261 -1 LINE",
"261 50 LINE",
"201 50 OFFCURVE",
"152 77 OFFCURVE",
"135 98 CURVE SMOOTH",
"114 122 OFFCURVE",
"103 154 OFFCURVE",
"103 194 CURVE SMOOTH",
"103 510 LINE SMOOTH",
"103 598 OFFCURVE",
"155 652 OFFCURVE",
"234 652 CURVE SMOOTH",
"346 652 LINE SMOOTH",
"425 652 OFFCURVE",
"478 598 OFFCURVE",
"478 510 CURVE SMOOTH",
"478 194 LINE SMOOTH",
"478 140 OFFCURVE",
"458 102 OFFCURVE",
"422 80 CURVE SMOOTH",
"403 69 OFFCURVE",
"362 50 OFFCURVE",
"318 50 CURVE",
"318 -1 LINE",
"546 -1 LINE",
"530 50 LINE",
"460 50 LINE",
"510 79 OFFCURVE",
"533 128 OFFCURVE"
);
}
);
width = 580;
}
);
leftKerningGroup = Omegagreek;
rightKerningGroup = Omegagreek;
unicode = 03A9;
userData = {
com.typemytype.robofont.mark = (
0.6,
1,
0.694,
1
);
};
},
{
glyphname = Oslash;
layers = (
{
layerId = "F362B091-5F2C-44B8-BCF3-B70645E7FBBC";
name = Regular;
paths = (
{
closed = 1;
nodes = (
"34 506 CURVE SMOOTH",
"34 185 LINE SMOOTH",
"34 56 OFFCURVE",
"127 -11 OFFCURVE",
"245 -11 CURVE SMOOTH",
"368 -11 OFFCURVE",
"454 64 OFFCURVE",
"454 185 CURVE SMOOTH",
"454 505 LINE SMOOTH",
"454 635 OFFCURVE",
"378 714 OFFCURVE",
"246 714 CURVE SMOOTH",
"114 714 OFFCURVE",
"34 642 OFFCURVE"
);
},
{
closed = 1;
nodes = (
"90 186 CURVE SMOOTH",
"90 515 LINE SMOOTH",
"90 612 OFFCURVE",
"151 661 OFFCURVE",
"243 661 CURVE SMOOTH",
"337 661 OFFCURVE",
"399 612 OFFCURVE",
"399 515 CURVE SMOOTH",
"399 186 LINE SMOOTH",
"399 88 OFFCURVE",
"335 42 OFFCURVE",
"243 42 CURVE SMOOTH",
"155 42 OFFCURVE",
"90 90 OFFCURVE"
);
},
{
closed = 1;
nodes = (
"86 -113 LINE",
"147 -113 LINE",
"466 815 LINE",
"410 815 LINE"
);
}
);
width = 498;
}
);
leftKerningGroup = O;
rightKerningGroup = O;
unicode = 00D8;
userData = {
com.typemytype.robofont.mark = (
0.6,
1,
0.694,
1
);
};
},
{
glyphname = P;
layers = (
{
layerId = "F362B091-5F2C-44B8-BCF3-B70645E7FBBC";
name = Regular;
paths = (
{
closed = 1;
nodes = (
"276 698 CURVE SMOOTH",
"41 698 LINE",
"41 0 LINE",
"97 0 LINE",
"97 244 LINE",
"161 244 OFFCURVE",
"228 244 OFFCURVE",
"276 244 CURVE SMOOTH",
"408 244 OFFCURVE",
"474 307 OFFCURVE",
"474 472 CURVE SMOOTH",
"474 643 OFFCURVE",
"403 698 OFFCURVE"
);
},
{
closed = 1;
nodes = (
"97 299 CURVE",
"97 645 LINE",
"281 645 LINE SMOOTH",
"359 645 OFFCURVE",
"418 613 OFFCURVE",
"418 472 CURVE SMOOTH",
"418 320 OFFCURVE",
"357 299 OFFCURVE",
"281 299 CURVE SMOOTH",
"236 299 OFFCURVE",
"170 299 OFFCURVE"
);
}
);
width = 504;
}
);
leftKerningGroup = P;
rightKerningGroup = P;
unicode = 0050;
userData = {
com.typemytype.robofont.mark = (
0.6,
1,
0.694,
1
);
};
},
{
glyphname = Phi;
layers = (
{
layerId = "F362B091-5F2C-44B8-BCF3-B70645E7FBBC";
name = Regular;
paths = (
{
closed = 1;
nodes = (
"180 659 CURVE",
"150 704 LINE",
"73 679 OFFCURVE",
"33 616 OFFCURVE",
"33 516 CURVE SMOOTH",
"33 224 LINE SMOOTH",
"33 103 OFFCURVE",
"95 30 OFFCURVE",
"223 30 CURVE SMOOTH",
"266 30 LINE",
"266 -28 LINE",
"323 -35 LINE",
"323 30 LINE",
"372 30 LINE SMOOTH",
"500 30 OFFCURVE",
"558 103 OFFCURVE",
"558 224 CURVE SMOOTH",
"558 509 LINE SMOOTH",
"558 572 OFFCURVE",
"539 623 OFFCURVE",
"505 658 CURVE SMOOTH",
"473 690 OFFCURVE",
"429 708 OFFCURVE",
"373 708 CURVE SMOOTH",
"311 708 OFFCURVE",
"270 670 OFFCURVE",
"266 603 CURVE",
"266 79 LINE",
"223 79 LINE SMOOTH",
"142 79 OFFCURVE",
"89 127 OFFCURVE",
"89 215 CURVE SMOOTH",
"89 516 LINE SMOOTH",
"89 596 OFFCURVE",
"120 645 OFFCURVE"
);
},
{
closed = 1;
nodes = (
"372 79 CURVE SMOOTH",
"323 79 LINE",
"323 594 LINE SMOOTH",
"323 635 OFFCURVE",
"342 656 OFFCURVE",
"381 656 CURVE SMOOTH",
"412 656 OFFCURVE",
"442 645 OFFCURVE",
"466 621 CURVE",
"492 598 OFFCURVE",
"505 564 OFFCURVE",
"505 519 CURVE SMOOTH",
"505 215 LINE SMOOTH",
"505 127 OFFCURVE",
"453 79 OFFCURVE"
);
}
);
width = 593;
}
);
leftKerningGroup = Phi;
rightKerningGroup = Phi;
unicode = 03A6;
userData = {
com.typemytype.robofont.mark = (
0.6,
1,
0.694,
1
);
};
},
{
glyphname = Pi;
layers = (
{
layerId = "F362B091-5F2C-44B8-BCF3-B70645E7FBBC";
name = Regular;
paths = (
{
closed = 1;
nodes = (
"413 0 LINE",
"470 0 LINE",
"470 698 LINE",
"41 698 LINE",
"41 0 LINE",
"97 0 LINE",
"97 641 LINE",
"413 641 LINE"
);
}
);
width = 513;
}
);
leftKerningGroup = H;
rightKerningGroup = H;
unicode = 03A0;
userData = {
com.typemytype.robofont.mark = (
0.6,
1,
0.694,
1
);
};
},
{
glyphname = Psi;
layers = (
{
layerId = "F362B091-5F2C-44B8-BCF3-B70645E7FBBC";
name = Regular;
paths = (
{
closed = 1;
nodes = (
"87 395 CURVE SMOOTH",
"87 698 LINE",
"31 698 LINE",
"31 405 LINE SMOOTH",
"31 284 OFFCURVE",
"93 212 OFFCURVE",
"219 212 CURVE SMOOTH",
"263 212 LINE",
"263 0 LINE",
"320 0 LINE",
"320 212 LINE",
"370 212 LINE SMOOTH",
"497 212 OFFCURVE",
"556 284 OFFCURVE",
"556 405 CURVE SMOOTH",
"556 548 LINE SMOOTH",
"556 637 OFFCURVE",
"536 682 OFFCURVE",
"500 707 CURVE",
"456 691 LINE",
"456 691 OFFCURVE",
"500 657 OFFCURVE",
"500 562 CURVE SMOOTH",
"500 395 LINE SMOOTH",
"500 307 OFFCURVE",
"449 263 OFFCURVE",
"370 263 CURVE SMOOTH",
"320 263 LINE",
"320 698 LINE",
"263 698 LINE",
"263 263 LINE",
"219 263 LINE SMOOTH",
"139 263 OFFCURVE",
"87 307 OFFCURVE"
);
}
);
width = 589;
}
);
leftKerningGroup = Phi;
rightKerningGroup = Phi;
unicode = 03A8;
userData = {
com.typemytype.robofont.mark = (
0.6,
1,
0.694,
1
);
};
},
{
glyphname = Q;
layers = (
{
components = (
{
name = O;
transform = "{1, 0, 0, 1, 0, 0}";
}
);
layerId = "F362B091-5F2C-44B8-BCF3-B70645E7FBBC";
name = Regular;
paths = (
{
closed = 1;
nodes = (
"270 50 CURVE SMOOTH",
"270 90 OFFCURVE",
"270 132 OFFCURVE",
"270 173 CURVE",
"214 173 LINE",
"214 132 OFFCURVE",
"214 91 OFFCURVE",
"214 51 CURVE SMOOTH",
"214 -61 OFFCURVE",
"272 -107 OFFCURVE",
"389 -107 CURVE",
"395 -61 LINE",
"314 -62 OFFCURVE",
"270 -33 OFFCURVE"
);
}
);
width = 490;
}
);
leftKerningGroup = O;
rightKerningGroup = O;
unicode = 0051;
userData = {
com.typemytype.robofont.mark = (
0.6,
1,
0.694,
1
);
};
},
{
glyphname = R;
layers = (
{
anchors = (
{
name = bottom;
position = "{254, 0}";
},
{
name = center;
position = "{254, 300}";
},
{
name = ogonek;
position = "{253, 0}";
},
{
name = tonos;
position = "{84, 700}";
},
{
name = top;
position = "{254, 735}";
}
);
layerId = "F362B091-5F2C-44B8-BCF3-B70645E7FBBC";
name = Regular;
paths = (
{
closed = 1;
nodes = (
"276 698 CURVE SMOOTH",
"41 698 LINE",
"41 0 LINE",
"97 0 LINE",
"97 244 LINE",
"276 244 LINE SMOOTH",
"296 244 OFFCURVE",
"315 245 OFFCURVE",
"331 249 CURVE",
"418 0 LINE",
"474 0 LINE",
"382 264 LINE",
"444 294 OFFCURVE",
"474 359 OFFCURVE",
"474 472 CURVE SMOOTH",
"474 643 OFFCURVE",
"403 698 OFFCURVE"
);
},
{
closed = 1;
nodes = (
"281 299 CURVE SMOOTH",
"97 299 LINE",
"97 645 LINE",
"281 645 LINE SMOOTH",
"359 645 OFFCURVE",
"418 613 OFFCURVE",
"418 472 CURVE SMOOTH",
"418 320 OFFCURVE",
"357 299 OFFCURVE"
);
}
);
width = 508;
}
);
leftKerningGroup = B;
rightKerningGroup = B;
unicode = 0052;
userData = {
com.typemytype.robofont.mark = (
0.6,
1,
0.694,
1
);
};
},
{
glyphname = Rho;
layers = (
{
layerId = "F362B091-5F2C-44B8-BCF3-B70645E7FBBC";
name = Regular;
paths = (
{
closed = 1;
nodes = (
"276 698 CURVE SMOOTH",
"41 698 LINE",
"41 0 LINE",
"97 0 LINE",
"97 244 LINE",
"161 244 OFFCURVE",
"228 244 OFFCURVE",
"276 244 CURVE SMOOTH",
"408 244 OFFCURVE",
"474 307 OFFCURVE",
"474 472 CURVE SMOOTH",
"474 643 OFFCURVE",
"403 698 OFFCURVE"
);
},
{
closed = 1;
nodes = (
"97 299 CURVE",
"97 645 LINE",
"281 645 LINE SMOOTH",
"359 645 OFFCURVE",
"418 613 OFFCURVE",
"418 472 CURVE SMOOTH",
"418 320 OFFCURVE",
"357 299 OFFCURVE",
"281 299 CURVE SMOOTH",
"236 299 OFFCURVE",
"170 299 OFFCURVE"
);
}
);
width = 504;
}
);
leftKerningGroup = P;
rightKerningGroup = P;
unicode = 03A1;
userData = {
com.typemytype.robofont.mark = (
0.6,
1,
0.694,
1
);
};
},
{
glyphname = S;
layers = (
{
anchors = (
{
name = bottom;
position = "{264, 0}";
},
{
name = center;
position = "{264, 300}";
},
{
name = ogonek;
position = "{264, 0}";
},
{
name = tonos;
position = "{88, 700}";
},
{
name = top;
position = "{264, 735}";
}
);
layerId = "F362B091-5F2C-44B8-BCF3-B70645E7FBBC";
name = Regular;
paths = (
{
closed = 1;
nodes = (
"419 618 CURVE",
"436 670 LINE",
"390 695 OFFCURVE",
"331 708 OFFCURVE",
"273 707 CURVE SMOOTH",
"218 707 OFFCURVE",
"164 693 OFFCURVE",
"125 664 CURVE",
"87 639 OFFCURVE",
"63 599 OFFCURVE",
"60 547 CURVE SMOOTH",
"56 448 OFFCURVE",
"129 402 OFFCURVE",
"213 365 CURVE SMOOTH",
"246 351 OFFCURVE",
"280 339 OFFCURVE",
"312 324 CURVE SMOOTH",
"383 293 OFFCURVE",
"442 254 OFFCURVE",
"438 177 CURVE SMOOTH",
"436 140 OFFCURVE",
"423 112 OFFCURVE",
"402 91 CURVE SMOOTH",
"368 56 OFFCURVE",
"313 42 OFFCURVE",
"258 42 CURVE SMOOTH",
"202 42 OFFCURVE",
"158 62 OFFCURVE",
"129 84 CURVE SMOOTH",
"82 120 OFFCURVE",
"71 159 OFFCURVE",
"71 159 CURVE",
"26 132 LINE",
"26 132 OFFCURVE",
"44 77 OFFCURVE",
"102 35 CURVE SMOOTH",
"138 9 OFFCURVE",
"190 -12 OFFCURVE",
"262 -12 CURVE SMOOTH",
"326 -12 OFFCURVE",
"391 3 OFFCURVE",
"436 43 CURVE SMOOTH",
"473 73 OFFCURVE",
"496 118 OFFCURVE",
"498 179 CURVE SMOOTH",
"502 282 OFFCURVE",
"425 333 OFFCURVE",
"338 373 CURVE SMOOTH",
"303 389 OFFCURVE",
"267 403 OFFCURVE",
"233 417 CURVE SMOOTH",
"167 447 OFFCURVE",
"115 480 OFFCURVE",
"118 541 CURVE SMOOTH",
"119 579 OFFCURVE",
"138 606 OFFCURVE",
"164 625 CURVE SMOOTH",
"193 645 OFFCURVE",
"233 653 OFFCURVE",
"274 653 CURVE SMOOTH",
"324 654 OFFCURVE",
"377 641 OFFCURVE"
);
}
);
width = 528;
}
);
leftKerningGroup = S;
rightKerningGroup = S;
unicode = 0053;
userData = {
com.typemytype.robofont.mark = (
0.6,
1,
0.694,
1
);
};
},
{
glyphname = Sigma;
layers = (
{
layerId = "F362B091-5F2C-44B8-BCF3-B70645E7FBBC";
name = Regular;
paths = (
{
closed = 1;
nodes = (
"343 50 CURVE SMOOTH",
"117 50 LINE",
"317 386 LINE",
"141 645 LINE",
"449 645 LINE",
"468 698 LINE",
"41 698 LINE",
"250 384 LINE",
"25 0 LINE",
"347 0 LINE SMOOTH",
"426 0 OFFCURVE",
"470 31 OFFCURVE",
"491 106 CURVE",
"448 121 LINE",
"433 76 OFFCURVE",
"394 50 OFFCURVE"
);
}
);
width = 521;
}
);
leftKerningGroup = Xi;
rightKerningGroup = Xi;
unicode = 03A3;
userData = {
com.typemytype.robofont.mark = (
0.6,
1,
0.694,
1
);
};
},
{
glyphname = T;
layers = (
{
anchors = (
{
name = bottom;
position = "{208, 0}";
},
{
name = center;
position = "{208, 300}";
},
{
name = ogonek;
position = "{207, 0}";
},
{
name = tonos;
position = "{69, 700}";
},
{
name = top;
position = "{208, 735}";
}
);
layerId = "F362B091-5F2C-44B8-BCF3-B70645E7FBBC";
name = Regular;
paths = (
{
closed = 1;
nodes = (
"232 648 LINE",
"408 648 LINE",
"408 698 LINE",
"7 698 LINE",
"7 648 LINE",
"177 648 LINE",
"177 0 LINE",
"232 0 LINE"
);
}
);
width = 416;
}
);
leftKerningGroup = T;
rightKerningGroup = T;
unicode = 0054;
userData = {
com.typemytype.robofont.mark = (
0.6,
1,
0.694,
1
);
};
},
{
glyphname = Tbar;
layers = (
{
layerId = "F362B091-5F2C-44B8-BCF3-B70645E7FBBC";
name = Regular;
paths = (
{
closed = 1;
nodes = (
"29 648 LINE",
"199 648 LINE",
"199 378 LINE",
"29 378 LINE",
"29 322 LINE",
"199 322 LINE",
"199 0 LINE",
"254 0 LINE",
"254 322 LINE",
"428 322 LINE",
"428 378 LINE",
"254 378 LINE",
"254 648 LINE",
"430 648 LINE",
"430 698 LINE",
"29 698 LINE"
);
}
);
width = 463;
}
);
leftKerningGroup = T;
rightKerningGroup = T;
unicode = 0166;
userData = {
com.typemytype.robofont.mark = (
0.6,
1,
0.694,
1
);
};
},
{
glyphname = Theta;
layers = (
{
layerId = "F362B091-5F2C-44B8-BCF3-B70645E7FBBC";
name = Regular;
paths = (
{
closed = 1;
nodes = (
"34 506 CURVE SMOOTH",
"34 185 LINE SMOOTH",
"34 56 OFFCURVE",
"127 -11 OFFCURVE",
"245 -11 CURVE SMOOTH",
"368 -11 OFFCURVE",
"454 64 OFFCURVE",
"454 185 CURVE SMOOTH",
"454 505 LINE SMOOTH",
"454 635 OFFCURVE",
"378 714 OFFCURVE",
"246 714 CURVE SMOOTH",
"114 714 OFFCURVE",
"34 642 OFFCURVE"
);
},
{
closed = 1;
nodes = (
"399 515 CURVE SMOOTH",
"399 358 LINE",
"90 358 LINE",
"90 515 LINE SMOOTH",
"90 612 OFFCURVE",
"151 661 OFFCURVE",
"243 661 CURVE SMOOTH",
"337 661 OFFCURVE",
"399 612 OFFCURVE"
);
},
{
closed = 1;
nodes = (
"243 42 CURVE SMOOTH",
"155 42 OFFCURVE",
"90 90 OFFCURVE",
"90 186 CURVE SMOOTH",
"90 301 LINE",
"399 301 LINE",
"399 186 LINE SMOOTH",
"399 88 OFFCURVE",
"335 42 OFFCURVE"
);
}
);
width = 490;
}
);
leftKerningGroup = O;
rightKerningGroup = O;
unicode = 0398;
userData = {
com.typemytype.robofont.mark = (
0.6,
1,
0.694,
1
);
};
},
{
glyphname = Thorn;
layers = (
{
layerId = "F362B091-5F2C-44B8-BCF3-B70645E7FBBC";
name = Regular;
paths = (
{
closed = 1;
nodes = (
"400 289 CURVE SMOOTH",
"400 435 LINE SMOOTH",
"399 479 OFFCURVE",
"391 510 OFFCURVE",
"372 542 CURVE SMOOTH",
"347 586 OFFCURVE",
"307 610 OFFCURVE",
"263 620 CURVE SMOOTH",
"212 631 OFFCURVE",
"150 621 OFFCURVE",
"97 599 CURVE",
"97 698 LINE",
"41 698 LINE",
"41 0 LINE",
"97 0 LINE",
"97 118 LINE",
"160 102 OFFCURVE",
"234 100 OFFCURVE",
"288 118 CURVE SMOOTH",
"357 140 OFFCURVE",
"400 191 OFFCURVE"
);
},
{
closed = 1;
nodes = (
"253 570 CURVE SMOOTH",
"284 562 OFFCURVE",
"310 542 OFFCURVE",
"327 510 CURVE",
"338 486 OFFCURVE",
"346 457 OFFCURVE",
"346 420 CURVE SMOOTH",
"346 301 LINE SMOOTH",
"346 234 OFFCURVE",
"328 188 OFFCURVE",
"276 168 CURVE SMOOTH",
"218 144 OFFCURVE",
"119 165 OFFCURVE",
"97 169 CURVE",
"97 547 LINE",
"143 568 OFFCURVE",
"212 581 OFFCURVE"
);
}
);
width = 430;
}
);
unicode = 00DE;
userData = {
com.typemytype.robofont.mark = (
0.6,
1,
0.694,
1
);
};
},
{
glyphname = U;
layers = (
{
anchors = (
{
name = bottom;
position = "{248, 0}";
},
{
name = center;
position = "{248, 300}";
},
{
name = ogonek;
position = "{247, 0}";
},
{
name = tonos;
position = "{82, 700}";
},
{
name = top;
position = "{248, 735}";
}
);
layerId = "F362B091-5F2C-44B8-BCF3-B70645E7FBBC";
name = Regular;
paths = (
{
closed = 1;
nodes = (
"456 185 CURVE SMOOTH",
"456 698 LINE",
"401 698 LINE",
"401 186 LINE SMOOTH",
"401 140 OFFCURVE",
"386 106 OFFCURVE",
"362 81 CURVE SMOOTH",
"335 54 OFFCURVE",
"295 42 OFFCURVE",
"247 42 CURVE SMOOTH",
"205 42 OFFCURVE",
"167 53 OFFCURVE",
"141 74 CURVE SMOOTH",
"110 98 OFFCURVE",
"93 135 OFFCURVE",
"93 186 CURVE SMOOTH",
"93 698 LINE",
"38 698 LINE",
"38 185 LINE SMOOTH",
"38 118 OFFCURVE",
"59 68 OFFCURVE",
"99 36 CURVE SMOOTH",
"141 4 OFFCURVE",
"191 -11 OFFCURVE",
"248 -11 CURVE SMOOTH",
"304 -11 OFFCURVE",
"353 4 OFFCURVE",
"394 36 CURVE SMOOTH",
"435 68 OFFCURVE",
"456 118 OFFCURVE"
);
}
);
width = 496;
}
);
leftKerningGroup = U;
rightKerningGroup = U;
unicode = 0055;
userData = {
com.typemytype.robofont.mark = (
0.6,
1,
0.694,
1
);
};
},
{
glyphname = V;
layers = (
{
layerId = "F362B091-5F2C-44B8-BCF3-B70645E7FBBC";
name = Regular;
paths = (
{
closed = 1;
nodes = (
"15 698 LINE",
"215 0 LINE",
"292 0 LINE",
"491 698 LINE",
"432 698 LINE",
"253 69 LINE",
"75 698 LINE"
);
}
);
width = 509;
}
);
leftKerningGroup = V;
rightKerningGroup = V;
unicode = 0056;
userData = {
com.typemytype.robofont.mark = (
0.6,
1,
0.694,
1
);
};
},
{
glyphname = W;
layers = (
{
anchors = (
{
name = bottom;
position = "{365, 0}";
},
{
name = center;
position = "{365, 300}";
},
{
name = ogonek;
position = "{364, 0}";
},
{
name = tonos;
position = "{121, 700}";
},
{
name = top;
position = "{365, 735}";
}
);
layerId = "F362B091-5F2C-44B8-BCF3-B70645E7FBBC";
name = Regular;
paths = (
{
closed = 1;
nodes = (
"404 698 LINE",
"326 698 LINE",
"219 69 LINE",
"78 698 LINE",
"17 698 LINE",
"182 0 LINE",
"267 0 LINE",
"366 597 LINE",
"464 0 LINE",
"548 0 LINE",
"711 698 LINE",
"652 698 LINE",
"511 69 LINE"
);
}
);
width = 731;
}
);
leftKerningGroup = W;
rightKerningGroup = W;
unicode = 0057;
userData = {
com.typemytype.robofont.mark = (
0.6,
1,
0.694,
1
);
};
},
{
glyphname = X;
layers = (
{
anchors = (
{
name = bottom;
position = "{277, 0}";
},
{
name = center;
position = "{277, 300}";
},
{
name = ogonek;
position = "{276, 0}";
},
{
name = tonos;
position = "{92, 700}";
},
{
name = top;
position = "{277, 735}";
}
);
layerId = "F362B091-5F2C-44B8-BCF3-B70645E7FBBC";
name = Regular;
paths = (
{
closed = 1;
nodes = (
"278 405 LINE",
"106 698 LINE",
"43 698 LINE",
"245 351 LINE",
"25 0 LINE",
"93 0 LINE",
"278 293 LINE",
"461 0 LINE",
"530 0 LINE",
"312 351 LINE",
"514 698 LINE",
"452 698 LINE"
);
}
);
width = 554;
}
);
leftKerningGroup = X;
rightKerningGroup = X;
unicode = 0058;
userData = {
com.typemytype.robofont.mark = (
0.6,
1,
0.694,
1
);
};
},
{
glyphname = Xi;
layers = (
{
layerId = "F362B091-5F2C-44B8-BCF3-B70645E7FBBC";
name = Regular;
paths = (
{
closed = 1;
nodes = (
"23 593 CURVE",
"66 577 LINE",
"83 625 OFFCURVE",
"116 648 OFFCURVE",
"168 648 CURVE SMOOTH",
"471 648 LINE",
"492 698 LINE",
"168 698 LINE SMOOTH",
"89 698 OFFCURVE",
"44 668 OFFCURVE"
);
},
{
closed = 1;
nodes = (
"415 306 LINE",
"415 362 LINE",
"149 362 LINE",
"149 306 LINE"
);
},
{
closed = 1;
nodes = (
"386 53 CURVE SMOOTH",
"84 53 LINE",
"63 0 LINE",
"386 0 LINE SMOOTH",
"466 0 OFFCURVE",
"511 31 OFFCURVE",
"532 106 CURVE",
"489 122 LINE",
"472 76 OFFCURVE",
"438 53 OFFCURVE"
);
}
);
width = 562;
}
);
leftKerningGroup = Xi;
rightKerningGroup = Xi;
unicode = 039E;
userData = {
com.typemytype.robofont.mark = (
0.6,
1,
0.694,
1
);
};
},
{
glyphname = Y;
layers = (
{
anchors = (
{
name = bottom;
position = "{256, 0}";
},
{
name = center;
position = "{256, 300}";
},
{
name = ogonek;
position = "{256, 0}";
},
{
name = tonos;
position = "{85, 700}";
},
{
name = top;
position = "{256, 735}";
}
);
layerId = "F362B091-5F2C-44B8-BCF3-B70645E7FBBC";
name = Regular;
paths = (
{
closed = 1;
nodes = (
"472 155 CURVE SMOOTH",
"472 698 LINE",
"416 698 LINE",
"416 422 LINE SMOOTH",
"416 380 OFFCURVE",
"391 339 OFFCURVE",
"352 319 CURVE SMOOTH",
"325 306 OFFCURVE",
"290 299 OFFCURVE",
"249 299 CURVE SMOOTH",
"205 299 OFFCURVE",
"165 310 OFFCURVE",
"132 334 CURVE",
"100 360 OFFCURVE",
"86 395 OFFCURVE",
"86 451 CURVE SMOOTH",
"86 698 LINE",
"30 698 LINE",
"30 462 LINE SMOOTH",
"30 381 OFFCURVE",
"50 330 OFFCURVE",
"92 295 CURVE SMOOTH",
"132 260 OFFCURVE",
"188 241 OFFCURVE",
"259 244 CURVE SMOOTH",
"349 250 OFFCURVE",
"398 285 OFFCURVE",
"416 305 CURVE",
"416 152 LINE SMOOTH",
"416 86 OFFCURVE",
"396 45 OFFCURVE",
"355 30 CURVE",
"368 -7 LINE",
"435 2 OFFCURVE",
"472 58 OFFCURVE"
);
}
);
width = 513;
}
);
leftKerningGroup = Y;
rightKerningGroup = Y;
unicode = 0059;
userData = {
com.typemytype.robofont.mark = (
0.6,
1,
0.694,
1
);
};
},
{
glyphname = Y_alt;
layers = (
{
layerId = "F362B091-5F2C-44B8-BCF3-B70645E7FBBC";
name = Regular;
paths = (
{
closed = 1;
nodes = (
"269 341 LINE",
"477 698 LINE",
"413 698 LINE",
"240 405 LINE",
"69 698 LINE",
"6 698 LINE",
"213 339 LINE",
"213 0 LINE",
"269 0 LINE"
);
}
);
width = 485;
}
);
unicode = 9997;
userData = {
com.typemytype.robofont.mark = (
0.6,
1,
0.694,
1
);
};
},
{
glyphname = Z;
layers = (
{
anchors = (
{
name = bottom;
position = "{272, 0}";
},
{
name = center;
position = "{272, 300}";
},
{
name = ogonek;
position = "{271, 0}";
},
{
name = tonos;
position = "{90, 700}";
},
{
name = top;
position = "{272, 735}";
}
);
layerId = "F362B091-5F2C-44B8-BCF3-B70645E7FBBC";
name = Regular;
paths = (
{
closed = 1;
nodes = (
"509 698 LINE",
"41 698 LINE",
"41 647 LINE",
"437 647 LINE",
"29 50 LINE",
"29 0 LINE",
"514 0 LINE",
"514 51 LINE",
"99 51 LINE",
"509 648 LINE"
);
}
);
width = 545;
}
);
leftKerningGroup = Z;
rightKerningGroup = Z;
unicode = 005A;
userData = {
com.typemytype.robofont.mark = (
0.6,
1,
0.694,
1
);
};
},
{
glyphname = Zeta;
layers = (
{
layerId = "F362B091-5F2C-44B8-BCF3-B70645E7FBBC";
name = Regular;
paths = (
{
closed = 1;
nodes = (
"509 698 LINE",
"42 698 LINE",
"42 647 LINE",
"438 647 LINE",
"29 50 LINE",
"29 0 LINE",
"515 0 LINE",
"515 51 LINE",
"101 51 LINE",
"509 648 LINE"
);
}
);
width = 546;
}
);
leftKerningGroup = Z;
rightKerningGroup = Z;
unicode = 0396;
userData = {
com.typemytype.robofont.mark = (
0.6,
1,
0.694,
1
);
};
},
{
glyphname = a;
layers = (
{
anchors = (
{
name = bottom;
position = "{223, 0}";
},
{
name = center;
position = "{223, 300}";
},
{
name = ogonek;
position = "{222, 0}";
},
{
name = tonos;
position = "{223, 545}";
},
{
name = top;
position = "{223, 545}";
}
);
layerId = "F362B091-5F2C-44B8-BCF3-B70645E7FBBC";
name = Regular;
paths = (
{
closed = 1;
nodes = (
"354 349 CURVE",
"307 375 OFFCURVE",
"244 402 OFFCURVE",
"179 402 CURVE SMOOTH",
"98 402 OFFCURVE",
"26 363 OFFCURVE",
"26 251 CURVE SMOOTH",
"26 223 OFFCURVE",
"26 196 OFFCURVE",
"26 168 CURVE SMOOTH",
"26 21 OFFCURVE",
"124 -14 OFFCURVE",
"252 -10 CURVE SMOOTH",
"302 -9 OFFCURVE",
"410 0 OFFCURVE",
"410 0 CURVE",
"410 96 OFFCURVE",
"410 191 OFFCURVE",
"410 287 CURVE SMOOTH",
"410 375 OFFCURVE",
"402 444 OFFCURVE",
"339 480 CURVE SMOOTH",
"297 504 OFFCURVE",
"248 507 OFFCURVE",
"202 507 CURVE",
"200 464 LINE",
"237 464 OFFCURVE",
"271 461 OFFCURVE",
"296 449 CURVE SMOOTH",
"333 432 OFFCURVE",
"354 404 OFFCURVE"
);
},
{
closed = 1;
nodes = (
"354 302 CURVE",
"354 217 OFFCURVE",
"354 132 OFFCURVE",
"354 46 CURVE",
"354 46 OFFCURVE",
"313 42 OFFCURVE",
"248 38 CURVE SMOOTH",
"115 33 OFFCURVE",
"81 80 OFFCURVE",
"81 175 CURVE SMOOTH",
"81 195 OFFCURVE",
"81 226 OFFCURVE",
"81 249 CURVE SMOOTH",
"81 339 OFFCURVE",
"138 354 OFFCURVE",
"174 354 CURVE SMOOTH",
"238 354 OFFCURVE",
"299 329 OFFCURVE"
);
}
);
width = 446;
}
);
leftKerningGroup = a;
rightKerningGroup = a;
unicode = 0061;
userData = {
com.typemytype.robofont.mark = (
0.6,
1,
0.694,
1
);
};
},
{
glyphname = ae;
layers = (
{
layerId = "F362B091-5F2C-44B8-BCF3-B70645E7FBBC";
name = Regular;
paths = (
{
closed = 1;
nodes = (
"413 133 CURVE SMOOTH",
"413 195 LINE",
"717 211 LINE",
"717 341 LINE SMOOTH",
"717 449 OFFCURVE",
"648 508 OFFCURVE",
"541 508 CURVE SMOOTH",
"469 508 OFFCURVE",
"416 484 OFFCURVE",
"383 437 CURVE",
"346 498 OFFCURVE",
"266 507 OFFCURVE",
"202 507 CURVE",
"201 493 OFFCURVE",
"201 479 OFFCURVE",
"200 464 CURVE",
"290 464 OFFCURVE",
"354 442 OFFCURVE",
"354 349 CURVE",
"307 375 OFFCURVE",
"244 402 OFFCURVE",
"179 402 CURVE SMOOTH",
"98 402 OFFCURVE",
"26 363 OFFCURVE",
"26 251 CURVE SMOOTH",
"26 168 LINE SMOOTH",
"26 40 OFFCURVE",
"102 -4 OFFCURVE",
"206 -10 CURVE SMOOTH",
"229 -11 OFFCURVE",
"398 -3 OFFCURVE",
"410 0 CURVE",
"410 14 LINE",
"448 -11 OFFCURVE",
"499 -12 OFFCURVE",
"529 -12 CURVE SMOOTH",
"579 -11 OFFCURVE",
"641 4 OFFCURVE",
"691 35 CURVE",
"669 78 LINE",
"619 51 OFFCURVE",
"577 36 OFFCURVE",
"524 36 CURVE SMOOTH",
"492 36 OFFCURVE",
"413 38 OFFCURVE"
);
},
{
closed = 1;
nodes = (
"354 302 CURVE",
"354 46 LINE",
"354 46 OFFCURVE",
"313 42 OFFCURVE",
"248 38 CURVE SMOOTH",
"115 33 OFFCURVE",
"81 80 OFFCURVE",
"81 175 CURVE SMOOTH",
"81 249 LINE SMOOTH",
"81 339 OFFCURVE",
"138 354 OFFCURVE",
"174 354 CURVE SMOOTH",
"238 354 OFFCURVE",
"299 329 OFFCURVE"
);
},
{
closed = 1;
nodes = (
"660 348 CURVE SMOOTH",
"660 261 LINE",
"413 250 LINE",
"413 308 LINE SMOOTH",
"413 414 OFFCURVE",
"452 461 OFFCURVE",
"539 461 CURVE SMOOTH",
"582 461 OFFCURVE",
"660 439 OFFCURVE"
);
}
);
width = 747;
}
);
unicode = 00E6;
userData = {
com.typemytype.robofont.mark = (
0.6,
1,
0.694,
1
);
};
},
{
glyphname = alpha;
layers = (
{
anchors = (
{
name = bottom;
position = "{219, 0}";
},
{
name = center;
position = "{219, 300}";
},
{
name = ogonek;
position = "{219, 0}";
},
{
name = tonos;
position = "{219, 545}";
},
{
name = top;
position = "{219, 545}";
}
);
layerId = "F362B091-5F2C-44B8-BCF3-B70645E7FBBC";
name = Regular;
paths = (
{
closed = 1;
nodes = (
"402 485 CURVE",
"358 506 LINE",
"350 488 OFFCURVE",
"345 463 OFFCURVE",
"345 463 CURVE",
"291 490 OFFCURVE",
"231 506 OFFCURVE",
"178 506 CURVE SMOOTH",
"103 506 OFFCURVE",
"31 471 OFFCURVE",
"31 353 CURVE SMOOTH",
"31 168 LINE SMOOTH",
"31 19 OFFCURVE",
"130 -7 OFFCURVE",
"225 -4 CURVE SMOOTH",
"271 -2 OFFCURVE",
"395 4 OFFCURVE",
"395 4 CURVE",
"395 399 LINE SMOOTH",
"395 447 OFFCURVE",
"402 485 OFFCURVE"
);
},
{
closed = 1;
nodes = (
"86 162 CURVE SMOOTH",
"86 350 LINE SMOOTH",
"86 448 OFFCURVE",
"144 457 OFFCURVE",
"176 454 CURVE",
"216 454 OFFCURVE",
"271 441 OFFCURVE",
"339 414 CURVE",
"339 52 LINE",
"339 52 OFFCURVE",
"276 46 OFFCURVE",
"205 46 CURVE SMOOTH",
"126 46 OFFCURVE",
"86 87 OFFCURVE"
);
}
);
width = 438;
}
);
leftKerningGroup = alpha;
rightKerningGroup = alpha;
unicode = 03B1;
userData = {
com.typemytype.robofont.mark = (
0.6,
1,
0.694,
1
);
};
},
{
glyphname = ampersand;
layers = (
{
layerId = "F362B091-5F2C-44B8-BCF3-B70645E7FBBC";
name = Regular;
paths = (
{
closed = 1;
nodes = (
"378 651 CURVE",
"403 702 LINE",
"403 702 OFFCURVE",
"295 702 OFFCURVE",
"238 702 CURVE SMOOTH",
"145 702 OFFCURVE",
"91 636 OFFCURVE",
"96 546 CURVE SMOOTH",
"97 505 OFFCURVE",
"106 451 OFFCURVE",
"163 402 CURVE",
"160 402 OFFCURVE",
"156 403 OFFCURVE",
"154 402 CURVE",
"82 396 OFFCURVE",
"30 358 OFFCURVE",
"30 254 CURVE SMOOTH",
"30 222 OFFCURVE",
"30 191 OFFCURVE",
"30 159 CURVE SMOOTH",
"33 46 OFFCURVE",
"97 -6 OFFCURVE",
"207 -6 CURVE SMOOTH",
"252 -6 OFFCURVE",
"321 14 OFFCURVE",
"362 62 CURVE",
"377 26 OFFCURVE",
"407 4 OFFCURVE",
"453 -9 CURVE",
"466 34 LINE",
"422 50 OFFCURVE",
"398 84 OFFCURVE",
"398 136 CURVE SMOOTH",
"398 349 LINE",
"474 349 LINE",
"497 403 LINE",
"398 403 LINE",
"398 505 LINE",
"345 505 LINE",
"345 402 LINE",
"322 402 OFFCURVE",
"299 402 OFFCURVE",
"295 402 CURVE SMOOTH",
"214 402 OFFCURVE",
"152 464 OFFCURVE",
"152 543 CURVE SMOOTH",
"149 607 OFFCURVE",
"185 651 OFFCURVE",
"241 651 CURVE SMOOTH",
"277 651 OFFCURVE",
"378 651 OFFCURVE"
);
},
{
closed = 1;
nodes = (
"345 349 CURVE",
"345 176 LINE SMOOTH",
"345 106 OFFCURVE",
"299 57 OFFCURVE",
"218 50 CURVE SMOOTH",
"132 42 OFFCURVE",
"86 87 OFFCURVE",
"86 164 CURVE SMOOTH",
"86 169 OFFCURVE",
"86 248 OFFCURVE",
"86 251 CURVE SMOOTH",
"86 342 OFFCURVE",
"147 349 OFFCURVE",
"184 349 CURVE SMOOTH",
"213 349 OFFCURVE",
"291 349 OFFCURVE"
);
}
);
width = 527;
}
);
unicode = 0026;
userData = {
com.typemytype.robofont.mark = (
0.6,
1,
0.694,
1
);
};
},
{
glyphname = aring;
layers = (
{
layerId = "F362B091-5F2C-44B8-BCF3-B70645E7FBBC";
name = Regular;
paths = (
{
closed = 1;
nodes = (
"356 349 CURVE",
"310 375 OFFCURVE",
"246 402 OFFCURVE",
"181 402 CURVE SMOOTH",
"101 402 OFFCURVE",
"28 363 OFFCURVE",
"28 251 CURVE SMOOTH",
"28 223 OFFCURVE",
"28 196 OFFCURVE",
"28 168 CURVE SMOOTH",
"28 21 OFFCURVE",
"126 -14 OFFCURVE",
"255 -10 CURVE SMOOTH",
"304 -9 OFFCURVE",
"412 0 OFFCURVE",
"412 0 CURVE",
"412 96 OFFCURVE",
"412 191 OFFCURVE",
"412 287 CURVE SMOOTH",
"412 375 OFFCURVE",
"404 444 OFFCURVE",
"341 480 CURVE SMOOTH",
"300 504 OFFCURVE",
"250 507 OFFCURVE",
"204 507 CURVE",
"202 464 LINE",
"239 464 OFFCURVE",
"273 461 OFFCURVE",
"299 449 CURVE SMOOTH",
"335 432 OFFCURVE",
"356 404 OFFCURVE"
);
},
{
closed = 1;
nodes = (
"356 302 CURVE",
"356 217 OFFCURVE",
"356 132 OFFCURVE",
"356 46 CURVE",
"356 46 OFFCURVE",
"315 42 OFFCURVE",
"250 38 CURVE SMOOTH",
"117 33 OFFCURVE",
"83 80 OFFCURVE",
"83 175 CURVE SMOOTH",
"83 195 OFFCURVE",
"83 226 OFFCURVE",
"83 249 CURVE SMOOTH",
"83 339 OFFCURVE",
"140 354 OFFCURVE",
"176 354 CURVE SMOOTH",
"240 354 OFFCURVE",
"301 329 OFFCURVE"
);
},
{
closed = 1;
nodes = (
"206 465 CURVE SMOOTH",
"270 465 OFFCURVE",
"321 517 OFFCURVE",
"321 580 CURVE SMOOTH",
"321 642 OFFCURVE",
"270 693 OFFCURVE",
"206 693 CURVE SMOOTH",
"144 693 OFFCURVE",
"93 642 OFFCURVE",
"93 580 CURVE SMOOTH",
"93 517 OFFCURVE",
"144 465 OFFCURVE"
);
},
{
closed = 1;
nodes = (
"277 580 CURVE SMOOTH",
"277 541 OFFCURVE",
"245 509 OFFCURVE",
"206 509 CURVE SMOOTH",
"168 509 OFFCURVE",
"137 541 OFFCURVE",
"137 580 CURVE SMOOTH",
"137 618 OFFCURVE",
"168 649 OFFCURVE",
"206 649 CURVE SMOOTH",
"245 649 OFFCURVE",
"277 618 OFFCURVE"
);
}
);
width = 445;
}
);
leftKerningGroup = a;
rightKerningGroup = a;
unicode = 00E5;
userData = {
com.typemytype.robofont.mark = (
0.6,
1,
0.694,
1
);
};
},
{
glyphname = asciicircum;
layers = (
{
layerId = "F362B091-5F2C-44B8-BCF3-B70645E7FBBC";
name = Regular;
paths = (
{
closed = 1;
nodes = (
"263 770 LINE",
"135 897 LINE",
"3 769 LINE",
"42 730 LINE",
"135 821 LINE",
"224 733 LINE"
);
}
);
width = 266;
}
);
unicode = 005E;
userData = {
com.typemytype.robofont.mark = (
0.6,
0.609,
1,
1
);
};
},
{
glyphname = asciitilde;
layers = (
{
layerId = "F362B091-5F2C-44B8-BCF3-B70645E7FBBC";
name = Regular;
paths = (
{
closed = 1;
nodes = (
"288 305 CURVE",
"263 346 LINE",
"247 329 OFFCURVE",
"227 318 OFFCURVE",
"202 317 CURVE SMOOTH",
"155 316 OFFCURVE",
"111 353 OFFCURVE",
"61 353 CURVE SMOOTH",
"35 353 OFFCURVE",
"8 343 OFFCURVE",
"-21 312 CURVE",
"2 271 LINE",
"26 293 OFFCURVE",
"48 299 OFFCURVE",
"69 298 CURVE SMOOTH",
"114 296 OFFCURVE",
"157 262 OFFCURVE",
"204 262 CURVE SMOOTH",
"229 261 OFFCURVE",
"257 272 OFFCURVE"
);
}
);
width = 266;
}
);
leftKerningGroup = a;
rightKerningGroup = a;
unicode = 007E;
userData = {
com.typemytype.robofont.mark = (
0.6,
1,
0.732,
1
);
};
},
{
glyphname = asterisk;
layers = (
{
layerId = "F362B091-5F2C-44B8-BCF3-B70645E7FBBC";
name = Regular;
paths = (
{
closed = 1;
nodes = (
"41 625 LINE",
"23 577 LINE",
"129 539 LINE",
"64 449 LINE",
"109 418 LINE",
"174 514 LINE",
"243 418 LINE",
"284 449 LINE",
"218 539 LINE",
"327 577 LINE",
"306 625 LINE",
"199 585 LINE",
"199 698 LINE",
"145 698 LINE",
"145 585 LINE"
);
}
);
width = 352;
}
);
unicode = 002A;
userData = {
com.typemytype.robofont.mark = (
0.6,
1,
0.694,
1
);
};
},
{
glyphname = at;
layers = (
{
layerId = "F362B091-5F2C-44B8-BCF3-B70645E7FBBC";
name = Regular;
paths = (
{
closed = 1;
nodes = (
"688 450 CURVE",
"673 491 LINE",
"616 474 OFFCURVE",
"599 433 OFFCURVE",
"599 363 CURVE SMOOTH",
"599 354 OFFCURVE",
"599 172 OFFCURVE",
"599 162 CURVE SMOOTH",
"599 35 OFFCURVE",
"474 -11 OFFCURVE",
"348 -11 CURVE SMOOTH",
"196 -11 OFFCURVE",
"91 44 OFFCURVE",
"91 189 CURVE SMOOTH",
"91 240 OFFCURVE",
"91 290 OFFCURVE",
"91 341 CURVE SMOOTH",
"91 465 OFFCURVE",
"175 529 OFFCURVE",
"287 529 CURVE SMOOTH",
"380 529 OFFCURVE",
"444 496 OFFCURVE",
"462 442 CURVE",
"407 442 OFFCURVE",
"351 442 OFFCURVE",
"296 442 CURVE SMOOTH",
"222 441 OFFCURVE",
"155 405 OFFCURVE",
"155 288 CURVE SMOOTH",
"155 233 LINE SMOOTH",
"155 84 OFFCURVE",
"253 58 OFFCURVE",
"348 61 CURVE SMOOTH",
"395 63 OFFCURVE",
"514 69 OFFCURVE",
"514 69 CURVE",
"514 176 OFFCURVE",
"514 282 OFFCURVE",
"514 388 CURVE",
"564 388 LINE",
"577 442 LINE",
"510 442 LINE",
"494 515 OFFCURVE",
"427 577 OFFCURVE",
"284 577 CURVE SMOOTH",
"122 577 OFFCURVE",
"31 477 OFFCURVE",
"31 338 CURVE SMOOTH",
"31 290 OFFCURVE",
"32 239 OFFCURVE",
"32 183 CURVE SMOOTH",
"32 11 OFFCURVE",
"183 -66 OFFCURVE",
"340 -66 CURVE SMOOTH",
"503 -66 OFFCURVE",
"655 2 OFFCURVE",
"655 170 CURVE SMOOTH",
"654 380 LINE SMOOTH",
"654 417 OFFCURVE",
"665 440 OFFCURVE"
);
},
{
closed = 1;
nodes = (
"293 388 CURVE SMOOTH",
"352 388 OFFCURVE",
"409 388 OFFCURVE",
"467 388 CURVE",
"467 119 LINE",
"467 119 OFFCURVE",
"399 111 OFFCURVE",
"328 111 CURVE SMOOTH",
"248 111 OFFCURVE",
"208 152 OFFCURVE",
"208 227 CURVE SMOOTH",
"208 285 LINE SMOOTH",
"208 383 OFFCURVE",
"262 388 OFFCURVE"
);
}
);
width = 717;
}
);
leftKerningGroup = copyright;
rightKerningGroup = copyright;
unicode = 0040;
userData = {
com.typemytype.robofont.mark = (
0.6,
1,
0.694,
1
);
};
},
{
glyphname = b;
layers = (
{
layerId = "F362B091-5F2C-44B8-BCF3-B70645E7FBBC";
name = Regular;
paths = (
{
closed = 1;
nodes = (
"97 471 CURVE",
"97 698 LINE",
"41 698 LINE",
"41 0 LINE",
"41 0 OFFCURVE",
"149 -9 OFFCURVE",
"198 -10 CURVE SMOOTH",
"327 -14 OFFCURVE",
"425 21 OFFCURVE",
"425 168 CURVE SMOOTH",
"425 231 OFFCURVE",
"425 295 OFFCURVE",
"425 358 CURVE SMOOTH",
"425 470 OFFCURVE",
"339 508 OFFCURVE",
"259 508 CURVE SMOOTH",
"194 508 OFFCURVE",
"142 491 OFFCURVE"
);
},
{
closed = 1;
nodes = (
"97 46 CURVE",
"97 172 OFFCURVE",
"97 297 OFFCURVE",
"97 422 CURVE",
"151 444 OFFCURVE",
"199 461 OFFCURVE",
"263 461 CURVE SMOOTH",
"301 461 OFFCURVE",
"370 446 OFFCURVE",
"370 354 CURVE SMOOTH",
"370 332 OFFCURVE",
"370 195 OFFCURVE",
"370 175 CURVE SMOOTH",
"370 80 OFFCURVE",
"336 33 OFFCURVE",
"203 38 CURVE SMOOTH",
"138 42 OFFCURVE",
"97 46 OFFCURVE"
);
}
);
width = 455;
}
);
unicode = 0062;
userData = {
com.typemytype.robofont.mark = (
0.6,
1,
0.694,
1
);
};
},
{
glyphname = backslash;
layers = (
{
layerId = "F362B091-5F2C-44B8-BCF3-B70645E7FBBC";
name = Regular;
paths = (
{
closed = 1;
nodes = (
"335 -113 LINE",
"396 -113 LINE",
"72 815 LINE",
"16 815 LINE"
);
}
);
width = 413;
}
);
unicode = 005C;
userData = {
com.typemytype.robofont.mark = (
0.6,
1,
0.694,
1
);
};
},
{
glyphname = bar;
layers = (
{
layerId = "F362B091-5F2C-44B8-BCF3-B70645E7FBBC";
name = Regular;
paths = (
{
closed = 1;
nodes = (
"42 -113 LINE",
"97 -113 LINE",
"97 815 LINE",
"42 815 LINE"
);
}
);
width = 140;
}
);
unicode = 007C;
userData = {
com.typemytype.robofont.mark = (
0.6,
1,
0.694,
1
);
};
},
{
glyphname = beta;
layers = (
{
layerId = "F362B091-5F2C-44B8-BCF3-B70645E7FBBC";
name = Regular;
paths = (
{
closed = 1;
nodes = (
"39 520 CURVE SMOOTH",
"39 -198 LINE",
"95 -212 LINE",
"95 -4 LINE",
"129 -7 OFFCURVE",
"171 -10 OFFCURVE",
"196 -10 CURVE SMOOTH",
"325 -14 OFFCURVE",
"411 21 OFFCURVE",
"411 168 CURVE SMOOTH",
"411 197 OFFCURVE",
"411 224 OFFCURVE",
"411 253 CURVE SMOOTH",
"411 356 OFFCURVE",
"361 397 OFFCURVE",
"289 404 CURVE",
"286 404 OFFCURVE",
"275 404 OFFCURVE",
"273 404 CURVE",
"330 453 OFFCURVE",
"348 504 OFFCURVE",
"350 544 CURVE SMOOTH",
"353 635 OFFCURVE",
"300 701 OFFCURVE",
"207 701 CURVE SMOOTH",
"104 701 OFFCURVE",
"39 616 OFFCURVE"
);
},
{
closed = 1;
nodes = (
"96 361 CURVE",
"96 527 LINE SMOOTH",
"96 587 OFFCURVE",
"137 645 OFFCURVE",
"204 645 CURVE SMOOTH",
"261 645 OFFCURVE",
"295 599 OFFCURVE",
"293 543 CURVE",
"287 477 OFFCURVE",
"249 425 OFFCURVE",
"171 392 CURVE SMOOTH",
"151 384 OFFCURVE",
"136 377 OFFCURVE"
);
},
{
closed = 1;
nodes = (
"95 45 CURVE",
"95 304 LINE",
"121 317 OFFCURVE",
"147 328 OFFCURVE",
"174 338 CURVE SMOOTH",
"206 349 OFFCURVE",
"228 356 OFFCURVE",
"262 356 CURVE SMOOTH",
"300 356 OFFCURVE",
"358 341 OFFCURVE",
"358 251 CURVE SMOOTH",
"358 228 OFFCURVE",
"358 194 OFFCURVE",
"358 175 CURVE SMOOTH",
"358 80 OFFCURVE",
"335 33 OFFCURVE",
"202 38 CURVE SMOOTH",
"137 41 OFFCURVE",
"95 45 OFFCURVE"
);
}
);
width = 441;
}
);
leftKerningGroup = beta;
rightKerningGroup = beta;
unicode = 03B2;
userData = {
com.typemytype.robofont.mark = (
0.6,
1,
0.694,
1
);
};
},
{
glyphname = braceleft;
layers = (
{
layerId = "F362B091-5F2C-44B8-BCF3-B70645E7FBBC";
name = Regular;
paths = (
{
closed = 1;
nodes = (
"162 515 CURVE SMOOTH",
"162 628 LINE SMOOTH",
"162 717 OFFCURVE",
"207 757 OFFCURVE",
"237 772 CURVE",
"215 820 LINE",
"211 818 OFFCURVE",
"105 789 OFFCURVE",
"105 628 CURVE SMOOTH",
"105 515 LINE SMOOTH",
"105 459 OFFCURVE",
"99 408 OFFCURVE",
"36 360 CURVE SMOOTH",
"25 352 LINE",
"36 344 LINE SMOOTH",
"99 295 OFFCURVE",
"105 245 OFFCURVE",
"105 189 CURVE SMOOTH",
"105 76 LINE SMOOTH",
"105 -85 OFFCURVE",
"209 -114 OFFCURVE",
"215 -117 CURVE",
"238 -67 LINE",
"207 -52 OFFCURVE",
"162 -13 OFFCURVE",
"162 76 CURVE SMOOTH",
"162 189 LINE SMOOTH",
"162 245 OFFCURVE",
"157 300 OFFCURVE",
"95 352 CURVE",
"157 404 OFFCURVE",
"162 459 OFFCURVE"
);
}
);
width = 257;
}
);
unicode = 007B;
userData = {
com.typemytype.robofont.mark = (
0.6,
1,
0.694,
1
);
};
},
{
glyphname = braceright;
layers = (
{
layerId = "F362B091-5F2C-44B8-BCF3-B70645E7FBBC";
name = Regular;
paths = (
{
closed = 1;
nodes = (
"43 820 CURVE",
"21 772 LINE",
"50 757 OFFCURVE",
"96 717 OFFCURVE",
"96 628 CURVE SMOOTH",
"96 515 LINE SMOOTH",
"96 459 OFFCURVE",
"101 404 OFFCURVE",
"162 352 CURVE",
"101 300 OFFCURVE",
"96 245 OFFCURVE",
"96 189 CURVE SMOOTH",
"96 76 LINE SMOOTH",
"96 -13 OFFCURVE",
"50 -52 OFFCURVE",
"20 -67 CURVE",
"42 -117 LINE",
"48 -114 OFFCURVE",
"152 -85 OFFCURVE",
"152 76 CURVE SMOOTH",
"152 189 LINE SMOOTH",
"152 245 OFFCURVE",
"158 295 OFFCURVE",
"222 344 CURVE SMOOTH",
"233 352 LINE",
"222 360 LINE SMOOTH",
"158 408 OFFCURVE",
"152 459 OFFCURVE",
"152 515 CURVE SMOOTH",
"152 628 LINE SMOOTH",
"152 789 OFFCURVE",
"48 818 OFFCURVE"
);
}
);
width = 262;
}
);
unicode = 007D;
userData = {
com.typemytype.robofont.mark = (
0.6,
1,
0.694,
1
);
};
},
{
glyphname = bracketleft;
layers = (
{
layerId = "F362B091-5F2C-44B8-BCF3-B70645E7FBBC";
name = Regular;
paths = (
{
closed = 1;
nodes = (
"98 760 LINE",
"203 770 LINE",
"203 815 LINE",
"42 815 LINE",
"42 -113 LINE",
"203 -113 LINE",
"203 -69 LINE",
"98 -59 LINE"
);
}
);
width = 222;
}
);
unicode = 005B;
userData = {
com.typemytype.robofont.mark = (
0.6,
1,
0.694,
1
);
};
},
{
glyphname = bracketright;
layers = (
{
layerId = "F362B091-5F2C-44B8-BCF3-B70645E7FBBC";
name = Regular;
paths = (
{
closed = 1;
nodes = (
"20 -113 LINE",
"181 -113 LINE",
"181 815 LINE",
"20 815 LINE",
"20 770 LINE",
"125 760 LINE",
"125 -59 LINE",
"20 -69 LINE"
);
}
);
width = 224;
}
);
unicode = 005D;
userData = {
com.typemytype.robofont.mark = (
0.6,
1,
0.694,
1
);
};
},
{
glyphname = bullet;
layers = (
{
layerId = "F362B091-5F2C-44B8-BCF3-B70645E7FBBC";
name = Regular;
paths = (
{
closed = 1;
nodes = (
"268 435 CURVE SMOOTH",
"241 462 OFFCURVE",
"208 476 OFFCURVE",
"169 476 CURVE SMOOTH",
"131 476 OFFCURVE",
"98 462 OFFCURVE",
"70 435 CURVE SMOOTH",
"42 407 OFFCURVE",
"29 374 OFFCURVE",
"29 335 CURVE SMOOTH",
"29 297 OFFCURVE",
"42 264 OFFCURVE",
"70 237 CURVE SMOOTH",
"98 209 OFFCURVE",
"131 195 OFFCURVE",
"169 195 CURVE SMOOTH",
"208 195 OFFCURVE",
"241 209 OFFCURVE",
"268 237 CURVE SMOOTH",
"296 264 OFFCURVE",
"310 297 OFFCURVE",
"310 335 CURVE SMOOTH",
"310 374 OFFCURVE",
"296 407 OFFCURVE"
);
}
);
width = 342;
}
);
unicode = 2022;
userData = {
com.typemytype.robofont.mark = (
0.6,
1,
0.694,
1
);
};
},
{
glyphname = c;
layers = (
{
anchors = (
{
name = bottom;
position = "{190, 0}";
},
{
name = center;
position = "{190, 300}";
},
{
name = ogonek;
position = "{189, 0}";
},
{
name = tonos;
position = "{190, 545}";
},
{
name = top;
position = "{190, 545}";
}
);
layerId = "F362B091-5F2C-44B8-BCF3-B70645E7FBBC";
name = Regular;
paths = (
{
closed = 1;
nodes = (
"333 430 CURVE",
"348 476 LINE",
"291 503 OFFCURVE",
"224 516 OFFCURVE",
"166 504 CURVE SMOOTH",
"121 494 OFFCURVE",
"83 470 OFFCURVE",
"56 426 CURVE SMOOTH",
"38 394 OFFCURVE",
"31 362 OFFCURVE",
"29 318 CURVE",
"29 173 LINE SMOOTH",
"29 75 OFFCURVE",
"73 23 OFFCURVE",
"141 1 CURVE SMOOTH",
"201 -18 OFFCURVE",
"283 -13 OFFCURVE",
"350 5 CURVE",
"339 55 LINE",
"339 55 OFFCURVE",
"217 26 OFFCURVE",
"153 52 CURVE SMOOTH",
"100 71 OFFCURVE",
"84 119 OFFCURVE",
"84 185 CURVE SMOOTH",
"84 305 LINE SMOOTH",
"84 341 OFFCURVE",
"91 371 OFFCURVE",
"103 394 CURVE SMOOTH",
"119 426 OFFCURVE",
"145 446 OFFCURVE",
"175 453 CURVE SMOOTH",
"218 464 OFFCURVE",
"285 452 OFFCURVE"
);
}
);
width = 380;
}
);
leftKerningGroup = c;
rightKerningGroup = c;
unicode = 0063;
userData = {
com.typemytype.robofont.mark = (
0.6,
1,
0.694,
1
);
};
},
{
glyphname = cent;
layers = (
{
components = (
{
name = c;
transform = "{1, 0, 0, 1, 0, 0}";
}
);
layerId = "F362B091-5F2C-44B8-BCF3-B70645E7FBBC";
name = Regular;
paths = (
{
closed = 1;
nodes = (
"188 -113 LINE",
"244 -113 LINE",
"244 621 LINE",
"188 621 LINE"
);
}
);
width = 382;
}
);
leftKerningGroup = c;
rightKerningGroup = c;
unicode = 00A2;
userData = {
com.typemytype.robofont.mark = (
0.6,
1,
0.694,
1
);
};
},
{
glyphname = chi;
layers = (
{
layerId = "F362B091-5F2C-44B8-BCF3-B70645E7FBBC";
name = Regular;
paths = (
{
closed = 1;
nodes = (
"376 -96 CURVE SMOOTH",
"255 152 LINE",
"432 498 LINE",
"369 498 LINE",
"225 216 LINE",
"87 498 LINE",
"25 498 LINE",
"193 154 LINE",
"21 -180 LINE",
"73 -204 LINE",
"224 91 LINE",
"325 -117 LINE SMOOTH",
"358 -180 OFFCURVE",
"402 -211 OFFCURVE",
"456 -211 CURVE",
"484 -173 LINE",
"431 -164 OFFCURVE",
"398 -146 OFFCURVE"
);
}
);
width = 487;
}
);
unicode = 03C7;
userData = {
com.typemytype.robofont.mark = (
0.6,
1,
0.694,
1
);
};
},
{
glyphname = colon;
layers = (
{
layerId = "F362B091-5F2C-44B8-BCF3-B70645E7FBBC";
name = Regular;
paths = (
{
closed = 1;
nodes = (
"103 143 CURVE SMOOTH",
"103 162 OFFCURVE",
"87 176 OFFCURVE",
"70 176 CURVE SMOOTH",
"51 176 OFFCURVE",
"36 162 OFFCURVE",
"36 143 CURVE SMOOTH",
"36 124 OFFCURVE",
"51 110 OFFCURVE",
"70 110 CURVE SMOOTH",
"87 110 OFFCURVE",
"103 124 OFFCURVE"
);
},
{
closed = 1;
nodes = (
"103 384 CURVE SMOOTH",
"103 403 OFFCURVE",
"87 417 OFFCURVE",
"70 417 CURVE SMOOTH",
"51 417 OFFCURVE",
"36 403 OFFCURVE",
"36 384 CURVE SMOOTH",
"36 365 OFFCURVE",
"51 351 OFFCURVE",
"70 351 CURVE SMOOTH",
"87 351 OFFCURVE",
"103 365 OFFCURVE"
);
}
);
width = 143;
}
);
leftKerningGroup = colon;
rightKerningGroup = colon;
unicode = 003A;
userData = {
com.typemytype.robofont.mark = (
0.6,
1,
0.694,
1
);
};
},
{
glyphname = comma;
layers = (
{
layerId = "F362B091-5F2C-44B8-BCF3-B70645E7FBBC";
name = Regular;
paths = (
{
closed = 1;
nodes = (
"98 -85 CURVE",
"115 -97 LINE",
"135 -79 OFFCURVE",
"167 -40 OFFCURVE",
"168 23 CURVE",
"167 43 OFFCURVE",
"153 56 OFFCURVE",
"134 56 CURVE SMOOTH",
"115 56 OFFCURVE",
"101 42 OFFCURVE",
"101 23 CURVE SMOOTH",
"101 7 OFFCURVE",
"113 -7 OFFCURVE",
"129 -10 CURVE",
"126 -31 OFFCURVE",
"119 -58 OFFCURVE"
);
}
);
width = 266;
}
);
leftKerningGroup = comma;
rightKerningGroup = comma;
unicode = 002C;
userData = {
com.typemytype.robofont.mark = (
0.6,
1,
0.694,
1
);
};
},
{
glyphname = copyright;
layers = (
{
layerId = "F362B091-5F2C-44B8-BCF3-B70645E7FBBC";
name = Regular;
paths = (
{
closed = 1;
nodes = (
"662 187 CURVE SMOOTH",
"662 326 LINE SMOOTH",
"662 496 OFFCURVE",
"530 581 OFFCURVE",
"346 582 CURVE SMOOTH",
"163 581 OFFCURVE",
"31 496 OFFCURVE",
"31 326 CURVE SMOOTH",
"31 187 LINE SMOOTH",
"31 16 OFFCURVE",
"163 -68 OFFCURVE",
"346 -69 CURVE SMOOTH",
"530 -68 OFFCURVE",
"662 16 OFFCURVE"
);
},
{
closed = 1;
nodes = (
"603 301 CURVE SMOOTH",
"603 211 LINE SMOOTH",
"603 48 OFFCURVE",
"521 -13 OFFCURVE",
"346 -15 CURVE SMOOTH",
"171 -13 OFFCURVE",
"90 48 OFFCURVE",
"90 211 CURVE SMOOTH",
"90 301 LINE SMOOTH",
"90 464 OFFCURVE",
"171 526 OFFCURVE",
"346 528 CURVE SMOOTH",
"521 526 OFFCURVE",
"603 464 OFFCURVE"
);
},
{
closed = 1;
nodes = (
"485 383 CURVE",
"501 420 LINE",
"459 442 OFFCURVE",
"410 453 OFFCURVE",
"359 453 CURVE SMOOTH",
"319 453 OFFCURVE",
"282 446 OFFCURVE",
"253 428 CURVE SMOOTH",
"195 393 OFFCURVE",
"166 337 OFFCURVE",
"166 249 CURVE SMOOTH",
"166 165 OFFCURVE",
"199 110 OFFCURVE",
"247 82 CURVE",
"296 58 OFFCURVE",
"343 58 OFFCURVE",
"364 58 CURVE SMOOTH",
"416 58 OFFCURVE",
"470 68 OFFCURVE",
"526 90 CURVE",
"514 137 LINE",
"457 118 OFFCURVE",
"409 108 OFFCURVE",
"369 108 CURVE SMOOTH",
"323 108 OFFCURVE",
"291 117 OFFCURVE",
"268 133 CURVE SMOOTH",
"234 158 OFFCURVE",
"223 202 OFFCURVE",
"223 254 CURVE SMOOTH",
"223 310 OFFCURVE",
"240 352 OFFCURVE",
"274 376 CURVE SMOOTH",
"299 394 OFFCURVE",
"333 404 OFFCURVE",
"377 404 CURVE SMOOTH",
"411 404 OFFCURVE",
"448 396 OFFCURVE"
);
}
);
width = 694;
}
);
leftKerningGroup = copyright;
rightKerningGroup = copyright;
unicode = 00A9;
userData = {
com.typemytype.robofont.mark = (
0.6,
1,
0.694,
1
);
};
},
{
glyphname = currency;
layers = (
{
layerId = "F362B091-5F2C-44B8-BCF3-B70645E7FBBC";
name = Regular;
paths = (
{
closed = 1;
nodes = (
"350 365 CURVE",
"432 448 LINE",
"397 483 LINE",
"314 400 LINE",
"291 418 OFFCURVE",
"263 428 OFFCURVE",
"232 428 CURVE SMOOTH",
"200 428 OFFCURVE",
"171 418 OFFCURVE",
"147 400 CURVE",
"66 483 LINE",
"31 448 LINE",
"112 365 LINE",
"95 342 OFFCURVE",
"87 313 OFFCURVE",
"87 283 CURVE SMOOTH",
"87 251 OFFCURVE",
"97 222 OFFCURVE",
"113 199 CURVE",
"31 117 LINE",
"66 81 LINE",
"148 164 LINE",
"171 147 OFFCURVE",
"200 137 OFFCURVE",
"232 137 CURVE SMOOTH",
"263 137 OFFCURVE",
"290 147 OFFCURVE",
"314 164 CURVE",
"397 81 LINE",
"432 117 LINE",
"350 199 LINE",
"366 222 OFFCURVE",
"376 251 OFFCURVE",
"376 283 CURVE SMOOTH",
"376 313 OFFCURVE",
"366 342 OFFCURVE"
);
},
{
closed = 1;
nodes = (
"232 188 CURVE SMOOTH",
"179 188 OFFCURVE",
"137 230 OFFCURVE",
"137 283 CURVE SMOOTH",
"137 334 OFFCURVE",
"179 376 OFFCURVE",
"232 376 CURVE SMOOTH",
"284 376 OFFCURVE",
"325 334 OFFCURVE",
"325 283 CURVE SMOOTH",
"325 230 OFFCURVE",
"284 188 OFFCURVE"
);
}
);
width = 465;
}
);
unicode = 00A4;
userData = {
com.typemytype.robofont.mark = (
0.6,
1,
0.694,
1
);
};
},
{
glyphname = d;
layers = (
{
layerId = "F362B091-5F2C-44B8-BCF3-B70645E7FBBC";
name = Regular;
paths = (
{
closed = 1;
nodes = (
"413 0 CURVE",
"413 698 LINE",
"358 698 LINE",
"358 471 LINE",
"312 491 OFFCURVE",
"260 508 OFFCURVE",
"195 508 CURVE SMOOTH",
"115 508 OFFCURVE",
"29 470 OFFCURVE",
"29 358 CURVE SMOOTH",
"29 295 OFFCURVE",
"29 231 OFFCURVE",
"29 168 CURVE SMOOTH",
"29 21 OFFCURVE",
"128 -14 OFFCURVE",
"257 -10 CURVE SMOOTH",
"305 -9 OFFCURVE",
"413 0 OFFCURVE"
);
},
{
closed = 1;
nodes = (
"358 422 CURVE",
"358 297 OFFCURVE",
"358 172 OFFCURVE",
"358 46 CURVE",
"358 46 OFFCURVE",
"316 42 OFFCURVE",
"252 38 CURVE SMOOTH",
"119 33 OFFCURVE",
"84 80 OFFCURVE",
"84 175 CURVE SMOOTH",
"84 195 OFFCURVE",
"84 332 OFFCURVE",
"84 354 CURVE SMOOTH",
"84 446 OFFCURVE",
"154 461 OFFCURVE",
"191 461 CURVE SMOOTH",
"255 461 OFFCURVE",
"304 444 OFFCURVE"
);
}
);
width = 456;
}
);
leftKerningGroup = d;
rightKerningGroup = d;
unicode = 0064;
userData = {
com.typemytype.robofont.mark = (
0.6,
1,
0.694,
1
);
};
},
{
glyphname = dcaron;
layers = (
{
layerId = "F362B091-5F2C-44B8-BCF3-B70645E7FBBC";
name = Regular;
paths = (
{
closed = 1;
nodes = (
"413 0 CURVE",
"413 698 LINE",
"357 698 LINE",
"357 471 LINE",
"312 491 OFFCURVE",
"260 508 OFFCURVE",
"195 508 CURVE SMOOTH",
"115 508 OFFCURVE",
"29 470 OFFCURVE",
"29 358 CURVE SMOOTH",
"29 295 OFFCURVE",
"29 231 OFFCURVE",
"29 168 CURVE SMOOTH",
"29 21 OFFCURVE",
"127 -14 OFFCURVE",
"256 -10 CURVE SMOOTH",
"305 -9 OFFCURVE",
"413 0 OFFCURVE"
);
},
{
closed = 1;
nodes = (
"357 422 CURVE",
"357 297 OFFCURVE",
"357 172 OFFCURVE",
"357 46 CURVE",
"357 46 OFFCURVE",
"316 42 OFFCURVE",
"252 38 CURVE SMOOTH",
"118 33 OFFCURVE",
"84 80 OFFCURVE",
"84 175 CURVE SMOOTH",
"84 195 OFFCURVE",
"84 332 OFFCURVE",
"84 354 CURVE SMOOTH",
"84 446 OFFCURVE",
"154 461 OFFCURVE",
"191 461 CURVE SMOOTH",
"255 461 OFFCURVE",
"303 444 OFFCURVE"
);
},
{
closed = 1;
nodes = (
"452 543 CURVE",
"469 531 LINE",
"489 549 OFFCURVE",
"522 588 OFFCURVE",
"522 651 CURVE SMOOTH",
"522 671 OFFCURVE",
"507 684 OFFCURVE",
"488 684 CURVE SMOOTH",
"470 684 OFFCURVE",
"455 670 OFFCURVE",
"455 651 CURVE SMOOTH",
"455 635 OFFCURVE",
"467 621 OFFCURVE",
"482 618 CURVE",
"480 597 OFFCURVE",
"472 570 OFFCURVE"
);
}
);
width = 542;
}
);
leftKerningGroup = d;
rightKerningGroup = d;
unicode = 010F;
userData = {
com.typemytype.robofont.mark = (
0.6,
1,
0.694,
1
);
};
},
{
glyphname = degree;
layers = (
{
layerId = "F362B091-5F2C-44B8-BCF3-B70645E7FBBC";
name = Regular;
paths = (
{
closed = 1;
nodes = (
"279 563 CURVE SMOOTH",
"279 643 OFFCURVE",
"214 708 OFFCURVE",
"134 708 CURVE SMOOTH",
"53 708 OFFCURVE",
"-12 643 OFFCURVE",
"-12 563 CURVE SMOOTH",
"-12 483 OFFCURVE",
"53 418 OFFCURVE",
"134 418 CURVE SMOOTH",
"214 418 OFFCURVE",
"279 483 OFFCURVE"
);
},
{
closed = 1;
nodes = (
"134 658 CURVE SMOOTH",
"185 658 OFFCURVE",
"228 615 OFFCURVE",
"228 563 CURVE SMOOTH",
"228 512 OFFCURVE",
"185 469 OFFCURVE",
"134 469 CURVE SMOOTH",
"82 469 OFFCURVE",
"39 512 OFFCURVE",
"39 563 CURVE SMOOTH",
"39 615 OFFCURVE",
"82 658 OFFCURVE"
);
}
);
width = 266;
}
);
unicode = 00B0;
userData = {
com.typemytype.robofont.mark = (
0.6,
1,
0.694,
1
);
};
},
{
glyphname = delta;
layers = (
{
layerId = "F362B091-5F2C-44B8-BCF3-B70645E7FBBC";
name = Regular;
paths = (
{
closed = 1;
nodes = (
"241 651 CURVE SMOOTH",
"334 651 LINE",
"356 698 LINE",
"244 698 LINE",
"172 702 OFFCURVE",
"129 653 OFFCURVE",
"126 597 CURVE SMOOTH",
"125 572 OFFCURVE",
"134 541 OFFCURVE",
"165 510 CURVE",
"169 507 OFFCURVE",
"171 505 OFFCURVE",
"174 502 CURVE",
"161 498 OFFCURVE",
"114 486 OFFCURVE",
"82 457 CURVE SMOOTH",
"48 424 OFFCURVE",
"28 373 OFFCURVE",
"28 308 CURVE SMOOTH",
"28 183 LINE SMOOTH",
"28 62 OFFCURVE",
"88 -11 OFFCURVE",
"215 -11 CURVE SMOOTH",
"338 -11 OFFCURVE",
"400 54 OFFCURVE",
"400 183 CURVE SMOOTH",
"400 279 LINE SMOOTH",
"400 321 OFFCURVE",
"390 367 OFFCURVE",
"368 402 CURVE SMOOTH",
"340 444 OFFCURVE",
"315 463 OFFCURVE",
"284 485 CURVE SMOOTH",
"268 496 OFFCURVE",
"235 520 OFFCURVE",
"230 524 CURVE SMOOTH",
"203 546 OFFCURVE",
"180 558 OFFCURVE",
"180 598 CURVE SMOOTH",
"180 630 OFFCURVE",
"205 651 OFFCURVE"
);
},
{
closed = 1;
nodes = (
"344 294 CURVE SMOOTH",
"344 173 LINE SMOOTH",
"344 84 OFFCURVE",
"301 38 OFFCURVE",
"216 38 CURVE SMOOTH",
"136 38 OFFCURVE",
"84 85 OFFCURVE",
"84 173 CURVE SMOOTH",
"84 308 LINE SMOOTH",
"84 356 OFFCURVE",
"96 394 OFFCURVE",
"120 418 CURVE SMOOTH",
"163 463 OFFCURVE",
"228 463 OFFCURVE",
"228 463 CURVE",
"237 457 OFFCURVE",
"246 452 OFFCURVE",
"254 447 CURVE SMOOTH",
"305 413 OFFCURVE",
"344 360 OFFCURVE"
);
}
);
width = 431;
}
);
leftKerningGroup = o;
rightKerningGroup = o;
unicode = 03B4;
userData = {
com.typemytype.robofont.mark = (
0.6,
1,
0.694,
1
);
};
},
{
glyphname = divide;
layers = (
{
layerId = "F362B091-5F2C-44B8-BCF3-B70645E7FBBC";
name = Regular;
paths = (
{
closed = 1;
nodes = (
"28 355 LINE",
"347 355 LINE",
"347 409 LINE",
"28 409 LINE"
);
},
{
closed = 1;
nodes = (
"188 544 CURVE SMOOTH",
"169 544 OFFCURVE",
"155 529 OFFCURVE",
"155 510 CURVE SMOOTH",
"155 492 OFFCURVE",
"169 477 OFFCURVE",
"188 477 CURVE SMOOTH",
"207 477 OFFCURVE",
"222 492 OFFCURVE",
"222 510 CURVE SMOOTH",
"222 529 OFFCURVE",
"207 544 OFFCURVE"
);
},
{
closed = 1;
nodes = (
"188 287 CURVE SMOOTH",
"169 287 OFFCURVE",
"155 273 OFFCURVE",
"155 254 CURVE SMOOTH",
"155 235 OFFCURVE",
"169 221 OFFCURVE",
"188 221 CURVE SMOOTH",
"207 221 OFFCURVE",
"222 235 OFFCURVE",
"222 254 CURVE SMOOTH",
"222 273 OFFCURVE",
"207 287 OFFCURVE"
);
}
);
width = 378;
}
);
unicode = 00F7;
userData = {
com.typemytype.robofont.mark = (
0.6,
1,
0.694,
1
);
};
},
{
glyphname = dollar;
layers = (
{
layerId = "F362B091-5F2C-44B8-BCF3-B70645E7FBBC";
name = Regular;
paths = (
{
closed = 1;
nodes = (
"420 617 CURVE",
"438 669 LINE",
"392 694 OFFCURVE",
"332 707 OFFCURVE",
"275 707 CURVE SMOOTH",
"220 706 OFFCURVE",
"166 693 OFFCURVE",
"127 664 CURVE SMOOTH",
"89 638 OFFCURVE",
"65 599 OFFCURVE",
"63 547 CURVE SMOOTH",
"57 447 OFFCURVE",
"131 402 OFFCURVE",
"215 365 CURVE SMOOTH",
"248 351 OFFCURVE",
"282 338 OFFCURVE",
"313 323 CURVE SMOOTH",
"385 291 OFFCURVE",
"443 253 OFFCURVE",
"440 177 CURVE SMOOTH",
"438 140 OFFCURVE",
"425 111 OFFCURVE",
"405 90 CURVE SMOOTH",
"370 55 OFFCURVE",
"315 41 OFFCURVE",
"260 41 CURVE SMOOTH",
"204 41 OFFCURVE",
"159 62 OFFCURVE",
"132 82 CURVE SMOOTH",
"84 119 OFFCURVE",
"73 159 OFFCURVE",
"73 159 CURVE",
"27 131 LINE",
"27 131 OFFCURVE",
"46 77 OFFCURVE",
"103 35 CURVE SMOOTH",
"140 9 OFFCURVE",
"191 -13 OFFCURVE",
"264 -13 CURVE SMOOTH",
"328 -13 OFFCURVE",
"393 3 OFFCURVE",
"439 42 CURVE SMOOTH",
"474 73 OFFCURVE",
"497 117 OFFCURVE",
"499 178 CURVE SMOOTH",
"504 280 OFFCURVE",
"427 333 OFFCURVE",
"340 372 CURVE SMOOTH",
"305 388 OFFCURVE",
"268 403 OFFCURVE",
"235 417 CURVE SMOOTH",
"168 446 OFFCURVE",
"117 479 OFFCURVE",
"120 540 CURVE SMOOTH",
"122 579 OFFCURVE",
"140 606 OFFCURVE",
"166 625 CURVE",
"196 643 OFFCURVE",
"234 653 OFFCURVE",
"276 653 CURVE SMOOTH",
"326 653 OFFCURVE",
"378 640 OFFCURVE"
);
},
{
closed = 1;
nodes = (
"248 -113 LINE",
"304 -113 LINE",
"304 815 LINE",
"248 815 LINE"
);
}
);
width = 531;
}
);
leftKerningGroup = S;
rightKerningGroup = S;
unicode = 0024;
userData = {
com.typemytype.robofont.mark = (
0.6,
1,
0.694,
1
);
};
},
{
glyphname = dotlessi;
layers = (
{
anchors = (
{
name = bottom;
position = "{67, 0}";
},
{
name = center;
position = "{67, 300}";
},
{
name = ogonek;
position = "{66, 0}";
},
{
name = tonos;
position = "{67, 545}";
},
{
name = top;
position = "{67, 545}";
}
);
layerId = "F362B091-5F2C-44B8-BCF3-B70645E7FBBC";
name = Regular;
paths = (
{
closed = 1;
nodes = (
"38 0 LINE",
"94 0 LINE",
"94 499 LINE",
"38 499 LINE"
);
}
);
width = 134;
}
);
leftKerningGroup = i;
rightKerningGroup = i;
unicode = 0131;
userData = {
com.typemytype.robofont.mark = (
0.6,
1,
0.694,
1
);
};
},
{
glyphname = dotlessj;
layers = (
{
layerId = "F362B091-5F2C-44B8-BCF3-B70645E7FBBC";
name = Regular;
paths = (
{
closed = 1;
nodes = (
"147 -63 CURVE SMOOTH",
"147 499 LINE",
"28 499 LINE",
"28 447 LINE",
"91 447 LINE",
"91 -62 LINE SMOOTH",
"91 -90 OFFCURVE",
"85 -113 OFFCURVE",
"72 -131 CURVE SMOOTH",
"61 -146 OFFCURVE",
"46 -158 OFFCURVE",
"26 -166 CURVE",
"42 -209 LINE",
"75 -198 OFFCURVE",
"98 -185 OFFCURVE",
"116 -166 CURVE SMOOTH",
"138 -141 OFFCURVE",
"147 -108 OFFCURVE"
);
}
);
width = 187;
}
);
leftKerningGroup = j;
rightKerningGroup = j;
unicode = 0237;
userData = {
com.typemytype.robofont.mark = (
0.6,
1,
0.694,
1
);
};
},
{
glyphname = dslash;
layers = (
{
layerId = "F362B091-5F2C-44B8-BCF3-B70645E7FBBC";
name = Regular;
paths = (
{
closed = 1;
nodes = (
"413 0 CURVE",
"413 562 LINE",
"460 562 LINE",
"460 615 LINE",
"413 615 LINE",
"413 698 LINE",
"357 698 LINE",
"357 615 LINE",
"224 615 LINE",
"224 562 LINE",
"357 562 LINE",
"357 471 LINE",
"312 491 OFFCURVE",
"260 508 OFFCURVE",
"195 508 CURVE SMOOTH",
"115 508 OFFCURVE",
"29 470 OFFCURVE",
"29 358 CURVE SMOOTH",
"29 168 LINE SMOOTH",
"29 21 OFFCURVE",
"127 -14 OFFCURVE",
"256 -10 CURVE SMOOTH",
"305 -9 OFFCURVE",
"413 0 OFFCURVE"
);
},
{
closed = 1;
nodes = (
"357 422 CURVE",
"357 46 LINE",
"357 46 OFFCURVE",
"316 42 OFFCURVE",
"252 38 CURVE SMOOTH",
"118 33 OFFCURVE",
"84 80 OFFCURVE",
"84 175 CURVE SMOOTH",
"84 354 LINE SMOOTH",
"84 446 OFFCURVE",
"154 461 OFFCURVE",
"191 461 CURVE SMOOTH",
"255 461 OFFCURVE",
"303 444 OFFCURVE"
);
}
);
width = 488;
}
);
leftKerningGroup = d;
rightKerningGroup = d;
unicode = 0111;
userData = {
com.typemytype.robofont.mark = (
0.6,
1,
0.694,
1
);
};
},
{
glyphname = e;
layers = (
{
anchors = (
{
name = bottom;
position = "{210, 0}";
},
{
name = center;
position = "{210, 300}";
},
{
name = ogonek;
position = "{210, 0}";
},
{
name = tonos;
position = "{210, 545}";
},
{
name = top;
position = "{210, 545}";
}
);
layerId = "F362B091-5F2C-44B8-BCF3-B70645E7FBBC";
name = Regular;
paths = (
{
closed = 1;
nodes = (
"87 133 CURVE SMOOTH",
"87 195 LINE",
"391 211 LINE",
"391 341 LINE SMOOTH",
"391 392 OFFCURVE",
"376 432 OFFCURVE",
"348 461 CURVE SMOOTH",
"317 492 OFFCURVE",
"272 508 OFFCURVE",
"215 508 CURVE SMOOTH",
"165 508 OFFCURVE",
"124 496 OFFCURVE",
"93 473 CURVE SMOOTH",
"54 444 OFFCURVE",
"31 398 OFFCURVE",
"31 338 CURVE SMOOTH",
"31 133 LINE SMOOTH",
"31 80 OFFCURVE",
"48 46 OFFCURVE",
"72 24 CURVE SMOOTH",
"113 -13 OFFCURVE",
"173 -12 OFFCURVE",
"203 -12 CURVE SMOOTH",
"253 -11 OFFCURVE",
"315 4 OFFCURVE",
"366 35 CURVE",
"344 78 LINE",
"293 51 OFFCURVE",
"247 36 OFFCURVE",
"198 36 CURVE SMOOTH",
"179 36 OFFCURVE",
"138 36 OFFCURVE",
"113 63 CURVE",
"97 77 OFFCURVE",
"87 99 OFFCURVE"
);
},
{
closed = 1;
nodes = (
"335 348 CURVE SMOOTH",
"335 319 OFFCURVE",
"335 289 OFFCURVE",
"335 261 CURVE",
"87 250 LINE",
"87 278 OFFCURVE",
"87 308 OFFCURVE",
"87 337 CURVE SMOOTH",
"87 378 OFFCURVE",
"99 408 OFFCURVE",
"121 429 CURVE SMOOTH",
"145 450 OFFCURVE",
"176 461 OFFCURVE",
"214 461 CURVE SMOOTH",
"247 461 OFFCURVE",
"281 454 OFFCURVE",
"312 418 CURVE SMOOTH",
"327 399 OFFCURVE",
"335 377 OFFCURVE"
);
}
);
width = 421;
}
);
leftKerningGroup = e;
rightKerningGroup = e;
unicode = 0065;
userData = {
com.typemytype.robofont.mark = (
0.6,
1,
0.694,
1
);
};
},
{
glyphname = eight;
layers = (
{
layerId = "F362B091-5F2C-44B8-BCF3-B70645E7FBBC";
name = Regular;
paths = (
{
closed = 1;
nodes = (
"240 707 CURVE SMOOTH",
"191 707 OFFCURVE",
"150 690 OFFCURVE",
"116 656 CURVE SMOOTH",
"83 621 OFFCURVE",
"66 581 OFFCURVE",
"66 531 CURVE SMOOTH",
"66 490 OFFCURVE",
"78 453 OFFCURVE",
"101 425 CURVE",
"112 410 OFFCURVE",
"125 398 OFFCURVE",
"140 388 CURVE",
"115 374 OFFCURVE",
"92 355 OFFCURVE",
"74 333 CURVE SMOOTH",
"45 297 OFFCURVE",
"27 251 OFFCURVE",
"27 200 CURVE SMOOTH",
"27 142 OFFCURVE",
"48 90 OFFCURVE",
"89 50 CURVE SMOOTH",
"129 9 OFFCURVE",
"180 -12 OFFCURVE",
"239 -12 CURVE SMOOTH",
"298 -12 OFFCURVE",
"349 9 OFFCURVE",
"390 50 CURVE SMOOTH",
"431 90 OFFCURVE",
"452 142 OFFCURVE",
"452 200 CURVE SMOOTH",
"452 248 OFFCURVE",
"436 290 OFFCURVE",
"410 326 CURVE SMOOTH",
"389 353 OFFCURVE",
"362 374 OFFCURVE",
"339 387 CURVE",
"355 397 OFFCURVE",
"369 410 OFFCURVE",
"380 424 CURVE SMOOTH",
"403 452 OFFCURVE",
"415 488 OFFCURVE",
"415 531 CURVE SMOOTH",
"415 581 OFFCURVE",
"399 621 OFFCURVE",
"365 656 CURVE SMOOTH",
"331 690 OFFCURVE",
"289 707 OFFCURVE"
);
},
{
closed = 1;
nodes = (
"239 411 CURVE SMOOTH",
"203 411 OFFCURVE",
"170 428 OFFCURVE",
"148 453 CURVE SMOOTH",
"129 474 OFFCURVE",
"118 503 OFFCURVE",
"118 532 CURVE SMOOTH",
"118 599 OFFCURVE",
"172 654 OFFCURVE",
"239 654 CURVE SMOOTH",
"306 654 OFFCURVE",
"360 599 OFFCURVE",
"360 532 CURVE SMOOTH",
"360 503 OFFCURVE",
"349 474 OFFCURVE",
"331 453 CURVE SMOOTH",
"309 428 OFFCURVE",
"276 411 OFFCURVE"
);
},
{
closed = 1;
nodes = (
"239 44 CURVE SMOOTH",
"152 44 OFFCURVE",
"83 114 OFFCURVE",
"83 200 CURVE SMOOTH",
"83 238 OFFCURVE",
"96 273 OFFCURVE",
"118 299 CURVE SMOOTH",
"147 334 OFFCURVE",
"191 356 OFFCURVE",
"239 356 CURVE SMOOTH",
"291 356 OFFCURVE",
"337 332 OFFCURVE",
"366 294 CURVE SMOOTH",
"385 267 OFFCURVE",
"396 235 OFFCURVE",
"396 200 CURVE SMOOTH",
"396 114 OFFCURVE",
"326 44 OFFCURVE"
);
}
);
width = 481;
}
);
unicode = 0038;
userData = {
com.typemytype.robofont.mark = (
0.6,
1,
0.694,
1
);
};
},
{
glyphname = ellipsis;
layers = (
{
layerId = "F362B091-5F2C-44B8-BCF3-B70645E7FBBC";
name = Regular;
paths = (
{
closed = 1;
nodes = (
"68 63 CURVE SMOOTH",
"49 63 OFFCURVE",
"35 47 OFFCURVE",
"35 29 CURVE SMOOTH",
"35 11 OFFCURVE",
"49 -4 OFFCURVE",
"68 -4 CURVE SMOOTH",
"86 -4 OFFCURVE",
"101 11 OFFCURVE",
"101 29 CURVE SMOOTH",
"101 47 OFFCURVE",
"86 63 OFFCURVE"
);
},
{
closed = 1;
nodes = (
"243 63 CURVE SMOOTH",
"224 63 OFFCURVE",
"209 47 OFFCURVE",
"209 29 CURVE SMOOTH",
"209 11 OFFCURVE",
"224 -4 OFFCURVE",
"243 -4 CURVE SMOOTH",
"260 -4 OFFCURVE",
"276 11 OFFCURVE",
"276 29 CURVE SMOOTH",
"276 47 OFFCURVE",
"260 63 OFFCURVE"
);
},
{
closed = 1;
nodes = (
"421 63 CURVE SMOOTH",
"402 63 OFFCURVE",
"388 47 OFFCURVE",
"388 29 CURVE SMOOTH",
"388 11 OFFCURVE",
"402 -4 OFFCURVE",
"421 -4 CURVE SMOOTH",
"440 -4 OFFCURVE",
"454 11 OFFCURVE",
"454 29 CURVE SMOOTH",
"454 47 OFFCURVE",
"440 63 OFFCURVE"
);
}
);
width = 488;
}
);
leftKerningGroup = dotaccent;
rightKerningGroup = dotaccent;
unicode = 2026;
userData = {
com.typemytype.robofont.mark = (
0.6,
1,
0.694,
1
);
};
},
{
glyphname = eng;
layers = (
{
layerId = "F362B091-5F2C-44B8-BCF3-B70645E7FBBC";
name = Regular;
paths = (
{
closed = 1;
nodes = (
"406 -45 CURVE SMOOTH",
"406 345 LINE SMOOTH",
"406 450 OFFCURVE",
"342 508 OFFCURVE",
"232 508 CURVE SMOOTH",
"183 508 OFFCURVE",
"133 492 OFFCURVE",
"94 465 CURVE",
"94 498 LINE",
"38 498 LINE",
"38 0 LINE",
"94 0 LINE",
"94 424 LINE",
"133 447 OFFCURVE",
"176 458 OFFCURVE",
"221 458 CURVE SMOOTH",
"284 458 OFFCURVE",
"350 432 OFFCURVE",
"350 342 CURVE SMOOTH",
"350 -44 LINE SMOOTH",
"350 -73 OFFCURVE",
"343 -96 OFFCURVE",
"330 -113 CURVE",
"319 -129 OFFCURVE",
"304 -140 OFFCURVE",
"284 -147 CURVE",
"301 -190 LINE",
"334 -180 OFFCURVE",
"357 -166 OFFCURVE",
"374 -147 CURVE SMOOTH",
"397 -123 OFFCURVE",
"406 -90 OFFCURVE"
);
}
);
width = 442;
}
);
unicode = 014B;
userData = {
com.typemytype.robofont.mark = (
0.6,
1,
0.694,
1
);
};
},
{
glyphname = epsilon;
layers = (
{
anchors = (
{
name = bottom;
position = "{197, 0}";
},
{
name = center;
position = "{197, 300}";
},
{
name = ogonek;
position = "{196, 0}";
},
{
name = tonos;
position = "{197, 545}";
},
{
name = top;
position = "{197, 545}";
}
);
layerId = "F362B091-5F2C-44B8-BCF3-B70645E7FBBC";
name = Regular;
paths = (
{
closed = 1;
nodes = (
"301 443 CURVE",
"301 495 LINE",
"262 505 OFFCURVE",
"228 509 OFFCURVE",
"199 509 CURVE SMOOTH",
"87 509 OFFCURVE",
"46 441 OFFCURVE",
"47 378 CURVE SMOOTH",
"48 335 OFFCURVE",
"69 296 OFFCURVE",
"102 278 CURVE",
"50 256 OFFCURVE",
"27 205 OFFCURVE",
"27 151 CURVE SMOOTH",
"27 69 OFFCURVE",
"86 -11 OFFCURVE",
"202 -11 CURVE SMOOTH",
"260 -11 OFFCURVE",
"324 2 OFFCURVE",
"371 23 CURVE",
"355 74 LINE",
"307 55 OFFCURVE",
"257 42 OFFCURVE",
"212 41 CURVE SMOOTH",
"139 40 OFFCURVE",
"83 86 OFFCURVE",
"83 145 CURVE SMOOTH",
"83 220 OFFCURVE",
"148 246 OFFCURVE",
"183 246 CURVE SMOOTH",
"193 246 OFFCURVE",
"271 246 OFFCURVE",
"281 246 CURVE",
"301 300 LINE",
"182 300 LINE SMOOTH",
"136 300 OFFCURVE",
"105 341 OFFCURVE",
"105 381 CURVE SMOOTH",
"105 415 OFFCURVE",
"126 448 OFFCURVE",
"179 455 CURVE SMOOTH",
"211 460 OFFCURVE",
"239 463 OFFCURVE"
);
}
);
width = 395;
}
);
leftKerningGroup = epsilon;
rightKerningGroup = epsilon;
unicode = 03B5;
userData = {
com.typemytype.robofont.mark = (
0.6,
1,
0.694,
1
);
};
},
{
glyphname = equal;
layers = (
{
layerId = "F362B091-5F2C-44B8-BCF3-B70645E7FBBC";
name = Regular;
paths = (
{
closed = 1;
nodes = (
"34 356 LINE",
"353 356 LINE",
"353 411 LINE",
"34 411 LINE"
);
},
{
closed = 1;
nodes = (
"34 252 LINE",
"353 252 LINE",
"353 307 LINE",
"34 307 LINE"
);
}
);
width = 390;
}
);
leftKerningGroup = equal;
rightKerningGroup = equal;
unicode = 003D;
userData = {
com.typemytype.robofont.mark = (
0.6,
1,
0.694,
1
);
};
},
{
glyphname = eta;
layers = (
{
anchors = (
{
name = bottom;
position = "{221, 0}";
},
{
name = center;
position = "{221, 300}";
},
{
name = ogonek;
position = "{220, 0}";
},
{
name = tonos;
position = "{221, 545}";
},
{
name = top;
position = "{221, 545}";
}
);
layerId = "F362B091-5F2C-44B8-BCF3-B70645E7FBBC";
name = Regular;
paths = (
{
closed = 1;
nodes = (
"351 342 CURVE SMOOTH",
"351 -186 LINE",
"406 -209 LINE",
"406 345 LINE SMOOTH",
"406 450 OFFCURVE",
"342 508 OFFCURVE",
"232 508 CURVE SMOOTH",
"183 508 OFFCURVE",
"132 492 OFFCURVE",
"94 465 CURVE",
"94 499 LINE",
"38 499 LINE",
"38 0 LINE",
"94 0 LINE",
"94 424 LINE",
"135 447 OFFCURVE",
"176 458 OFFCURVE",
"221 458 CURVE SMOOTH",
"285 458 OFFCURVE",
"351 432 OFFCURVE"
);
}
);
width = 443;
}
);
leftKerningGroup = eta;
rightKerningGroup = eta;
unicode = 03B7;
userData = {
com.typemytype.robofont.mark = (
0.6,
1,
0.694,
1
);
};
},
{
glyphname = exclam;
layers = (
{
layerId = "F362B091-5F2C-44B8-BCF3-B70645E7FBBC";
name = Regular;
paths = (
{
closed = 1;
nodes = (
"40 671 CURVE SMOOTH",
"50 120 LINE",
"97 120 LINE",
"106 672 LINE SMOOTH",
"106 696 OFFCURVE",
"95 708 OFFCURVE",
"73 708 CURVE SMOOTH",
"51 708 OFFCURVE",
"40 696 OFFCURVE"
);
},
{
closed = 1;
nodes = (
"73 67 CURVE SMOOTH",
"54 67 OFFCURVE",
"40 52 OFFCURVE",
"40 34 CURVE SMOOTH",
"40 15 OFFCURVE",
"54 0 OFFCURVE",
"73 0 CURVE SMOOTH",
"92 0 OFFCURVE",
"106 15 OFFCURVE",
"106 34 CURVE SMOOTH",
"106 52 OFFCURVE",
"92 67 OFFCURVE"
);
}
);
width = 147;
}
);
leftKerningGroup = exclam;
rightKerningGroup = exclam;
unicode = 0021;
userData = {
com.typemytype.robofont.mark = (
0.6,
1,
0.694,
1
);
};
},
{
glyphname = exclamdown;
layers = (
{
layerId = "F362B091-5F2C-44B8-BCF3-B70645E7FBBC";
name = Regular;
paths = (
{
closed = 1;
nodes = (
"106 36 CURVE SMOOTH",
"97 588 LINE",
"50 588 LINE",
"40 37 LINE",
"40 12 OFFCURVE",
"51 0 OFFCURVE",
"73 0 CURVE SMOOTH",
"95 0 OFFCURVE",
"106 12 OFFCURVE"
);
},
{
closed = 1;
nodes = (
"106 674 CURVE SMOOTH",
"106 693 OFFCURVE",
"92 707 OFFCURVE",
"73 707 CURVE SMOOTH",
"54 707 OFFCURVE",
"39 693 OFFCURVE",
"39 674 CURVE SMOOTH",
"39 656 OFFCURVE",
"54 641 OFFCURVE",
"73 641 CURVE SMOOTH",
"92 641 OFFCURVE",
"106 656 OFFCURVE"
);
}
);
width = 147;
}
);
leftKerningGroup = exclam;
rightKerningGroup = exclam;
unicode = 00A1;
userData = {
com.typemytype.robofont.mark = (
0.6,
1,
0.694,
1
);
};
},
{
glyphname = f;
layers = (
{
layerId = "F362B091-5F2C-44B8-BCF3-B70645E7FBBC";
name = Regular;
paths = (
{
closed = 1;
nodes = (
"214 656 CURVE",
"223 705 LINE",
"212 708 OFFCURVE",
"200 708 OFFCURVE",
"187 708 CURVE SMOOTH",
"121 710 OFFCURVE",
"39 673 OFFCURVE",
"39 548 CURVE SMOOTH",
"39 0 LINE",
"95 0 LINE",
"95 446 LINE",
"186 446 LINE",
"209 498 LINE",
"95 498 LINE",
"95 515 OFFCURVE",
"95 531 OFFCURVE",
"95 548 CURVE SMOOTH",
"95 621 OFFCURVE",
"127 658 OFFCURVE",
"188 658 CURVE SMOOTH",
"196 658 OFFCURVE",
"205 657 OFFCURVE"
);
}
);
width = 248;
}
);
leftKerningGroup = t;
rightKerningGroup = t;
unicode = 0066;
userData = {
com.typemytype.robofont.mark = (
0.6,
1,
0.694,
1
);
};
},
{
glyphname = ff;
layers = (
{
layerId = "F362B091-5F2C-44B8-BCF3-B70645E7FBBC";
name = Regular;
paths = (
{
closed = 1;
nodes = (
"453 632 CURVE",
"473 681 LINE",
"457 692 OFFCURVE",
"429 698 OFFCURVE",
"407 698 CURVE SMOOTH",
"374 698 OFFCURVE",
"339 686 OFFCURVE",
"313 662 CURVE",
"273 690 OFFCURVE",
"229 704 OFFCURVE",
"180 704 CURVE SMOOTH",
"99 704 OFFCURVE",
"39 643 OFFCURVE",
"39 560 CURVE SMOOTH",
"39 0 LINE",
"95 0 LINE",
"95 446 LINE",
"186 446 LINE",
"209 498 LINE",
"95 498 LINE",
"95 515 OFFCURVE",
"95 531 OFFCURVE",
"95 548 CURVE SMOOTH",
"95 631 OFFCURVE",
"145 657 OFFCURVE",
"201 651 CURVE SMOOTH",
"226 649 OFFCURVE",
"255 636 OFFCURVE",
"283 618 CURVE",
"276 599 OFFCURVE",
"271 581 OFFCURVE",
"271 560 CURVE SMOOTH",
"271 373 OFFCURVE",
"271 187 OFFCURVE",
"271 0 CURVE",
"328 0 LINE",
"328 446 LINE",
"418 446 LINE",
"442 498 LINE",
"328 498 LINE",
"328 515 OFFCURVE",
"328 531 OFFCURVE",
"328 548 CURVE SMOOTH",
"328 586 OFFCURVE",
"340 614 OFFCURVE",
"366 631 CURVE SMOOTH",
"392 648 OFFCURVE",
"421 648 OFFCURVE"
);
}
);
width = 494;
}
);
unicode = FB00;
userData = {
com.typemytype.robofont.mark = (
0.6,
1,
0.694,
1
);
};
},
{
glyphname = ffl;
layers = (
{
layerId = "F362B091-5F2C-44B8-BCF3-B70645E7FBBC";
name = Regular;
paths = (
{
closed = 1;
nodes = (
"498 627 CURVE",
"498 0 LINE",
"554 0 LINE",
"554 664 LINE",
"514 690 OFFCURVE",
"475 703 OFFCURVE",
"427 703 CURVE SMOOTH",
"379 703 OFFCURVE",
"340 689 OFFCURVE",
"313 662 CURVE",
"274 690 OFFCURVE",
"229 704 OFFCURVE",
"181 704 CURVE SMOOTH",
"131 704 OFFCURVE",
"39 668 OFFCURVE",
"39 559 CURVE SMOOTH",
"39 373 OFFCURVE",
"39 186 OFFCURVE",
"39 0 CURVE",
"95 0 LINE",
"95 446 LINE",
"186 446 LINE",
"194 463 OFFCURVE",
"202 481 OFFCURVE",
"209 498 CURVE",
"95 498 LINE",
"95 515 OFFCURVE",
"95 531 OFFCURVE",
"95 548 CURVE SMOOTH",
"95 627 OFFCURVE",
"139 657 OFFCURVE",
"201 650 CURVE SMOOTH",
"226 648 OFFCURVE",
"253 636 OFFCURVE",
"283 618 CURVE",
"275 599 OFFCURVE",
"268 580 OFFCURVE",
"268 559 CURVE SMOOTH",
"268 373 OFFCURVE",
"268 186 OFFCURVE",
"268 0 CURVE",
"328 0 LINE",
"328 446 LINE",
"418 446 LINE",
"426 463 OFFCURVE",
"434 481 OFFCURVE",
"442 498 CURVE",
"328 498 LINE",
"328 555 LINE SMOOTH",
"328 591 OFFCURVE",
"345 618 OFFCURVE",
"378 636 CURVE SMOOTH",
"405 651 OFFCURVE",
"445 654 OFFCURVE"
);
}
);
width = 596;
}
);
unicode = FB04;
userData = {
com.typemytype.robofont.mark = (
0.6,
1,
0.694,
1
);
};
},
{
glyphname = fi;
layers = (
{
layerId = "F362B091-5F2C-44B8-BCF3-B70645E7FBBC";
name = Regular;
paths = (
{
closed = 1;
nodes = (
"39 560 CURVE SMOOTH",
"39 0 LINE",
"95 0 LINE",
"95 446 LINE",
"186 446 LINE",
"209 498 LINE",
"95 498 LINE",
"95 562 LINE SMOOTH",
"95 617 OFFCURVE",
"130 652 OFFCURVE",
"185 652 CURVE SMOOTH",
"207 652 OFFCURVE",
"235 645 OFFCURVE",
"269 621 CURVE",
"304 658 LINE",
"270 691 OFFCURVE",
"229 707 OFFCURVE",
"184 707 CURVE SMOOTH",
"146 707 OFFCURVE",
"112 696 OFFCURVE",
"83 669 CURVE SMOOTH",
"53 642 OFFCURVE",
"39 604 OFFCURVE"
);
},
{
closed = 1;
nodes = (
"325 0 LINE",
"325 498 LINE",
"268 498 LINE",
"268 0 LINE"
);
}
);
width = 364;
}
);
unicode = FB01;
userData = {
com.typemytype.robofont.mark = (
0.6,
1,
0.694,
1
);
};
},
{
glyphname = five;
layers = (
{
layerId = "F362B091-5F2C-44B8-BCF3-B70645E7FBBC";
name = Regular;
paths = (
{
closed = 1;
nodes = (
"116 411 CURVE",
"140 641 LINE",
"356 641 LINE",
"356 698 LINE",
"91 698 LINE",
"54 355 LINE",
"169 355 LINE SMOOTH",
"290 355 OFFCURVE",
"355 287 OFFCURVE",
"355 200 CURVE SMOOTH",
"355 105 OFFCURVE",
"278 44 OFFCURVE",
"198 44 CURVE SMOOTH",
"110 44 OFFCURVE",
"49 89 OFFCURVE",
"49 89 CURVE",
"28 42 LINE",
"28 42 OFFCURVE",
"112 -12 OFFCURVE",
"201 -12 CURVE SMOOTH",
"334 -12 OFFCURVE",
"411 96 OFFCURVE",
"411 198 CURVE SMOOTH",
"411 343 OFFCURVE",
"300 411 OFFCURVE",
"169 411 CURVE SMOOTH",
"158 411 OFFCURVE",
"127 411 OFFCURVE"
);
}
);
width = 439;
}
);
unicode = 0035;
userData = {
com.typemytype.robofont.mark = (
0.6,
1,
0.694,
1
);
};
},
{
glyphname = fl;
layers = (
{
layerId = "F362B091-5F2C-44B8-BCF3-B70645E7FBBC";
name = Regular;
paths = (
{
closed = 1;
nodes = (
"270 621 CURVE",
"270 0 LINE",
"327 0 LINE",
"327 656 LINE",
"284 690 OFFCURVE",
"236 705 OFFCURVE",
"192 705 CURVE SMOOTH",
"108 705 OFFCURVE",
"38 648 OFFCURVE",
"41 560 CURVE SMOOTH",
"41 0 LINE",
"97 0 LINE",
"97 446 LINE",
"188 446 LINE",
"212 498 LINE",
"97 498 LINE",
"97 548 LINE SMOOTH",
"97 618 OFFCURVE",
"140 646 OFFCURVE",
"189 646 CURVE SMOOTH",
"210 646 OFFCURVE",
"237 639 OFFCURVE"
);
}
);
width = 369;
}
);
unicode = FB02;
userData = {
com.typemytype.robofont.mark = (
0.6,
1,
0.694,
1
);
};
},
{
glyphname = four;
layers = (
{
layerId = "F362B091-5F2C-44B8-BCF3-B70645E7FBBC";
name = Regular;
paths = (
{
closed = 1;
nodes = (
"331 0 LINE",
"388 0 LINE",
"388 355 LINE",
"440 355 LINE",
"460 413 LINE",
"388 413 LINE",
"388 698 LINE",
"331 698 LINE",
"331 413 LINE",
"112 413 LINE",
"268 698 LINE",
"209 698 LINE",
"16 355 LINE",
"331 355 LINE"
);
}
);
width = 487;
}
);
unicode = 0034;
userData = {
com.typemytype.robofont.mark = (
0.6,
1,
0.694,
1
);
};
},
{
glyphname = fraction;
layers = (
{
anchors = (
{
name = bottom;
position = "{207, 0}";
},
{
name = center;
position = "{207, 300}";
},
{
name = ogonek;
position = "{207, 0}";
},
{
name = tonos;
position = "{207, 545}";
},
{
name = top;
position = "{207, 545}";
}
);
layerId = "F362B091-5F2C-44B8-BCF3-B70645E7FBBC";
name = Regular;
paths = (
{
closed = 1;
nodes = (
"18 -113 LINE",
"75 -113 LINE",
"399 815 LINE",
"337 815 LINE"
);
}
);
width = 415;
}
);
leftKerningGroup = fraction;
rightKerningGroup = fraction;
unicode = 2044;
userData = {
com.typemytype.robofont.mark = (
0.6,
1,
0.694,
1
);
};
},
{
glyphname = ft;
layers = (
{
layerId = "F362B091-5F2C-44B8-BCF3-B70645E7FBBC";
name = Regular;
paths = (
{
closed = 1;
nodes = (
"324 132 CURVE SMOOTH",
"324 446 LINE",
"356 446 OFFCURVE",
"389 446 OFFCURVE",
"421 446 CURVE",
"444 498 LINE",
"400 498 OFFCURVE",
"360 498 OFFCURVE",
"325 498 CURVE",
"325 549 OFFCURVE",
"325 602 OFFCURVE",
"325 654 CURVE",
"282 689 OFFCURVE",
"235 704 OFFCURVE",
"191 704 CURVE SMOOTH",
"107 704 OFFCURVE",
"38 648 OFFCURVE",
"41 560 CURVE SMOOTH",
"41 373 OFFCURVE",
"41 187 OFFCURVE",
"41 0 CURVE",
"60 0 OFFCURVE",
"78 0 OFFCURVE",
"97 0 CURVE",
"97 446 LINE",
"186 446 LINE",
"210 498 LINE",
"163 498 OFFCURVE",
"130 498 OFFCURVE",
"97 498 CURVE",
"97 510 OFFCURVE",
"97 527 OFFCURVE",
"97 548 CURVE SMOOTH",
"97 618 OFFCURVE",
"139 646 OFFCURVE",
"188 646 CURVE SMOOTH",
"209 646 OFFCURVE",
"238 642 OFFCURVE",
"269 621 CURVE",
"269 459 OFFCURVE",
"269 295 OFFCURVE",
"269 132 CURVE SMOOTH",
"269 53 OFFCURVE",
"299 8 OFFCURVE",
"374 -13 CURVE",
"390 30 LINE",
"346 45 OFFCURVE",
"324 79 OFFCURVE"
);
}
);
width = 469;
}
);
userData = {
com.typemytype.robofont.mark = (
0.6,
1,
0.694,
1
);
};
},
{
glyphname = g;
layers = (
{
anchors = (
{
name = bottom;
position = "{220, 0}";
},
{
name = center;
position = "{220, 300}";
},
{
name = ogonek;
position = "{219, 0}";
},
{
name = tonos;
position = "{220, 545}";
},
{
name = top;
position = "{220, 545}";
}
);
layerId = "F362B091-5F2C-44B8-BCF3-B70645E7FBBC";
name = Regular;
paths = (
{
closed = 1;
nodes = (
"400 -64 CURVE SMOOTH",
"400 498 LINE",
"343 498 LINE",
"343 451 LINE",
"299 487 OFFCURVE",
"249 506 OFFCURVE",
"201 508 CURVE SMOOTH",
"92 513 OFFCURVE",
"31 450 OFFCURVE",
"31 345 CURVE SMOOTH",
"31 175 LINE SMOOTH",
"31 53 OFFCURVE",
"90 -12 OFFCURVE",
"202 -12 CURVE SMOOTH",
"262 -12 OFFCURVE",
"320 20 OFFCURVE",
"343 61 CURVE",
"343 -63 LINE SMOOTH",
"343 -116 OFFCURVE",
"320 -150 OFFCURVE",
"276 -167 CURVE",
"292 -210 LINE",
"368 -186 OFFCURVE",
"400 -144 OFFCURVE"
);
},
{
closed = 1;
nodes = (
"343 392 CURVE",
"343 173 LINE SMOOTH",
"343 88 OFFCURVE",
"281 40 OFFCURVE",
"205 40 CURVE SMOOTH",
"129 40 OFFCURVE",
"87 82 OFFCURVE",
"87 166 CURVE SMOOTH",
"87 342 LINE SMOOTH",
"87 432 OFFCURVE",
"150 463 OFFCURVE",
"213 458 CURVE SMOOTH",
"257 454 OFFCURVE",
"314 433 OFFCURVE"
);
}
);
width = 440;
}
);
leftKerningGroup = g;
rightKerningGroup = g;
unicode = 0067;
userData = {
com.typemytype.robofont.mark = (
0.6,
1,
0.694,
1
);
};
},
{
glyphname = gamma;
layers = (
{
layerId = "F362B091-5F2C-44B8-BCF3-B70645E7FBBC";
name = Regular;
paths = (
{
closed = 1;
nodes = (
"482 477 CURVE",
"470 487 OFFCURVE",
"457 498 OFFCURVE",
"445 508 CURVE",
"387 496 OFFCURVE",
"364 458 OFFCURVE",
"344 386 CURVE SMOOTH",
"308 272 OFFCURVE",
"274 157 OFFCURVE",
"239 43 CURVE",
"216 55 OFFCURVE",
"200 75 OFFCURVE",
"183 139 CURVE SMOOTH",
"148 258 OFFCURVE",
"113 378 OFFCURVE",
"77 498 CURVE",
"20 498 LINE",
"56 375 OFFCURVE",
"92 251 OFFCURVE",
"128 128 CURVE SMOOTH",
"147 70 OFFCURVE",
"166 15 OFFCURVE",
"223 -6 CURVE",
"201 -79 LINE SMOOTH",
"187 -122 OFFCURVE",
"159 -154 OFFCURVE",
"105 -155 CURVE",
"115 -198 LINE",
"234 -195 OFFCURVE",
"249 -101 OFFCURVE",
"264 -58 CURVE SMOOTH",
"394 374 LINE SMOOTH",
"401 397 OFFCURVE",
"425 459 OFFCURVE"
);
}
);
width = 503;
}
);
leftKerningGroup = v;
rightKerningGroup = v;
unicode = 03B3;
userData = {
com.typemytype.robofont.mark = (
0.6,
1,
0.694,
1
);
};
},
{
glyphname = germandbls;
layers = (
{
layerId = "F362B091-5F2C-44B8-BCF3-B70645E7FBBC";
name = Regular;
paths = (
{
closed = 1;
nodes = (
"95 0 CURVE",
"95 539 LINE SMOOTH",
"95 610 OFFCURVE",
"124 645 OFFCURVE",
"178 645 CURVE SMOOTH",
"221 645 OFFCURVE",
"246 610 OFFCURVE",
"249 575 CURVE SMOOTH",
"252 540 OFFCURVE",
"234 506 OFFCURVE",
"189 506 CURVE",
"174 480 OFFCURVE",
"170 455 OFFCURVE",
"172 433 CURVE SMOOTH",
"177 380 OFFCURVE",
"228 337 OFFCURVE",
"277 294 CURVE SMOOTH",
"329 249 OFFCURVE",
"380 204 OFFCURVE",
"380 143 CURVE SMOOTH",
"380 76 OFFCURVE",
"329 44 OFFCURVE",
"273 43 CURVE SMOOTH",
"234 43 OFFCURVE",
"192 57 OFFCURVE",
"163 85 CURVE",
"153 68 OFFCURVE",
"143 53 OFFCURVE",
"133 36 CURVE",
"173 3 OFFCURVE",
"229 -13 OFFCURVE",
"282 -11 CURVE SMOOTH",
"363 -8 OFFCURVE",
"438 40 OFFCURVE",
"438 141 CURVE SMOOTH",
"438 219 OFFCURVE",
"382 275 OFFCURVE",
"327 323 CURVE SMOOTH",
"280 365 OFFCURVE",
"234 400 OFFCURVE",
"229 439 CURVE SMOOTH",
"228 451 OFFCURVE",
"230 463 OFFCURVE",
"238 475 CURVE",
"237 475 OFFCURVE",
"268 475 OFFCURVE",
"268 475 CURVE",
"294 497 OFFCURVE",
"306 533 OFFCURVE",
"304 570 CURVE SMOOTH",
"302 635 OFFCURVE",
"256 703 OFFCURVE",
"173 698 CURVE",
"86 698 OFFCURVE",
"39 638 OFFCURVE",
"39 536 CURVE SMOOTH",
"39 358 OFFCURVE",
"39 178 OFFCURVE",
"39 0 CURVE",
"57 0 OFFCURVE",
"76 0 OFFCURVE"
);
}
);
width = 464;
}
);
unicode = 00DF;
userData = {
com.typemytype.robofont.mark = (
0.6,
1,
0.694,
1
);
};
},
{
glyphname = greater;
layers = (
{
layerId = "F362B091-5F2C-44B8-BCF3-B70645E7FBBC";
name = Regular;
paths = (
{
closed = 1;
nodes = (
"30 597 LINE",
"269 356 LINE",
"30 118 LINE",
"68 79 LINE",
"345 358 LINE",
"68 635 LINE"
);
}
);
width = 374;
}
);
unicode = 003E;
userData = {
com.typemytype.robofont.mark = (
0.6,
1,
0.694,
1
);
};
},
{
glyphname = guillemotright;
layers = (
{
layerId = "F362B091-5F2C-44B8-BCF3-B70645E7FBBC";
name = Regular;
paths = (
{
closed = 1;
nodes = (
"180 266 LINE",
"33 113 LINE",
"67 79 LINE",
"254 266 LINE",
"67 453 LINE",
"31 416 LINE"
);
},
{
closed = 1;
nodes = (
"399 266 LINE",
"252 113 LINE",
"287 79 LINE",
"473 266 LINE",
"287 453 LINE",
"250 416 LINE"
);
}
);
width = 502;
}
);
leftKerningGroup = guillemotright;
rightKerningGroup = guillemotright;
unicode = 00BB;
userData = {
com.typemytype.robofont.mark = (
0.6,
1,
0.694,
1
);
};
},
{
glyphname = guilsinglleft;
layers = (
{
layerId = "F362B091-5F2C-44B8-BCF3-B70645E7FBBC";
name = Regular;
paths = (
{
closed = 1;
nodes = (
"27 266 LINE",
"213 79 LINE",
"248 113 LINE",
"100 266 LINE",
"250 416 LINE",
"213 453 LINE"
);
}
);
width = 283;
}
);
unicode = 2039;
userData = {
com.typemytype.robofont.mark = (
0.6,
1,
0.694,
1
);
};
},
{
glyphname = guilsinglright;
layers = (
{
layerId = "F362B091-5F2C-44B8-BCF3-B70645E7FBBC";
name = Regular;
paths = (
{
closed = 1;
nodes = (
"180 266 LINE",
"33 113 LINE",
"68 79 LINE",
"254 266 LINE",
"68 453 LINE",
"31 416 LINE"
);
}
);
width = 283;
}
);
leftKerningGroup = guillemotright;
rightKerningGroup = guillemotright;
unicode = 203A;
userData = {
com.typemytype.robofont.mark = (
0.6,
1,
0.694,
1
);
};
},
{
glyphname = h;
layers = (
{
anchors = (
{
name = bottom;
position = "{221, 0}";
},
{
name = center;
position = "{221, 300}";
},
{
name = ogonek;
position = "{220, 0}";
},
{
name = tonos;
position = "{221, 545}";
},
{
name = top;
position = "{221, 545}";
}
);
layerId = "F362B091-5F2C-44B8-BCF3-B70645E7FBBC";
name = Regular;
paths = (
{
closed = 1;
nodes = (
"97 465 CURVE",
"97 698 LINE",
"41 698 LINE",
"41 0 LINE",
"97 0 LINE",
"97 424 LINE",
"138 447 OFFCURVE",
"180 458 OFFCURVE",
"225 458 CURVE SMOOTH",
"288 458 OFFCURVE",
"354 432 OFFCURVE",
"354 342 CURVE SMOOTH",
"354 0 LINE",
"410 0 LINE",
"410 345 LINE SMOOTH",
"410 450 OFFCURVE",
"346 508 OFFCURVE",
"236 508 CURVE SMOOTH",
"186 508 OFFCURVE",
"136 492 OFFCURVE"
);
}
);
width = 443;
}
);
leftKerningGroup = h;
rightKerningGroup = h;
unicode = 0068;
userData = {
com.typemytype.robofont.mark = (
0.6,
1,
0.694,
1
);
};
},
{
glyphname = hbar;
layers = (
{
layerId = "F362B091-5F2C-44B8-BCF3-B70645E7FBBC";
name = Regular;
paths = (
{
closed = 1;
nodes = (
"126 465 CURVE",
"126 562 LINE",
"261 562 LINE",
"261 615 LINE",
"126 615 LINE",
"126 698 LINE",
"70 698 LINE",
"70 615 LINE",
"26 615 LINE",
"26 562 LINE",
"70 562 LINE",
"70 0 LINE",
"126 0 LINE",
"126 424 LINE",
"166 447 OFFCURVE",
"208 458 OFFCURVE",
"253 458 CURVE SMOOTH",
"317 458 OFFCURVE",
"383 432 OFFCURVE",
"383 342 CURVE SMOOTH",
"383 0 LINE",
"438 0 LINE",
"438 345 LINE SMOOTH",
"438 450 OFFCURVE",
"374 508 OFFCURVE",
"264 508 CURVE SMOOTH",
"215 508 OFFCURVE",
"164 492 OFFCURVE"
);
}
);
width = 471;
}
);
leftKerningGroup = h;
rightKerningGroup = h;
unicode = 0127;
userData = {
com.typemytype.robofont.mark = (
0.6,
1,
0.694,
1
);
};
},
{
glyphname = hyphen;
layers = (
{
layerId = "F362B091-5F2C-44B8-BCF3-B70645E7FBBC";
name = Regular;
paths = (
{
closed = 1;
nodes = (
"34 355 LINE",
"353 355 LINE",
"353 413 LINE",
"34 413 LINE"
);
}
);
width = 391;
}
);
leftKerningGroup = equal;
rightKerningGroup = equal;
unicode = 002D;
userData = {
com.typemytype.robofont.mark = (
0.6,
1,
0.694,
1
);
};
},
{
glyphname = i;
layers = (
{
components = (
{
name = dotlessi;
transform = "{1, 0, 0, 1, 0, 0}";
}
);
layerId = "F362B091-5F2C-44B8-BCF3-B70645E7FBBC";
name = Regular;
paths = (
{
closed = 1;
nodes = (
"75 708 CURVE SMOOTH",
"56 708 OFFCURVE",
"41 693 OFFCURVE",
"41 674 CURVE SMOOTH",
"41 656 OFFCURVE",
"56 641 OFFCURVE",
"75 641 CURVE SMOOTH",
"92 641 OFFCURVE",
"108 656 OFFCURVE",
"108 674 CURVE SMOOTH",
"108 693 OFFCURVE",
"92 708 OFFCURVE"
);
}
);
width = 150;
}
);
leftKerningGroup = i;
rightKerningGroup = i;
unicode = 0069;
userData = {
com.typemytype.robofont.mark = (
0.6,
1,
0.694,
1
);
};
},
{
glyphname = j;
layers = (
{
layerId = "F362B091-5F2C-44B8-BCF3-B70645E7FBBC";
name = Regular;
paths = (
{
closed = 1;
nodes = (
"149 -63 CURVE SMOOTH",
"149 499 LINE",
"29 499 LINE",
"29 447 LINE",
"93 447 LINE",
"93 -62 LINE SMOOTH",
"93 -90 OFFCURVE",
"87 -113 OFFCURVE",
"74 -131 CURVE SMOOTH",
"63 -146 OFFCURVE",
"48 -158 OFFCURVE",
"27 -166 CURVE",
"43 -209 LINE",
"76 -198 OFFCURVE",
"99 -185 OFFCURVE",
"117 -166 CURVE SMOOTH",
"140 -141 OFFCURVE",
"149 -108 OFFCURVE"
);
},
{
closed = 1;
nodes = (
"157 674 CURVE SMOOTH",
"157 693 OFFCURVE",
"141 707 OFFCURVE",
"123 707 CURVE SMOOTH",
"104 707 OFFCURVE",
"89 693 OFFCURVE",
"89 674 CURVE SMOOTH",
"89 656 OFFCURVE",
"104 641 OFFCURVE",
"123 641 CURVE SMOOTH",
"141 641 OFFCURVE",
"157 656 OFFCURVE"
);
}
);
width = 199;
}
);
leftKerningGroup = j;
rightKerningGroup = j;
unicode = 006A;
userData = {
com.typemytype.robofont.mark = (
0.6,
1,
0.694,
1
);
};
},
{
glyphname = jcircumflex;
layers = (
{
layerId = "F362B091-5F2C-44B8-BCF3-B70645E7FBBC";
name = Regular;
paths = (
{
closed = 1;
nodes = (
"179 -63 CURVE SMOOTH",
"179 499 LINE",
"59 499 LINE",
"59 447 LINE",
"122 447 LINE",
"122 -62 LINE SMOOTH",
"122 -90 OFFCURVE",
"116 -113 OFFCURVE",
"103 -131 CURVE SMOOTH",
"92 -146 OFFCURVE",
"76 -158 OFFCURVE",
"57 -166 CURVE",
"73 -209 LINE",
"106 -198 OFFCURVE",
"129 -185 OFFCURVE",
"147 -166 CURVE SMOOTH",
"169 -141 OFFCURVE",
"179 -108 OFFCURVE"
);
},
{
closed = 1;
nodes = (
"19 584 LINE",
"58 546 LINE",
"150 635 LINE",
"239 547 LINE",
"279 585 LINE",
"150 711 LINE"
);
}
);
width = 298;
}
);
leftKerningGroup = j;
rightKerningGroup = j;
unicode = 0135;
userData = {
com.typemytype.robofont.mark = (
0.6,
1,
0.694,
1
);
};
},
{
glyphname = k;
layers = (
{
anchors = (
{
name = bottom;
position = "{213, 0}";
},
{
name = center;
position = "{213, 300}";
},
{
name = ogonek;
position = "{213, 0}";
},
{
name = tonos;
position = "{213, 545}";
},
{
name = top;
position = "{213, 545}";
}
);
layerId = "F362B091-5F2C-44B8-BCF3-B70645E7FBBC";
name = Regular;
paths = (
{
closed = 1;
nodes = (
"189 351 CURVE",
"337 480 LINE",
"297 518 LINE",
"97 334 LINE",
"97 698 LINE",
"41 698 LINE",
"41 0 LINE",
"97 0 LINE",
"97 272 LINE",
"149 316 LINE",
"340 0 LINE",
"407 0 LINE",
"307 158 OFFCURVE",
"234 276 OFFCURVE"
);
}
);
width = 426;
}
);
leftKerningGroup = k;
rightKerningGroup = k;
unicode = 006B;
userData = {
com.typemytype.robofont.mark = (
0.6,
1,
0.694,
1
);
};
},
{
glyphname = kappa;
layers = (
{
anchors = (
{
name = bottom;
position = "{216, 0}";
},
{
name = center;
position = "{216, 300}";
},
{
name = ogonek;
position = "{216, 0}";
},
{
name = tonos;
position = "{216, 545}";
},
{
name = top;
position = "{216, 545}";
}
);
layerId = "F362B091-5F2C-44B8-BCF3-B70645E7FBBC";
name = Regular;
paths = (
{
closed = 1;
nodes = (
"314 117 CURVE SMOOTH",
"187 295 LINE",
"375 499 LINE",
"301 499 LINE",
"94 273 LINE",
"94 497 LINE",
"38 510 LINE",
"38 0 LINE",
"94 0 LINE",
"94 197 LINE",
"149 253 LINE",
"253 110 LINE SMOOTH",
"272 85 OFFCURVE",
"286 66 OFFCURVE",
"296 54 CURVE SMOOTH",
"307 42 OFFCURVE",
"323 30 OFFCURVE",
"342 16 CURVE",
"362 4 OFFCURVE",
"384 -1 OFFCURVE",
"407 -1 CURVE",
"405 47 LINE",
"378 47 OFFCURVE",
"348 71 OFFCURVE"
);
}
);
width = 433;
}
);
leftKerningGroup = kappa;
rightKerningGroup = kappa;
unicode = 03BA;
userData = {
com.typemytype.robofont.mark = (
0.6,
1,
0.694,
1
);
};
},
{
glyphname = l;
layers = (
{
anchors = (
{
name = bottom;
position = "{69, 0}";
},
{
name = center;
position = "{69, 300}";
},
{
name = ogonek;
position = "{69, 0}";
},
{
name = tonos;
position = "{23, 700}";
},
{
name = top;
position = "{69, 735}";
}
);
layerId = "F362B091-5F2C-44B8-BCF3-B70645E7FBBC";
name = Regular;
paths = (
{
closed = 1;
nodes = (
"41 0 LINE",
"96 0 LINE",
"96 698 LINE",
"41 698 LINE"
);
}
);
width = 139;
}
);
leftKerningGroup = l;
rightKerningGroup = l;
unicode = 006C;
userData = {
com.typemytype.robofont.mark = (
0.6,
1,
0.694,
1
);
};
},
{
glyphname = lambda;
layers = (
{
layerId = "F362B091-5F2C-44B8-BCF3-B70645E7FBBC";
name = Regular;
paths = (
{
closed = 1;
nodes = (
"397 123 CURVE SMOOTH",
"267 555 LINE SMOOTH",
"252 598 OFFCURVE",
"236 692 OFFCURVE",
"117 695 CURVE",
"107 652 LINE",
"160 651 OFFCURVE",
"190 619 OFFCURVE",
"203 576 CURVE SMOOTH",
"225 504 LINE",
"168 482 OFFCURVE",
"149 427 OFFCURVE",
"131 370 CURVE SMOOTH",
"94 246 OFFCURVE",
"59 122 OFFCURVE",
"23 -1 CURVE",
"79 -1 LINE",
"114 119 OFFCURVE",
"149 239 OFFCURVE",
"184 359 CURVE SMOOTH",
"202 422 OFFCURVE",
"219 442 OFFCURVE",
"242 454 CURVE",
"276 340 OFFCURVE",
"311 226 OFFCURVE",
"345 111 CURVE SMOOTH",
"366 40 OFFCURVE",
"388 2 OFFCURVE",
"447 -11 CURVE",
"459 -1 OFFCURVE",
"472 10 OFFCURVE",
"484 20 CURVE",
"426 38 OFFCURVE",
"403 101 OFFCURVE"
);
}
);
width = 502;
}
);
leftKerningGroup = A;
rightKerningGroup = A;
unicode = 03BB;
userData = {
com.typemytype.robofont.mark = (
0.6,
1,
0.694,
1
);
};
},
{
glyphname = less;
layers = (
{
layerId = "F362B091-5F2C-44B8-BCF3-B70645E7FBBC";
name = Regular;
paths = (
{
closed = 1;
nodes = (
"25 358 LINE",
"302 79 LINE",
"341 118 LINE",
"101 356 LINE",
"341 597 LINE",
"302 635 LINE"
);
}
);
width = 374;
}
);
unicode = 003C;
userData = {
com.typemytype.robofont.mark = (
0.6,
1,
0.694,
1
);
};
},
{
glyphname = lslash;
layers = (
{
layerId = "F362B091-5F2C-44B8-BCF3-B70645E7FBBC";
name = Regular;
paths = (
{
closed = 1;
nodes = (
"145 414 LINE",
"17 356 LINE",
"39 307 LINE",
"145 354 LINE",
"145 0 LINE",
"201 0 LINE",
"201 380 LINE",
"330 438 LINE",
"307 487 LINE",
"201 439 LINE",
"201 698 LINE",
"145 698 LINE"
);
}
);
width = 353;
}
);
unicode = 0142;
userData = {
com.typemytype.robofont.mark = (
0.6,
1,
0.694,
1
);
};
},
{
glyphname = m;
layers = (
{
layerId = "F362B091-5F2C-44B8-BCF3-B70645E7FBBC";
name = Regular;
paths = (
{
closed = 1;
nodes = (
"626 341 CURVE SMOOTH",
"626 0 LINE",
"679 0 LINE",
"679 343 LINE SMOOTH",
"679 449 OFFCURVE",
"626 507 OFFCURVE",
"515 507 CURVE SMOOTH",
"472 507 OFFCURVE",
"413 492 OFFCURVE",
"358 451 CURVE",
"331 487 OFFCURVE",
"286 507 OFFCURVE",
"223 507 CURVE SMOOTH",
"173 507 OFFCURVE",
"135 491 OFFCURVE",
"94 464 CURVE",
"94 498 LINE",
"38 498 LINE",
"38 0 LINE",
"94 0 LINE",
"94 422 LINE",
"135 446 OFFCURVE",
"167 457 OFFCURVE",
"213 457 CURVE SMOOTH",
"276 457 OFFCURVE",
"334 431 OFFCURVE",
"334 341 CURVE SMOOTH",
"334 0 LINE",
"386 0 LINE",
"386 343 LINE SMOOTH",
"386 371 OFFCURVE",
"383 396 OFFCURVE",
"375 417 CURVE",
"423 446 OFFCURVE",
"466 457 OFFCURVE",
"505 457 CURVE SMOOTH",
"569 457 OFFCURVE",
"626 431 OFFCURVE"
);
}
);
width = 715;
}
);
leftKerningGroup = n;
rightKerningGroup = n;
unicode = 006D;
userData = {
com.typemytype.robofont.mark = (
0.6,
1,
0.694,
1
);
};
},
{
glyphname = mu;
layers = (
{
layerId = "F362B091-5F2C-44B8-BCF3-B70645E7FBBC";
name = Regular;
paths = (
{
closed = 1;
nodes = (
"408 94 CURVE SMOOTH",
"408 508 LINE",
"351 496 LINE",
"351 153 LINE SMOOTH",
"351 78 OFFCURVE",
"317 43 OFFCURVE",
"249 43 CURVE SMOOTH",
"161 43 OFFCURVE",
"111 89 OFFCURVE",
"96 105 CURVE",
"96 499 LINE",
"39 499 LINE",
"39 -200 LINE",
"96 -209 LINE",
"96 44 LINE",
"96 44 OFFCURVE",
"150 -12 OFFCURVE",
"246 -12 CURVE SMOOTH",
"296 -12 OFFCURVE",
"339 9 OFFCURVE",
"360 44 CURVE",
"382 2 OFFCURVE",
"408 -6 OFFCURVE",
"408 -6 CURVE",
"435 26 LINE",
"435 26 OFFCURVE",
"408 51 OFFCURVE"
);
}
);
width = 464;
}
);
leftKerningGroup = mu;
rightKerningGroup = mu;
unicode = 00B5;
userData = {
com.typemytype.robofont.mark = (
0.6,
1,
0.694,
1
);
};
},
{
glyphname = mugreek;
layers = (
{
layerId = "F362B091-5F2C-44B8-BCF3-B70645E7FBBC";
name = Regular;
paths = (
{
closed = 1;
nodes = (
"407 94 CURVE SMOOTH",
"407 508 LINE",
"351 496 LINE",
"351 153 LINE SMOOTH",
"351 78 OFFCURVE",
"317 43 OFFCURVE",
"248 43 CURVE SMOOTH",
"161 43 OFFCURVE",
"111 89 OFFCURVE",
"96 105 CURVE",
"96 499 LINE",
"39 499 LINE",
"39 -200 LINE",
"96 -209 LINE",
"96 44 LINE",
"96 44 OFFCURVE",
"150 -12 OFFCURVE",
"246 -12 CURVE SMOOTH",
"295 -12 OFFCURVE",
"339 9 OFFCURVE",
"360 44 CURVE",
"382 2 OFFCURVE",
"407 -6 OFFCURVE",
"407 -6 CURVE",
"435 26 LINE",
"435 26 OFFCURVE",
"407 51 OFFCURVE"
);
}
);
width = 464;
}
);
leftKerningGroup = mu;
rightKerningGroup = mu;
unicode = 03BC;
userData = {
com.typemytype.robofont.mark = (
0.6,
1,
0.694,
1
);
};
},
{
glyphname = multiply;
layers = (
{
layerId = "F362B091-5F2C-44B8-BCF3-B70645E7FBBC";
name = Regular;
paths = (
{
closed = 1;
nodes = (
"173 374 LINE",
"71 495 LINE",
"31 461 LINE",
"136 332 LINE",
"31 205 LINE",
"73 167 LINE",
"173 289 LINE",
"273 167 LINE",
"314 205 LINE",
"208 332 LINE",
"314 461 LINE",
"273 495 LINE"
);
}
);
width = 346;
}
);
unicode = 00D7;
userData = {
com.typemytype.robofont.mark = (
0.6,
1,
0.694,
1
);
};
},
{
glyphname = n;
layers = (
{
anchors = (
{
name = bottom;
position = "{221, 0}";
},
{
name = center;
position = "{221, 300}";
},
{
name = ogonek;
position = "{220, 0}";
},
{
name = tonos;
position = "{221, 545}";
},
{
name = top;
position = "{221, 545}";
}
);
layerId = "F362B091-5F2C-44B8-BCF3-B70645E7FBBC";
name = Regular;
paths = (
{
closed = 1;
nodes = (
"351 341 CURVE SMOOTH",
"351 0 LINE",
"406 0 LINE",
"406 344 LINE SMOOTH",
"406 449 OFFCURVE",
"342 508 OFFCURVE",
"232 508 CURVE SMOOTH",
"183 508 OFFCURVE",
"132 491 OFFCURVE",
"94 465 CURVE",
"94 499 LINE",
"38 499 LINE",
"38 0 LINE",
"94 0 LINE",
"94 424 LINE",
"135 447 OFFCURVE",
"176 458 OFFCURVE",
"221 458 CURVE SMOOTH",
"285 458 OFFCURVE",
"351 431 OFFCURVE"
);
}
);
width = 442;
}
);
leftKerningGroup = n;
rightKerningGroup = n;
unicode = 006E;
userData = {
com.typemytype.robofont.mark = (
0.6,
1,
0.694,
1
);
};
},
{
glyphname = nine;
layers = (
{
layerId = "F362B091-5F2C-44B8-BCF3-B70645E7FBBC";
name = Regular;
paths = (
{
closed = 1;
nodes = (
"235 707 CURVE SMOOTH",
"175 707 OFFCURVE",
"126 686 OFFCURVE",
"85 646 CURVE SMOOTH",
"44 605 OFFCURVE",
"23 554 OFFCURVE",
"23 495 CURVE SMOOTH",
"23 437 OFFCURVE",
"44 386 OFFCURVE",
"85 345 CURVE SMOOTH",
"126 305 OFFCURVE",
"176 284 OFFCURVE",
"238 284 CURVE SMOOTH",
"298 284 OFFCURVE",
"350 307 OFFCURVE",
"392 352 CURVE",
"392 245 LINE SMOOTH",
"392 182 OFFCURVE",
"374 135 OFFCURVE",
"337 102 CURVE SMOOTH",
"301 70 OFFCURVE",
"258 54 OFFCURVE",
"207 54 CURVE SMOOTH",
"169 54 LINE",
"169 -1 LINE",
"204 -1 LINE SMOOTH",
"292 -1 OFFCURVE",
"361 34 OFFCURVE",
"396 84 CURVE SMOOTH",
"431 131 OFFCURVE",
"447 183 OFFCURVE",
"447 238 CURVE SMOOTH",
"447 495 LINE SMOOTH",
"447 554 OFFCURVE",
"426 605 OFFCURVE",
"385 646 CURVE SMOOTH",
"345 686 OFFCURVE",
"293 707 OFFCURVE"
);
},
{
closed = 1;
nodes = (
"235 652 CURVE SMOOTH",
"322 652 OFFCURVE",
"392 582 OFFCURVE",
"392 495 CURVE SMOOTH",
"392 409 OFFCURVE",
"322 339 OFFCURVE",
"235 339 CURVE SMOOTH",
"148 339 OFFCURVE",
"79 409 OFFCURVE",
"79 495 CURVE SMOOTH",
"79 582 OFFCURVE",
"148 652 OFFCURVE"
);
}
);
width = 480;
}
);
unicode = 0039;
userData = {
com.typemytype.robofont.mark = (
0.6,
1,
0.694,
1
);
};
},
{
glyphname = nu;
layers = (
{
anchors = (
{
name = bottom;
position = "{213, 0}";
},
{
name = center;
position = "{213, 300}";
},
{
name = ogonek;
position = "{213, 0}";
},
{
name = tonos;
position = "{213, 545}";
},
{
name = top;
position = "{213, 545}";
}
);
layerId = "F362B091-5F2C-44B8-BCF3-B70645E7FBBC";
name = Regular;
paths = (
{
closed = 1;
nodes = (
"19 499 LINE",
"171 0 LINE",
"248 0 LINE",
"403 499 LINE",
"344 499 LINE",
"211 58 LINE",
"77 499 LINE"
);
}
);
width = 427;
}
);
leftKerningGroup = v;
rightKerningGroup = v;
unicode = 03BD;
userData = {
com.typemytype.robofont.mark = (
0.6,
1,
0.694,
1
);
};
},
{
glyphname = numbersign;
layers = (
{
layerId = "F362B091-5F2C-44B8-BCF3-B70645E7FBBC";
name = Regular;
paths = (
{
closed = 1;
nodes = (
"391 243 LINE",
"431 413 LINE",
"577 413 LINE",
"577 469 LINE",
"443 469 LINE",
"497 698 LINE",
"443 698 LINE",
"389 469 LINE",
"271 469 LINE",
"324 698 LINE",
"269 698 LINE",
"216 469 LINE",
"30 469 LINE",
"30 413 LINE",
"202 413 LINE",
"163 243 LINE",
"30 243 LINE",
"30 189 LINE",
"150 189 LINE",
"106 0 LINE",
"161 0 LINE",
"205 189 LINE",
"323 189 LINE",
"279 0 LINE",
"334 0 LINE",
"378 189 LINE",
"577 189 LINE",
"577 243 LINE"
);
},
{
closed = 1;
nodes = (
"337 243 LINE",
"218 243 LINE",
"257 413 LINE",
"376 413 LINE"
);
}
);
width = 609;
}
);
unicode = 0023;
userData = {
com.typemytype.robofont.mark = (
0.6,
1,
0.694,
1
);
};
},
{
glyphname = o;
layers = (
{
anchors = (
{
name = bottom;
position = "{214, 0}";
},
{
name = center;
position = "{214, 300}";
},
{
name = ogonek;
position = "{214, 0}";
},
{
name = tonos;
position = "{214, 545}";
},
{
name = top;
position = "{214, 545}";
}
);
layerId = "F362B091-5F2C-44B8-BCF3-B70645E7FBBC";
name = Regular;
paths = (
{
closed = 1;
nodes = (
"398 184 CURVE SMOOTH",
"398 315 LINE SMOOTH",
"398 436 OFFCURVE",
"334 510 OFFCURVE",
"215 510 CURVE SMOOTH",
"96 510 OFFCURVE",
"29 442 OFFCURVE",
"29 315 CURVE SMOOTH",
"29 184 LINE SMOOTH",
"29 75 OFFCURVE",
"93 -10 OFFCURVE",
"217 -10 CURVE SMOOTH",
"340 -10 OFFCURVE",
"398 71 OFFCURVE"
);
},
{
closed = 1;
nodes = (
"342 315 CURVE SMOOTH",
"342 174 LINE SMOOTH",
"342 92 OFFCURVE",
"300 40 OFFCURVE",
"217 40 CURVE SMOOTH",
"136 40 OFFCURVE",
"85 94 OFFCURVE",
"85 174 CURVE SMOOTH",
"85 315 LINE SMOOTH",
"85 411 OFFCURVE",
"129 460 OFFCURVE",
"217 460 CURVE SMOOTH",
"303 460 OFFCURVE",
"342 411 OFFCURVE"
);
}
);
width = 429;
}
);
leftKerningGroup = o;
rightKerningGroup = o;
unicode = 006F;
userData = {
com.typemytype.robofont.mark = (
0.6,
1,
0.694,
1
);
};
},
{
glyphname = oe;
layers = (
{
layerId = "F362B091-5F2C-44B8-BCF3-B70645E7FBBC";
name = Regular;
paths = (
{
closed = 1;
nodes = (
"405 133 CURVE SMOOTH",
"405 195 LINE",
"709 211 LINE",
"709 341 LINE SMOOTH",
"709 392 OFFCURVE",
"693 432 OFFCURVE",
"666 461 CURVE SMOOTH",
"635 492 OFFCURVE",
"590 508 OFFCURVE",
"533 508 CURVE SMOOTH",
"483 508 OFFCURVE",
"442 496 OFFCURVE",
"411 473 CURVE SMOOTH",
"394 461 OFFCURVE",
"381 447 OFFCURVE",
"371 429 CURVE",
"342 481 OFFCURVE",
"290 510 OFFCURVE",
"215 510 CURVE SMOOTH",
"96 510 OFFCURVE",
"29 442 OFFCURVE",
"29 315 CURVE SMOOTH",
"29 184 LINE SMOOTH",
"29 75 OFFCURVE",
"93 -10 OFFCURVE",
"217 -10 CURVE SMOOTH",
"286 -10 OFFCURVE",
"335 15 OFFCURVE",
"363 58 CURVE",
"370 45 OFFCURVE",
"380 33 OFFCURVE",
"390 24 CURVE SMOOTH",
"431 -13 OFFCURVE",
"491 -12 OFFCURVE",
"521 -12 CURVE SMOOTH",
"571 -11 OFFCURVE",
"633 4 OFFCURVE",
"683 35 CURVE",
"661 78 LINE",
"611 51 OFFCURVE",
"565 36 OFFCURVE",
"516 36 CURVE SMOOTH",
"497 36 OFFCURVE",
"456 36 OFFCURVE",
"431 63 CURVE",
"415 77 OFFCURVE",
"405 99 OFFCURVE"
);
},
{
closed = 1;
nodes = (
"342 315 CURVE SMOOTH",
"342 174 LINE SMOOTH",
"342 92 OFFCURVE",
"300 40 OFFCURVE",
"217 40 CURVE SMOOTH",
"136 40 OFFCURVE",
"85 94 OFFCURVE",
"85 174 CURVE SMOOTH",
"85 315 LINE SMOOTH",
"85 411 OFFCURVE",
"129 460 OFFCURVE",
"217 460 CURVE SMOOTH",
"303 460 OFFCURVE",
"342 411 OFFCURVE"
);
},
{
closed = 1;
nodes = (
"653 348 CURVE SMOOTH",
"653 261 LINE",
"405 250 LINE",
"405 337 LINE SMOOTH",
"405 378 OFFCURVE",
"417 408 OFFCURVE",
"439 429 CURVE SMOOTH",
"462 450 OFFCURVE",
"494 461 OFFCURVE",
"532 461 CURVE SMOOTH",
"565 461 OFFCURVE",
"599 454 OFFCURVE",
"630 418 CURVE SMOOTH",
"645 399 OFFCURVE",
"653 377 OFFCURVE"
);
}
);
width = 739;
}
);
unicode = 0153;
userData = {
com.typemytype.robofont.mark = (
0.6,
1,
0.694,
1
);
};
},
{
glyphname = omega;
layers = (
{
anchors = (
{
name = bottom;
position = "{297, 0}";
},
{
name = center;
position = "{297, 300}";
},
{
name = ogonek;
position = "{297, 0}";
},
{
name = tonos;
position = "{297, 545}";
},
{
name = top;
position = "{297, 545}";
}
);
layerId = "F362B091-5F2C-44B8-BCF3-B70645E7FBBC";
name = Regular;
paths = (
{
closed = 1;
nodes = (
"455 497 CURVE",
"423 453 LINE",
"478 437 OFFCURVE",
"505 394 OFFCURVE",
"505 324 CURVE SMOOTH",
"505 176 LINE SMOOTH",
"505 84 OFFCURVE",
"461 40 OFFCURVE",
"404 40 CURVE SMOOTH",
"348 40 OFFCURVE",
"326 77 OFFCURVE",
"326 156 CURVE SMOOTH",
"326 296 LINE",
"269 296 LINE",
"269 156 LINE",
"265 77 OFFCURVE",
"245 40 OFFCURVE",
"188 40 CURVE SMOOTH",
"132 40 OFFCURVE",
"86 84 OFFCURVE",
"86 176 CURVE SMOOTH",
"86 324 LINE SMOOTH",
"86 394 OFFCURVE",
"115 437 OFFCURVE",
"170 453 CURVE",
"139 497 LINE",
"67 471 OFFCURVE",
"30 409 OFFCURVE",
"30 315 CURVE SMOOTH",
"30 186 LINE SMOOTH",
"30 54 OFFCURVE",
"85 -13 OFFCURVE",
"192 -13 CURVE SMOOTH",
"237 -13 OFFCURVE",
"272 4 OFFCURVE",
"297 40 CURVE",
"319 4 OFFCURVE",
"354 -13 OFFCURVE",
"402 -13 CURVE SMOOTH",
"509 -13 OFFCURVE",
"561 54 OFFCURVE",
"561 186 CURVE SMOOTH",
"561 315 LINE SMOOTH",
"561 409 OFFCURVE",
"526 471 OFFCURVE"
);
}
);
width = 594;
}
);
leftKerningGroup = omega;
rightKerningGroup = omega;
unicode = 03C9;
userData = {
com.typemytype.robofont.mark = (
0.6,
1,
0.694,
1
);
};
},
{
glyphname = one;
layers = (
{
layerId = "F362B091-5F2C-44B8-BCF3-B70645E7FBBC";
name = Regular;
paths = (
{
closed = 1;
nodes = (
"13 620 CURVE",
"27 581 LINE",
"60 585 OFFCURVE",
"115 613 OFFCURVE",
"139 632 CURVE",
"139 0 LINE",
"192 0 LINE",
"192 698 LINE",
"138 698 LINE",
"91 641 OFFCURVE",
"13 620 OFFCURVE"
);
}
);
width = 235;
}
);
unicode = 0031;
userData = {
com.typemytype.robofont.mark = (
0.6,
1,
0.694,
1
);
};
},
{
glyphname = ordfeminine;
layers = (
{
layerId = "F362B091-5F2C-44B8-BCF3-B70645E7FBBC";
name = Regular;
paths = (
{
closed = 1;
nodes = (
"292 389 CURVE",
"292 444 OFFCURVE",
"292 498 OFFCURVE",
"292 553 CURVE SMOOTH",
"292 614 OFFCURVE",
"277 653 OFFCURVE",
"249 676 CURVE SMOOTH",
"222 698 OFFCURVE",
"182 707 OFFCURVE",
"127 707 CURVE",
"123 664 LINE",
"160 664 OFFCURVE",
"192 661 OFFCURVE",
"209 649 CURVE",
"232 635 OFFCURVE",
"240 614 OFFCURVE",
"240 591 CURVE",
"196 616 OFFCURVE",
"159 628 OFFCURVE",
"128 629 CURVE SMOOTH",
"60 631 OFFCURVE",
"23 583 OFFCURVE",
"23 517 CURVE SMOOTH",
"23 410 OFFCURVE",
"84 380 OFFCURVE",
"171 378 CURVE SMOOTH",
"207 378 OFFCURVE",
"248 383 OFFCURVE"
);
},
{
closed = 1;
nodes = (
"238 541 CURVE",
"238 428 LINE",
"238 428 OFFCURVE",
"156 416 OFFCURVE",
"118 432 CURVE SMOOTH",
"86 447 OFFCURVE",
"70 472 OFFCURVE",
"70 512 CURVE SMOOTH",
"70 563 OFFCURVE",
"91 582 OFFCURVE",
"123 582 CURVE SMOOTH",
"155 582 OFFCURVE",
"198 565 OFFCURVE"
);
}
);
width = 328;
}
);
unicode = 00AA;
userData = {
com.typemytype.robofont.mark = (
0.6,
1,
0.694,
1
);
};
},
{
glyphname = oslash;
layers = (
{
layerId = "F362B091-5F2C-44B8-BCF3-B70645E7FBBC";
name = Regular;
paths = (
{
closed = 1;
nodes = (
"397 184 CURVE SMOOTH",
"397 315 LINE SMOOTH",
"397 381 OFFCURVE",
"377 432 OFFCURVE",
"340 466 CURVE",
"392 585 LINE",
"334 585 LINE",
"294 495 LINE",
"271 505 OFFCURVE",
"245 510 OFFCURVE",
"214 510 CURVE SMOOTH",
"95 510 OFFCURVE",
"28 442 OFFCURVE",
"28 315 CURVE SMOOTH",
"28 184 LINE SMOOTH",
"28 119 OFFCURVE",
"50 64 OFFCURVE",
"94 29 CURVE",
"53 -66 LINE",
"109 -66 LINE",
"139 2 LINE",
"161 -6 OFFCURVE",
"186 -10 OFFCURVE",
"216 -10 CURVE SMOOTH",
"339 -10 OFFCURVE",
"397 71 OFFCURVE"
);
},
{
closed = 1;
nodes = (
"84 174 CURVE SMOOTH",
"84 315 LINE SMOOTH",
"84 411 OFFCURVE",
"128 460 OFFCURVE",
"216 460 CURVE SMOOTH",
"239 460 OFFCURVE",
"258 457 OFFCURVE",
"274 449 CURVE",
"116 80 LINE",
"95 103 OFFCURVE",
"84 135 OFFCURVE"
);
},
{
closed = 1;
nodes = (
"340 315 CURVE SMOOTH",
"340 174 LINE SMOOTH",
"340 92 OFFCURVE",
"299 40 OFFCURVE",
"216 40 CURVE SMOOTH",
"195 40 OFFCURVE",
"175 43 OFFCURVE",
"159 50 CURVE",
"317 414 LINE",
"333 389 OFFCURVE",
"340 356 OFFCURVE"
);
}
);
width = 432;
}
);
unicode = 00F8;
userData = {
com.typemytype.robofont.mark = (
0.6,
1,
0.694,
1
);
};
},
{
glyphname = p;
layers = (
{
layerId = "F362B091-5F2C-44B8-BCF3-B70645E7FBBC";
name = Regular;
paths = (
{
closed = 1;
nodes = (
"408 175 CURVE SMOOTH",
"408 345 LINE SMOOTH",
"408 450 OFFCURVE",
"348 513 OFFCURVE",
"238 508 CURVE SMOOTH",
"189 506 OFFCURVE",
"139 487 OFFCURVE",
"96 451 CURVE",
"96 498 LINE",
"39 498 LINE",
"39 -199 LINE",
"96 -212 LINE",
"96 61 LINE",
"119 20 OFFCURVE",
"176 -12 OFFCURVE",
"238 -12 CURVE SMOOTH",
"349 -12 OFFCURVE",
"408 53 OFFCURVE"
);
},
{
closed = 1;
nodes = (
"351 342 CURVE SMOOTH",
"351 166 LINE SMOOTH",
"351 82 OFFCURVE",
"309 40 OFFCURVE",
"235 40 CURVE SMOOTH",
"158 40 OFFCURVE",
"96 88 OFFCURVE",
"96 173 CURVE SMOOTH",
"96 392 LINE",
"126 433 OFFCURVE",
"182 454 OFFCURVE",
"226 458 CURVE SMOOTH",
"290 463 OFFCURVE",
"351 432 OFFCURVE"
);
}
);
width = 441;
}
);
leftKerningGroup = p;
rightKerningGroup = p;
unicode = 0070;
userData = {
com.typemytype.robofont.mark = (
0.6,
1,
0.694,
1
);
};
},
{
glyphname = paragraph;
layers = (
{
layerId = "F362B091-5F2C-44B8-BCF3-B70645E7FBBC";
name = Regular;
paths = (
{
closed = 1;
nodes = (
"227 246 CURVE SMOOTH",
"407 246 LINE",
"407 1 LINE",
"462 1 LINE",
"462 650 LINE",
"521 649 LINE",
"521 1 LINE",
"577 1 LINE",
"577 700 LINE",
"227 700 LINE SMOOTH",
"100 700 OFFCURVE",
"30 645 OFFCURVE",
"30 474 CURVE SMOOTH",
"30 308 OFFCURVE",
"96 246 OFFCURVE"
);
},
{
closed = 1;
nodes = (
"223 647 CURVE SMOOTH",
"407 647 LINE",
"407 300 LINE",
"223 300 LINE SMOOTH",
"147 300 OFFCURVE",
"86 322 OFFCURVE",
"86 474 CURVE SMOOTH",
"86 615 OFFCURVE",
"144 647 OFFCURVE"
);
}
);
width = 620;
}
);
unicode = 00B6;
userData = {
com.typemytype.robofont.mark = (
0.6,
1,
0.694,
1
);
};
},
{
glyphname = parenleft;
layers = (
{
layerId = "F362B091-5F2C-44B8-BCF3-B70645E7FBBC";
name = Regular;
paths = (
{
closed = 1;
nodes = (
"164 778 CURVE",
"146 815 LINE",
"76 777 OFFCURVE",
"41 725 OFFCURVE",
"41 625 CURVE SMOOTH",
"41 70 LINE SMOOTH",
"41 -58 OFFCURVE",
"95 -81 OFFCURVE",
"146 -119 CURVE",
"164 -81 LINE",
"119 -48 OFFCURVE",
"97 -1 OFFCURVE",
"97 62 CURVE SMOOTH",
"97 253 OFFCURVE",
"97 443 OFFCURVE",
"97 635 CURVE SMOOTH",
"97 697 OFFCURVE",
"119 745 OFFCURVE"
);
}
);
width = 181;
}
);
unicode = 0028;
userData = {
com.typemytype.robofont.mark = (
0.6,
1,
0.694,
1
);
};
},
{
glyphname = parenright;
layers = (
{
layerId = "F362B091-5F2C-44B8-BCF3-B70645E7FBBC";
name = Regular;
paths = (
{
closed = 1;
nodes = (
"17 778 CURVE",
"36 815 LINE",
"105 777 OFFCURVE",
"140 725 OFFCURVE",
"140 625 CURVE SMOOTH",
"140 70 LINE SMOOTH",
"140 -58 OFFCURVE",
"87 -81 OFFCURVE",
"36 -119 CURVE",
"17 -81 LINE",
"62 -48 OFFCURVE",
"84 -1 OFFCURVE",
"84 62 CURVE SMOOTH",
"84 253 OFFCURVE",
"84 443 OFFCURVE",
"84 635 CURVE SMOOTH",
"84 697 OFFCURVE",
"62 745 OFFCURVE"
);
}
);
width = 182;
}
);
leftKerningGroup = Racute;
rightKerningGroup = Racute;
unicode = 0029;
userData = {
com.typemytype.robofont.mark = (
0.6,
1,
0.694,
1
);
};
},
{
glyphname = percent;
layers = (
{
layerId = "F362B091-5F2C-44B8-BCF3-B70645E7FBBC";
name = Regular;
paths = (
{
closed = 1;
nodes = (
"48 0 LINE",
"115 0 LINE",
"649 698 LINE",
"585 698 LINE"
);
},
{
closed = 1;
nodes = (
"175 712 CURVE SMOOTH",
"94 712 OFFCURVE",
"29 647 OFFCURVE",
"29 566 CURVE SMOOTH",
"29 486 OFFCURVE",
"94 421 OFFCURVE",
"175 421 CURVE SMOOTH",
"255 421 OFFCURVE",
"320 486 OFFCURVE",
"320 566 CURVE SMOOTH",
"320 647 OFFCURVE",
"255 712 OFFCURVE"
);
},
{
closed = 1;
nodes = (
"175 661 CURVE SMOOTH",
"226 661 OFFCURVE",
"269 618 OFFCURVE",
"269 566 CURVE SMOOTH",
"269 515 OFFCURVE",
"226 472 OFFCURVE",
"175 472 CURVE SMOOTH",
"123 472 OFFCURVE",
"80 515 OFFCURVE",
"80 566 CURVE SMOOTH",
"80 618 OFFCURVE",
"123 661 OFFCURVE"
);
},
{
closed = 1;
nodes = (
"534 276 CURVE SMOOTH",
"455 276 OFFCURVE",
"390 211 OFFCURVE",
"390 131 CURVE SMOOTH",
"390 51 OFFCURVE",
"455 -14 OFFCURVE",
"534 -14 CURVE SMOOTH",
"615 -14 OFFCURVE",
"679 51 OFFCURVE",
"679 131 CURVE SMOOTH",
"679 211 OFFCURVE",
"615 276 OFFCURVE"
);
},
{
closed = 1;
nodes = (
"534 226 CURVE SMOOTH",
"587 226 OFFCURVE",
"629 184 OFFCURVE",
"629 131 CURVE SMOOTH",
"629 79 OFFCURVE",
"587 37 OFFCURVE",
"534 37 CURVE SMOOTH",
"483 37 OFFCURVE",
"441 79 OFFCURVE",
"441 131 CURVE SMOOTH",
"441 184 OFFCURVE",
"483 226 OFFCURVE"
);
}
);
width = 711;
}
);
unicode = 0025;
userData = {
com.typemytype.robofont.mark = (
0.6,
1,
0.694,
1
);
};
},
{
glyphname = period;
layers = (
{
layerId = "F362B091-5F2C-44B8-BCF3-B70645E7FBBC";
name = Regular;
paths = (
{
closed = 1;
nodes = (
"68 57 CURVE SMOOTH",
"50 57 OFFCURVE",
"35 43 OFFCURVE",
"35 24 CURVE SMOOTH",
"35 5 OFFCURVE",
"50 -9 OFFCURVE",
"68 -9 CURVE SMOOTH",
"86 -9 OFFCURVE",
"102 5 OFFCURVE",
"102 24 CURVE SMOOTH",
"102 43 OFFCURVE",
"86 57 OFFCURVE"
);
}
);
width = 136;
}
);
unicode = 002E;
userData = {
com.typemytype.robofont.mark = (
0.6,
1,
0.694,
1
);
};
},
{
glyphname = perthousand;
layers = (
{
layerId = "F362B091-5F2C-44B8-BCF3-B70645E7FBBC";
name = Regular;
paths = (
{
closed = 1;
nodes = (
"49 0 LINE",
"117 0 LINE",
"650 698 LINE",
"586 698 LINE"
);
},
{
closed = 1;
nodes = (
"175 712 CURVE SMOOTH",
"94 712 OFFCURVE",
"29 647 OFFCURVE",
"29 566 CURVE SMOOTH",
"29 486 OFFCURVE",
"94 421 OFFCURVE",
"175 421 CURVE SMOOTH",
"254 421 OFFCURVE",
"320 486 OFFCURVE",
"320 566 CURVE SMOOTH",
"320 647 OFFCURVE",
"254 712 OFFCURVE"
);
},
{
closed = 1;
nodes = (
"175 661 CURVE SMOOTH",
"226 661 OFFCURVE",
"268 618 OFFCURVE",
"268 566 CURVE SMOOTH",
"268 515 OFFCURVE",
"226 472 OFFCURVE",
"175 472 CURVE SMOOTH",
"122 472 OFFCURVE",
"80 515 OFFCURVE",
"80 566 CURVE SMOOTH",
"80 618 OFFCURVE",
"122 661 OFFCURVE"
);
},
{
closed = 1;
nodes = (
"534 276 CURVE SMOOTH",
"454 276 OFFCURVE",
"389 211 OFFCURVE",
"389 131 CURVE SMOOTH",
"389 51 OFFCURVE",
"454 -14 OFFCURVE",
"534 -14 CURVE SMOOTH",
"615 -14 OFFCURVE",
"679 51 OFFCURVE",
"679 131 CURVE SMOOTH",
"679 211 OFFCURVE",
"615 276 OFFCURVE"
);
},
{
closed = 1;
nodes = (
"534 226 CURVE SMOOTH",
"586 226 OFFCURVE",
"629 184 OFFCURVE",
"629 131 CURVE SMOOTH",
"629 79 OFFCURVE",
"586 37 OFFCURVE",
"534 37 CURVE SMOOTH",
"483 37 OFFCURVE",
"440 79 OFFCURVE",
"440 131 CURVE SMOOTH",
"440 184 OFFCURVE",
"483 226 OFFCURVE"
);
},
{
closed = 1;
nodes = (
"880 276 CURVE SMOOTH",
"799 276 OFFCURVE",
"735 211 OFFCURVE",
"735 131 CURVE SMOOTH",
"735 51 OFFCURVE",
"799 -14 OFFCURVE",
"880 -14 CURVE SMOOTH",
"960 -14 OFFCURVE",
"1025 51 OFFCURVE",
"1025 131 CURVE SMOOTH",
"1025 211 OFFCURVE",
"960 276 OFFCURVE"
);
},
{
closed = 1;
nodes = (
"880 226 CURVE SMOOTH",
"931 226 OFFCURVE",
"973 184 OFFCURVE",
"973 131 CURVE SMOOTH",
"973 79 OFFCURVE",
"931 37 OFFCURVE",
"880 37 CURVE SMOOTH",
"827 37 OFFCURVE",
"785 79 OFFCURVE",
"785 131 CURVE SMOOTH",
"785 184 OFFCURVE",
"827 226 OFFCURVE"
);
}
);
width = 1055;
}
);
unicode = 2030;
userData = {
com.typemytype.robofont.mark = (
0.6,
1,
0.694,
1
);
};
},
{
glyphname = phi;
layers = (
{
layerId = "F362B091-5F2C-44B8-BCF3-B70645E7FBBC";
name = Regular;
paths = (
{
closed = 1;
nodes = (
"29 313 CURVE SMOOTH",
"29 188 LINE SMOOTH",
"29 68 OFFCURVE",
"91 -7 OFFCURVE",
"218 -7 CURVE SMOOTH",
"261 -7 LINE",
"261 -202 LINE",
"318 -216 LINE",
"318 -7 LINE",
"368 -7 LINE SMOOTH",
"495 -7 OFFCURVE",
"554 68 OFFCURVE",
"554 188 CURVE SMOOTH",
"554 306 LINE SMOOTH",
"554 427 OFFCURVE",
"484 506 OFFCURVE",
"369 506 CURVE SMOOTH",
"306 506 OFFCURVE",
"266 466 OFFCURVE",
"261 399 CURVE",
"261 43 LINE",
"218 43 LINE SMOOTH",
"138 43 OFFCURVE",
"85 90 OFFCURVE",
"85 178 CURVE SMOOTH",
"85 313 LINE SMOOTH",
"85 394 OFFCURVE",
"116 442 OFFCURVE",
"175 457 CURVE",
"146 502 LINE",
"69 476 OFFCURVE",
"29 414 OFFCURVE"
);
},
{
closed = 1;
nodes = (
"368 43 CURVE SMOOTH",
"318 43 LINE",
"318 391 LINE SMOOTH",
"318 431 OFFCURVE",
"338 453 OFFCURVE",
"377 453 CURVE SMOOTH",
"438 453 OFFCURVE",
"501 404 OFFCURVE",
"501 316 CURVE SMOOTH",
"501 178 LINE SMOOTH",
"501 90 OFFCURVE",
"448 43 OFFCURVE"
);
}
);
width = 585;
}
);
leftKerningGroup = phi;
rightKerningGroup = phi;
unicode = 03C6;
userData = {
com.typemytype.robofont.mark = (
0.6,
1,
0.694,
1
);
};
},
{
glyphname = pi;
layers = (
{
layerId = "F362B091-5F2C-44B8-BCF3-B70645E7FBBC";
name = Regular;
paths = (
{
closed = 1;
nodes = (
"413 69 CURVE",
"413 498 LINE",
"38 498 LINE",
"38 0 LINE",
"94 0 LINE",
"94 452 LINE",
"359 452 LINE",
"358 78 LINE",
"358 10 OFFCURVE",
"416 -6 OFFCURVE",
"416 -6 CURVE",
"443 26 LINE",
"427 36 OFFCURVE",
"416 50 OFFCURVE"
);
}
);
width = 472;
}
);
leftKerningGroup = mu;
rightKerningGroup = mu;
unicode = 03C0;
userData = {
com.typemytype.robofont.mark = (
0.6,
1,
0.694,
1
);
};
},
{
glyphname = plus;
layers = (
{
layerId = "F362B091-5F2C-44B8-BCF3-B70645E7FBBC";
name = Regular;
paths = (
{
closed = 1;
nodes = (
"216 528 LINE",
"161 528 LINE",
"161 397 LINE",
"28 397 LINE",
"28 342 LINE",
"161 342 LINE",
"161 209 LINE",
"216 209 LINE",
"216 342 LINE",
"347 342 LINE",
"347 397 LINE",
"216 397 LINE"
);
}
);
width = 378;
}
);
unicode = 002B;
userData = {
com.typemytype.robofont.mark = (
0.6,
1,
0.694,
1
);
};
},
{
glyphname = plusminus;
layers = (
{
layerId = "F362B091-5F2C-44B8-BCF3-B70645E7FBBC";
name = Regular;
paths = (
{
closed = 1;
nodes = (
"31 377 LINE",
"164 377 LINE",
"164 246 LINE",
"30 246 LINE",
"30 189 LINE",
"349 189 LINE",
"349 246 LINE",
"219 246 LINE",
"219 377 LINE",
"350 377 LINE",
"350 431 LINE",
"219 431 LINE",
"219 563 LINE",
"164 563 LINE",
"164 431 LINE",
"31 431 LINE"
);
}
);
width = 382;
}
);
unicode = 00B1;
userData = {
com.typemytype.robofont.mark = (
0.6,
1,
0.694,
1
);
};
},
{
glyphname = psi;
layers = (
{
layerId = "F362B091-5F2C-44B8-BCF3-B70645E7FBBC";
name = Regular;
paths = (
{
closed = 1;
nodes = (
"526 504 CURVE",
"467 487 LINE",
"498 462 OFFCURVE",
"502 428 OFFCURVE",
"502 386 CURVE SMOOTH",
"502 178 LINE SMOOTH",
"502 90 OFFCURVE",
"450 43 OFFCURVE",
"370 43 CURVE SMOOTH",
"326 43 LINE",
"326 498 LINE",
"269 498 LINE",
"269 43 LINE",
"219 43 LINE SMOOTH",
"140 43 OFFCURVE",
"86 90 OFFCURVE",
"86 178 CURVE SMOOTH",
"86 498 LINE",
"33 498 LINE",
"33 188 LINE SMOOTH",
"33 68 OFFCURVE",
"93 -7 OFFCURVE",
"219 -7 CURVE SMOOTH",
"269 -7 LINE",
"269 -202 LINE",
"326 -216 LINE",
"326 -7 LINE",
"370 -7 LINE SMOOTH",
"496 -7 OFFCURVE",
"558 68 OFFCURVE",
"558 188 CURVE SMOOTH",
"558 386 LINE SMOOTH",
"558 436 OFFCURVE",
"554 471 OFFCURVE"
);
}
);
width = 592;
}
);
leftKerningGroup = phi;
rightKerningGroup = phi;
unicode = 03C8;
userData = {
com.typemytype.robofont.mark = (
0.6,
1,
0.694,
1
);
};
},
{
glyphname = q;
layers = (
{
layerId = "F362B091-5F2C-44B8-BCF3-B70645E7FBBC";
name = Regular;
paths = (
{
closed = 1;
nodes = (
"343 62 CURVE",
"343 -198 LINE",
"400 -211 LINE",
"400 498 LINE",
"343 498 LINE",
"343 452 LINE",
"299 488 OFFCURVE",
"249 507 OFFCURVE",
"201 509 CURVE SMOOTH",
"92 514 OFFCURVE",
"31 451 OFFCURVE",
"31 345 CURVE SMOOTH",
"31 176 LINE SMOOTH",
"31 54 OFFCURVE",
"90 -11 OFFCURVE",
"202 -11 CURVE SMOOTH",
"262 -11 OFFCURVE",
"320 21 OFFCURVE"
);
},
{
closed = 1;
nodes = (
"343 393 CURVE",
"343 173 LINE SMOOTH",
"343 88 OFFCURVE",
"281 41 OFFCURVE",
"205 41 CURVE SMOOTH",
"129 41 OFFCURVE",
"87 84 OFFCURVE",
"87 167 CURVE SMOOTH",
"87 343 LINE SMOOTH",
"87 433 OFFCURVE",
"150 463 OFFCURVE",
"213 459 CURVE SMOOTH",
"257 455 OFFCURVE",
"314 435 OFFCURVE"
);
}
);
width = 440;
}
);
leftKerningGroup = g;
rightKerningGroup = g;
unicode = 0071;
userData = {
com.typemytype.robofont.mark = (
0.6,
1,
0.694,
1
);
};
},
{
glyphname = question;
layers = (
{
layerId = "F362B091-5F2C-44B8-BCF3-B70645E7FBBC";
name = Regular;
paths = (
{
closed = 1;
nodes = (
"25 530 CURVE",
"82 530 LINE",
"82 616 OFFCURVE",
"142 656 OFFCURVE",
"203 654 CURVE SMOOTH",
"261 652 OFFCURVE",
"320 612 OFFCURVE",
"320 533 CURVE SMOOTH",
"320 468 OFFCURVE",
"280 431 OFFCURVE",
"242 388 CURVE SMOOTH",
"205 345 OFFCURVE",
"165 299 OFFCURVE",
"165 211 CURVE SMOOTH",
"165 119 LINE",
"216 119 LINE",
"216 147 OFFCURVE",
"216 177 OFFCURVE",
"216 206 CURVE SMOOTH",
"216 289 OFFCURVE",
"254 320 OFFCURVE",
"293 365 CURVE SMOOTH",
"337 417 OFFCURVE",
"375 462 OFFCURVE",
"375 536 CURVE SMOOTH",
"375 642 OFFCURVE",
"291 705 OFFCURVE",
"203 707 CURVE SMOOTH",
"115 708 OFFCURVE",
"25 652 OFFCURVE"
);
},
{
closed = 1;
nodes = (
"192 57 CURVE SMOOTH",
"173 57 OFFCURVE",
"157 43 OFFCURVE",
"157 24 CURVE SMOOTH",
"157 5 OFFCURVE",
"173 -9 OFFCURVE",
"192 -9 CURVE SMOOTH",
"209 -9 OFFCURVE",
"225 5 OFFCURVE",
"225 24 CURVE SMOOTH",
"225 43 OFFCURVE",
"209 57 OFFCURVE"
);
}
);
width = 404;
}
);
unicode = 003F;
userData = {
com.typemytype.robofont.mark = (
0.6,
1,
0.694,
1
);
};
},
{
glyphname = questiondown;
layers = (
{
layerId = "F362B091-5F2C-44B8-BCF3-B70645E7FBBC";
name = Regular;
paths = (
{
closed = 1;
nodes = (
"378 161 CURVE",
"322 161 LINE",
"322 76 OFFCURVE",
"262 35 OFFCURVE",
"201 37 CURVE SMOOTH",
"142 38 OFFCURVE",
"84 80 OFFCURVE",
"84 157 CURVE SMOOTH",
"84 224 OFFCURVE",
"124 260 OFFCURVE",
"162 302 CURVE SMOOTH",
"199 345 OFFCURVE",
"239 393 OFFCURVE",
"239 480 CURVE SMOOTH",
"239 572 LINE",
"187 572 LINE",
"187 543 OFFCURVE",
"187 514 OFFCURVE",
"187 485 CURVE SMOOTH",
"187 402 OFFCURVE",
"150 371 OFFCURVE",
"111 326 CURVE SMOOTH",
"67 275 OFFCURVE",
"29 229 OFFCURVE",
"29 155 CURVE SMOOTH",
"29 48 OFFCURVE",
"113 -14 OFFCURVE",
"201 -15 CURVE SMOOTH",
"289 -18 OFFCURVE",
"378 38 OFFCURVE"
);
},
{
closed = 1;
nodes = (
"212 701 CURVE SMOOTH",
"194 701 OFFCURVE",
"179 685 OFFCURVE",
"179 667 CURVE SMOOTH",
"179 648 OFFCURVE",
"194 634 OFFCURVE",
"212 634 CURVE SMOOTH",
"231 634 OFFCURVE",
"246 648 OFFCURVE",
"246 667 CURVE SMOOTH",
"246 685 OFFCURVE",
"231 701 OFFCURVE"
);
}
);
width = 408;
}
);
unicode = 00BF;
userData = {
com.typemytype.robofont.mark = (
0.6,
1,
0.694,
1
);
};
},
{
glyphname = quotedbl;
layers = (
{
layerId = "F362B091-5F2C-44B8-BCF3-B70645E7FBBC";
name = Regular;
paths = (
{
closed = 1;
nodes = (
"166 701 CURVE",
"180 586 LINE",
"220 586 LINE",
"234 701 LINE",
"234 748 OFFCURVE",
"166 748 OFFCURVE"
);
},
{
closed = 1;
nodes = (
"31 701 CURVE",
"45 586 LINE",
"84 586 LINE",
"99 701 LINE",
"99 748 OFFCURVE",
"31 748 OFFCURVE"
);
}
);
width = 266;
}
);
unicode = 0022;
userData = {
com.typemytype.robofont.mark = (
0.6,
1,
0.694,
1
);
};
},
{
glyphname = quotedblbase;
layers = (
{
layerId = "F362B091-5F2C-44B8-BCF3-B70645E7FBBC";
name = Regular;
paths = (
{
closed = 1;
nodes = (
"34 -65 CURVE",
"51 -77 LINE",
"71 -59 OFFCURVE",
"103 -20 OFFCURVE",
"104 43 CURVE",
"103 63 OFFCURVE",
"89 76 OFFCURVE",
"70 76 CURVE SMOOTH",
"51 76 OFFCURVE",
"37 62 OFFCURVE",
"37 43 CURVE SMOOTH",
"37 26 OFFCURVE",
"49 13 OFFCURVE",
"64 10 CURVE",
"62 -11 OFFCURVE",
"54 -39 OFFCURVE"
);
},
{
closed = 1;
nodes = (
"213 -65 CURVE",
"231 -77 LINE",
"250 -59 OFFCURVE",
"283 -20 OFFCURVE",
"283 43 CURVE SMOOTH",
"283 63 OFFCURVE",
"268 76 OFFCURVE",
"249 76 CURVE SMOOTH",
"232 76 OFFCURVE",
"216 62 OFFCURVE",
"216 43 CURVE SMOOTH",
"216 26 OFFCURVE",
"228 13 OFFCURVE",
"244 10 CURVE",
"242 -11 OFFCURVE",
"234 -39 OFFCURVE"
);
}
);
width = 318;
}
);
leftKerningGroup = comma;
rightKerningGroup = comma;
unicode = 201E;
userData = {
com.typemytype.robofont.mark = (
0.6,
1,
0.694,
1
);
};
},
{
glyphname = quotedblleft;
layers = (
{
layerId = "F362B091-5F2C-44B8-BCF3-B70645E7FBBC";
name = Regular;
paths = (
{
closed = 1;
nodes = (
"276 700 CURVE",
"259 712 LINE",
"239 694 OFFCURVE",
"206 654 OFFCURVE",
"206 592 CURVE SMOOTH",
"206 572 OFFCURVE",
"221 559 OFFCURVE",
"239 559 CURVE SMOOTH",
"258 559 OFFCURVE",
"273 573 OFFCURVE",
"273 592 CURVE SMOOTH",
"273 608 OFFCURVE",
"261 621 OFFCURVE",
"244 625 CURVE",
"248 646 OFFCURVE",
"254 673 OFFCURVE"
);
},
{
closed = 1;
nodes = (
"97 700 CURVE",
"79 712 LINE",
"60 694 OFFCURVE",
"27 654 OFFCURVE",
"27 592 CURVE SMOOTH",
"27 572 OFFCURVE",
"42 559 OFFCURVE",
"60 559 CURVE SMOOTH",
"78 559 OFFCURVE",
"94 573 OFFCURVE",
"94 592 CURVE SMOOTH",
"94 608 OFFCURVE",
"82 621 OFFCURVE",
"65 625 CURVE",
"67 646 OFFCURVE",
"75 673 OFFCURVE"
);
}
);
width = 306;
}
);
leftKerningGroup = quotedblleft;
rightKerningGroup = quotedblleft;
unicode = 201C;
userData = {
com.typemytype.robofont.mark = (
0.6,
1,
0.694,
1
);
};
},
{
glyphname = quotedblright;
layers = (
{
layerId = "F362B091-5F2C-44B8-BCF3-B70645E7FBBC";
name = Regular;
paths = (
{
closed = 1;
nodes = (
"29 557 CURVE",
"47 544 LINE",
"67 562 OFFCURVE",
"99 602 OFFCURVE",
"100 664 CURVE",
"99 684 OFFCURVE",
"84 698 OFFCURVE",
"66 698 CURVE SMOOTH",
"47 698 OFFCURVE",
"33 683 OFFCURVE",
"33 664 CURVE SMOOTH",
"33 648 OFFCURVE",
"45 635 OFFCURVE",
"60 631 CURVE",
"58 610 OFFCURVE",
"50 583 OFFCURVE"
);
},
{
closed = 1;
nodes = (
"209 557 CURVE",
"226 544 LINE",
"246 562 OFFCURVE",
"279 602 OFFCURVE",
"279 664 CURVE SMOOTH",
"279 684 OFFCURVE",
"264 698 OFFCURVE",
"245 698 CURVE SMOOTH",
"228 698 OFFCURVE",
"212 683 OFFCURVE",
"212 664 CURVE SMOOTH",
"212 648 OFFCURVE",
"224 635 OFFCURVE",
"240 631 CURVE",
"237 610 OFFCURVE",
"230 583 OFFCURVE"
);
}
);
width = 307;
}
);
leftKerningGroup = comma;
rightKerningGroup = comma;
unicode = 201D;
userData = {
com.typemytype.robofont.mark = (
0.6,
1,
0.694,
1
);
};
},
{
glyphname = quoteleft;
layers = (
{
layerId = "F362B091-5F2C-44B8-BCF3-B70645E7FBBC";
name = Regular;
paths = (
{
closed = 1;
nodes = (
"97 700 CURVE",
"79 712 LINE",
"60 694 OFFCURVE",
"27 654 OFFCURVE",
"27 592 CURVE SMOOTH",
"27 572 OFFCURVE",
"42 559 OFFCURVE",
"60 559 CURVE SMOOTH",
"78 559 OFFCURVE",
"94 573 OFFCURVE",
"94 592 CURVE SMOOTH",
"94 608 OFFCURVE",
"82 621 OFFCURVE",
"65 625 CURVE",
"68 646 OFFCURVE",
"75 673 OFFCURVE"
);
}
);
width = 127;
}
);
leftKerningGroup = quotedblleft;
rightKerningGroup = quotedblleft;
unicode = 2018;
userData = {
com.typemytype.robofont.mark = (
0.6,
1,
0.694,
1
);
};
},
{
glyphname = quoteright;
layers = (
{
layerId = "F362B091-5F2C-44B8-BCF3-B70645E7FBBC";
name = Regular;
paths = (
{
closed = 1;
nodes = (
"29 557 CURVE",
"47 544 LINE",
"67 562 OFFCURVE",
"100 602 OFFCURVE",
"100 664 CURVE SMOOTH",
"100 684 OFFCURVE",
"84 698 OFFCURVE",
"66 698 CURVE SMOOTH",
"48 698 OFFCURVE",
"33 683 OFFCURVE",
"33 664 CURVE SMOOTH",
"33 648 OFFCURVE",
"45 635 OFFCURVE",
"60 631 CURVE",
"58 610 OFFCURVE",
"50 583 OFFCURVE"
);
}
);
width = 128;
}
);
leftKerningGroup = comma;
rightKerningGroup = comma;
unicode = 2019;
userData = {
com.typemytype.robofont.mark = (
0.6,
1,
0.694,
1
);
};
},
{
glyphname = quotesinglbase;
layers = (
{
layerId = "F362B091-5F2C-44B8-BCF3-B70645E7FBBC";
name = Regular;
paths = (
{
closed = 1;
nodes = (
"34 -65 CURVE",
"51 -77 LINE",
"71 -59 OFFCURVE",
"103 -20 OFFCURVE",
"104 43 CURVE",
"103 63 OFFCURVE",
"89 76 OFFCURVE",
"70 76 CURVE SMOOTH",
"52 76 OFFCURVE",
"37 62 OFFCURVE",
"37 43 CURVE SMOOTH",
"37 26 OFFCURVE",
"49 13 OFFCURVE",
"64 10 CURVE",
"62 -11 OFFCURVE",
"54 -39 OFFCURVE"
);
}
);
width = 139;
}
);
unicode = 201A;
userData = {
com.typemytype.robofont.mark = (
0.6,
1,
0.694,
1
);
};
},
{
glyphname = quotesingle;
layers = (
{
layerId = "F362B091-5F2C-44B8-BCF3-B70645E7FBBC";
name = Regular;
paths = (
{
closed = 1;
nodes = (
"99 702 CURVE",
"112 587 LINE",
"152 587 LINE",
"166 702 LINE",
"166 748 OFFCURVE",
"99 748 OFFCURVE"
);
}
);
width = 266;
}
);
unicode = 0027;
userData = {
com.typemytype.robofont.mark = (
0.6,
1,
0.694,
1
);
};
},
{
glyphname = r;
layers = (
{
anchors = (
{
name = bottom;
position = "{166, 0}";
},
{
name = center;
position = "{166, 300}";
},
{
name = ogonek;
position = "{165, 0}";
},
{
name = tonos;
position = "{166, 545}";
},
{
name = top;
position = "{166, 545}";
}
);
layerId = "F362B091-5F2C-44B8-BCF3-B70645E7FBBC";
name = Regular;
paths = (
{
closed = 1;
nodes = (
"305 459 CURVE",
"309 507 LINE",
"309 507 OFFCURVE",
"288 512 OFFCURVE",
"264 510 CURVE SMOOTH",
"192 507 OFFCURVE",
"143 488 OFFCURVE",
"94 466 CURVE",
"94 499 LINE",
"38 499 LINE",
"38 0 LINE",
"94 0 LINE",
"94 408 LINE",
"131 433 OFFCURVE",
"206 457 OFFCURVE",
"263 460 CURVE SMOOTH",
"284 461 OFFCURVE",
"305 459 OFFCURVE"
);
}
);
width = 332;
}
);
leftKerningGroup = r;
rightKerningGroup = r;
unicode = 0072;
userData = {
com.typemytype.robofont.mark = (
0.6,
1,
0.694,
1
);
};
},
{
glyphname = registered;
layers = (
{
layerId = "F362B091-5F2C-44B8-BCF3-B70645E7FBBC";
name = Regular;
paths = (
{
closed = 1;
nodes = (
"662 187 CURVE SMOOTH",
"662 326 LINE SMOOTH",
"662 496 OFFCURVE",
"530 581 OFFCURVE",
"346 582 CURVE SMOOTH",
"163 581 OFFCURVE",
"31 496 OFFCURVE",
"31 326 CURVE SMOOTH",
"31 187 LINE SMOOTH",
"31 16 OFFCURVE",
"163 -68 OFFCURVE",
"346 -69 CURVE SMOOTH",
"530 -68 OFFCURVE",
"662 16 OFFCURVE"
);
},
{
closed = 1;
nodes = (
"601 301 CURVE SMOOTH",
"601 211 LINE SMOOTH",
"601 48 OFFCURVE",
"521 -13 OFFCURVE",
"346 -15 CURVE SMOOTH",
"171 -13 OFFCURVE",
"90 48 OFFCURVE",
"90 211 CURVE SMOOTH",
"90 301 LINE SMOOTH",
"90 464 OFFCURVE",
"171 526 OFFCURVE",
"346 528 CURVE SMOOTH",
"521 526 OFFCURVE",
"601 464 OFFCURVE"
);
},
{
closed = 1;
nodes = (
"384 442 CURVE SMOOTH",
"180 442 LINE",
"180 59 LINE",
"233 59 LINE",
"233 176 LINE",
"382 176 LINE",
"439 59 LINE",
"503 59 LINE",
"440 185 LINE",
"479 197 OFFCURVE",
"515 229 OFFCURVE",
"514 311 CURVE SMOOTH",
"512 430 OFFCURVE",
"437 442 OFFCURVE"
);
},
{
closed = 1;
nodes = (
"387 232 CURVE SMOOTH",
"233 232 LINE",
"233 388 LINE",
"387 388 LINE SMOOTH",
"440 388 OFFCURVE",
"462 365 OFFCURVE",
"462 310 CURVE SMOOTH",
"462 256 OFFCURVE",
"438 232 OFFCURVE"
);
}
);
width = 694;
}
);
leftKerningGroup = copyright;
rightKerningGroup = copyright;
unicode = 00AE;
userData = {
com.typemytype.robofont.mark = (
0.6,
1,
0.694,
1
);
};
},
{
glyphname = rho;
layers = (
{
layerId = "F362B091-5F2C-44B8-BCF3-B70645E7FBBC";
name = Regular;
paths = (
{
closed = 1;
nodes = (
"404 170 CURVE SMOOTH",
"404 310 LINE SMOOTH",
"404 431 OFFCURVE",
"340 506 OFFCURVE",
"221 506 CURVE SMOOTH",
"103 506 OFFCURVE",
"35 437 OFFCURVE",
"35 310 CURVE SMOOTH",
"35 -205 LINE",
"92 -218 LINE",
"92 56 LINE",
"115 14 OFFCURVE",
"173 -18 OFFCURVE",
"235 -18 CURVE SMOOTH",
"345 -18 OFFCURVE",
"404 47 OFFCURVE"
);
},
{
closed = 1;
nodes = (
"348 310 CURVE SMOOTH",
"348 162 LINE SMOOTH",
"348 78 OFFCURVE",
"306 35 OFFCURVE",
"230 35 CURVE SMOOTH",
"154 35 OFFCURVE",
"92 82 OFFCURVE",
"92 167 CURVE SMOOTH",
"92 310 LINE SMOOTH",
"92 407 OFFCURVE",
"136 454 OFFCURVE",
"224 454 CURVE SMOOTH",
"308 454 OFFCURVE",
"348 407 OFFCURVE"
);
}
);
width = 436;
}
);
leftKerningGroup = p;
rightKerningGroup = p;
unicode = 03C1;
userData = {
com.typemytype.robofont.mark = (
0.6,
1,
0.694,
1
);
};
},
{
glyphname = s;
layers = (
{
anchors = (
{
name = bottom;
position = "{208, 0}";
},
{
name = center;
position = "{208, 300}";
},
{
name = ogonek;
position = "{207, 0}";
},
{
name = tonos;
position = "{208, 545}";
},
{
name = top;
position = "{208, 545}";
}
);
layerId = "F362B091-5F2C-44B8-BCF3-B70645E7FBBC";
name = Regular;
paths = (
{
closed = 1;
nodes = (
"322 438 CURVE",
"345 475 LINE",
"294 504 OFFCURVE",
"254 512 OFFCURVE",
"213 510 CURVE SMOOTH",
"174 510 OFFCURVE",
"138 501 OFFCURVE",
"110 482 CURVE SMOOTH",
"71 457 OFFCURVE",
"48 416 OFFCURVE",
"52 362 CURVE",
"57 323 OFFCURVE",
"79 298 OFFCURVE",
"107 277 CURVE",
"137 257 OFFCURVE",
"173 244 OFFCURVE",
"209 231 CURVE SMOOTH",
"243 218 OFFCURVE",
"276 205 OFFCURVE",
"299 188 CURVE SMOOTH",
"321 172 OFFCURVE",
"335 151 OFFCURVE",
"334 122 CURVE",
"334 95 OFFCURVE",
"318 73 OFFCURVE",
"296 57 CURVE SMOOTH",
"274 42 OFFCURVE",
"245 34 OFFCURVE",
"213 34 CURVE SMOOTH",
"183 34 OFFCURVE",
"157 40 OFFCURVE",
"134 48 CURVE",
"102 61 OFFCURVE",
"77 80 OFFCURVE",
"57 100 CURVE",
"26 68 LINE",
"51 38 OFFCURVE",
"81 18 OFFCURVE",
"112 4 CURVE SMOOTH",
"145 -11 OFFCURVE",
"180 -17 OFFCURVE",
"213 -18 CURVE SMOOTH",
"253 -18 OFFCURVE",
"290 -9 OFFCURVE",
"320 10 CURVE SMOOTH",
"361 36 OFFCURVE",
"389 79 OFFCURVE",
"386 133 CURVE SMOOTH",
"383 170 OFFCURVE",
"367 197 OFFCURVE",
"344 218 CURVE SMOOTH",
"314 244 OFFCURVE",
"272 261 OFFCURVE",
"233 276 CURVE SMOOTH",
"202 287 OFFCURVE",
"172 298 OFFCURVE",
"148 311 CURVE SMOOTH",
"125 324 OFFCURVE",
"108 341 OFFCURVE",
"104 364 CURVE SMOOTH",
"98 398 OFFCURVE",
"113 424 OFFCURVE",
"137 440 CURVE SMOOTH",
"158 454 OFFCURVE",
"185 462 OFFCURVE",
"215 463 CURVE SMOOTH",
"251 464 OFFCURVE",
"291 455 OFFCURVE"
);
}
);
width = 416;
}
);
leftKerningGroup = s;
rightKerningGroup = s;
unicode = 0073;
userData = {
com.typemytype.robofont.mark = (
0.6,
1,
0.694,
1
);
};
},
{
glyphname = semicolon;
layers = (
{
layerId = "F362B091-5F2C-44B8-BCF3-B70645E7FBBC";
name = Regular;
paths = (
{
closed = 1;
nodes = (
"38 35 CURVE",
"55 23 LINE",
"75 41 OFFCURVE",
"107 80 OFFCURVE",
"108 143 CURVE",
"107 163 OFFCURVE",
"93 176 OFFCURVE",
"74 176 CURVE SMOOTH",
"55 176 OFFCURVE",
"41 162 OFFCURVE",
"41 143 CURVE SMOOTH",
"41 127 OFFCURVE",
"53 112 OFFCURVE",
"69 110 CURVE",
"66 89 OFFCURVE",
"59 62 OFFCURVE"
);
},
{
closed = 1;
nodes = (
"110 384 CURVE SMOOTH",
"110 403 OFFCURVE",
"95 417 OFFCURVE",
"77 417 CURVE SMOOTH",
"59 417 OFFCURVE",
"43 403 OFFCURVE",
"43 384 CURVE SMOOTH",
"43 365 OFFCURVE",
"59 351 OFFCURVE",
"77 351 CURVE SMOOTH",
"95 351 OFFCURVE",
"110 365 OFFCURVE"
);
}
);
width = 149;
}
);
leftKerningGroup = comma;
rightKerningGroup = comma;
unicode = 003B;
userData = {
com.typemytype.robofont.mark = (
0.6,
1,
0.694,
1
);
};
},
{
glyphname = seven;
layers = (
{
layerId = "F362B091-5F2C-44B8-BCF3-B70645E7FBBC";
name = Regular;
paths = (
{
closed = 1;
nodes = (
"99 0 LINE",
"417 643 LINE",
"417 698 LINE",
"26 698 LINE",
"26 641 LINE",
"354 641 LINE",
"37 0 LINE"
);
}
);
width = 434;
}
);
unicode = 0037;
userData = {
com.typemytype.robofont.mark = (
0.6,
1,
0.694,
1
);
};
},
{
glyphname = sfthyphen;
layers = (
{
layerId = "F362B091-5F2C-44B8-BCF3-B70645E7FBBC";
name = Regular;
paths = (
{
closed = 1;
nodes = (
"361 413 LINE",
"42 413 LINE",
"42 355 LINE",
"361 355 LINE"
);
}
);
width = 483;
}
);
leftKerningGroup = equal;
rightKerningGroup = equal;
unicode = 00AD;
userData = {
com.typemytype.robofont.mark = (
0.6,
1,
0.694,
1
);
};
},
{
glyphname = sigma1;
layers = (
{
layerId = "F362B091-5F2C-44B8-BCF3-B70645E7FBBC";
name = Regular;
paths = (
{
closed = 1;
nodes = (
"80 284 CURVE SMOOTH",
"80 373 LINE SMOOTH",
"80 429 OFFCURVE",
"131 457 OFFCURVE",
"194 454 CURVE SMOOTH",
"233 453 OFFCURVE",
"272 438 OFFCURVE",
"292 425 CURVE",
"313 469 LINE",
"313 469 OFFCURVE",
"261 503 OFFCURVE",
"181 503 CURVE SMOOTH",
"110 503 OFFCURVE",
"23 464 OFFCURVE",
"23 382 CURVE SMOOTH",
"23 349 OFFCURVE",
"23 316 OFFCURVE",
"23 283 CURVE SMOOTH",
"23 224 OFFCURVE",
"40 188 OFFCURVE",
"93 143 CURVE SMOOTH",
"116 123 OFFCURVE",
"141 101 OFFCURVE",
"184 64 CURVE SMOOTH",
"223 32 OFFCURVE",
"235 14 OFFCURVE",
"235 -22 CURVE SMOOTH",
"235 -55 OFFCURVE",
"205 -87 OFFCURVE",
"170 -108 CURVE",
"195 -142 LINE",
"248 -111 OFFCURVE",
"283 -74 OFFCURVE",
"283 -19 CURVE SMOOTH",
"283 47 OFFCURVE",
"240 86 OFFCURVE",
"204 116 CURVE SMOOTH",
"169 146 OFFCURVE",
"149 165 OFFCURVE",
"129 182 CURVE SMOOTH",
"87 218 OFFCURVE",
"80 244 OFFCURVE"
);
}
);
width = 340;
}
);
unicode = 03C2;
userData = {
com.typemytype.robofont.mark = (
0.6,
1,
0.694,
1
);
};
},
{
glyphname = sigma;
layers = (
{
layerId = "F362B091-5F2C-44B8-BCF3-B70645E7FBBC";
name = Regular;
paths = (
{
closed = 1;
nodes = (
"443 515 CURVE",
"410 541 LINE",
"389 519 OFFCURVE",
"356 504 OFFCURVE",
"335 502 CURVE SMOOTH",
"307 498 OFFCURVE",
"262 510 OFFCURVE",
"214 510 CURVE SMOOTH",
"126 510 OFFCURVE",
"28 468 OFFCURVE",
"28 319 CURVE SMOOTH",
"28 184 LINE SMOOTH",
"28 75 OFFCURVE",
"92 -10 OFFCURVE",
"216 -10 CURVE SMOOTH",
"339 -10 OFFCURVE",
"397 71 OFFCURVE",
"397 184 CURVE SMOOTH",
"397 319 LINE SMOOTH",
"397 392 OFFCURVE",
"379 430 OFFCURVE",
"360 451 CURVE",
"390 459 OFFCURVE",
"419 479 OFFCURVE"
);
},
{
closed = 1;
nodes = (
"340 333 CURVE SMOOTH",
"340 174 LINE SMOOTH",
"340 92 OFFCURVE",
"300 40 OFFCURVE",
"217 40 CURVE SMOOTH",
"137 40 OFFCURVE",
"87 94 OFFCURVE",
"87 174 CURVE SMOOTH",
"87 326 LINE SMOOTH",
"87 428 OFFCURVE",
"156 457 OFFCURVE",
"214 457 CURVE SMOOTH",
"245 457 OFFCURVE",
"278 449 OFFCURVE",
"306 447 CURVE",
"322 430 OFFCURVE",
"340 396 OFFCURVE"
);
}
);
width = 468;
}
);
unicode = 03C3;
userData = {
com.typemytype.robofont.mark = (
0.6,
1,
0.694,
1
);
};
},
{
glyphname = six;
layers = (
{
layerId = "F362B091-5F2C-44B8-BCF3-B70645E7FBBC";
name = Regular;
paths = (
{
closed = 1;
nodes = (
"271 646 CURVE SMOOTH",
"310 646 LINE",
"310 698 LINE",
"275 698 LINE SMOOTH",
"186 698 OFFCURVE",
"120 661 OFFCURVE",
"83 614 CURVE SMOOTH",
"47 568 OFFCURVE",
"31 515 OFFCURVE",
"31 460 CURVE SMOOTH",
"31 202 LINE SMOOTH",
"31 143 OFFCURVE",
"52 92 OFFCURVE",
"94 52 CURVE SMOOTH",
"135 11 OFFCURVE",
"185 -10 OFFCURVE",
"244 -10 CURVE SMOOTH",
"303 -10 OFFCURVE",
"352 11 OFFCURVE",
"393 52 CURVE SMOOTH",
"435 92 OFFCURVE",
"456 143 OFFCURVE",
"456 202 CURVE SMOOTH",
"456 261 OFFCURVE",
"435 311 OFFCURVE",
"393 352 CURVE SMOOTH",
"352 393 OFFCURVE",
"302 414 OFFCURVE",
"241 414 CURVE SMOOTH",
"180 414 OFFCURVE",
"128 391 OFFCURVE",
"86 346 CURVE",
"86 453 LINE SMOOTH",
"86 516 OFFCURVE",
"103 559 OFFCURVE",
"139 596 CURVE SMOOTH",
"173 631 OFFCURVE",
"222 646 OFFCURVE"
);
},
{
closed = 1;
nodes = (
"244 359 CURVE SMOOTH",
"330 359 OFFCURVE",
"401 288 OFFCURVE",
"401 202 CURVE SMOOTH",
"401 116 OFFCURVE",
"330 45 OFFCURVE",
"244 45 CURVE SMOOTH",
"157 45 OFFCURVE",
"86 116 OFFCURVE",
"86 202 CURVE SMOOTH",
"86 288 OFFCURVE",
"157 359 OFFCURVE"
);
}
);
width = 482;
}
);
unicode = 0036;
userData = {
com.typemytype.robofont.mark = (
0.6,
1,
0.694,
1
);
};
},
{
glyphname = sterling;
layers = (
{
layerId = "F362B091-5F2C-44B8-BCF3-B70645E7FBBC";
name = Regular;
paths = (
{
closed = 1;
nodes = (
"113 53 CURVE SMOOTH",
"34 53 LINE",
"34 0 LINE",
"392 0 LINE",
"392 53 LINE",
"270 53 LINE",
"287 64 OFFCURVE",
"300 77 OFFCURVE",
"311 94 CURVE SMOOTH",
"360 167 OFFCURVE",
"348 254 OFFCURVE",
"289 324 CURVE SMOOTH",
"285 329 OFFCURVE",
"281 334 OFFCURVE",
"277 339 CURVE",
"392 339 LINE",
"392 396 LINE",
"226 396 LINE",
"205 419 OFFCURVE",
"186 441 OFFCURVE",
"176 453 CURVE SMOOTH",
"131 506 OFFCURVE",
"104 559 OFFCURVE",
"132 605 CURVE",
"149 637 OFFCURVE",
"179 651 OFFCURVE",
"212 654 CURVE SMOOTH",
"253 659 OFFCURVE",
"299 645 OFFCURVE",
"341 620 CURVE",
"360 669 LINE",
"308 697 OFFCURVE",
"247 712 OFFCURVE",
"194 705 CURVE SMOOTH",
"149 700 OFFCURVE",
"108 680 OFFCURVE",
"83 635 CURVE SMOOTH",
"39 555 OFFCURVE",
"77 485 OFFCURVE",
"134 419 CURVE SMOOTH",
"138 414 OFFCURVE",
"145 405 OFFCURVE",
"154 396 CURVE",
"34 396 LINE",
"34 339 LINE",
"205 339 LINE",
"220 323 OFFCURVE",
"233 307 OFFCURVE",
"247 291 CURVE SMOOTH",
"297 234 OFFCURVE",
"297 168 OFFCURVE",
"260 118 CURVE SMOOTH",
"221 61 OFFCURVE",
"160 53 OFFCURVE"
);
}
);
width = 427;
}
);
unicode = 00A3;
userData = {
com.typemytype.robofont.mark = (
0.6,
1,
0.694,
1
);
};
},
{
glyphname = t;
layers = (
{
anchors = (
{
name = bottom;
position = "{120, 0}";
},
{
name = center;
position = "{120, 300}";
},
{
name = ogonek;
position = "{120, 0}";
},
{
name = tonos;
position = "{40, 700}";
},
{
name = top;
position = "{120, 735}";
}
);
layerId = "F362B091-5F2C-44B8-BCF3-B70645E7FBBC";
name = Regular;
paths = (
{
closed = 1;
nodes = (
"95 132 CURVE SMOOTH",
"95 447 LINE",
"191 447 LINE",
"215 499 LINE",
"95 499 LINE",
"95 698 LINE",
"39 698 LINE",
"39 132 LINE SMOOTH",
"39 53 OFFCURVE",
"70 8 OFFCURVE",
"144 -13 CURVE",
"161 30 LINE",
"117 45 OFFCURVE",
"95 79 OFFCURVE"
);
}
);
width = 240;
}
);
leftKerningGroup = t;
rightKerningGroup = t;
unicode = 0074;
userData = {
com.typemytype.robofont.mark = (
0.6,
1,
0.694,
1
);
};
},
{
glyphname = tau;
layers = (
{
layerId = "F362B091-5F2C-44B8-BCF3-B70645E7FBBC";
name = Regular;
paths = (
{
closed = 1;
nodes = (
"196 132 CURVE SMOOTH",
"196 446 LINE",
"323 446 LINE",
"323 498 LINE",
"20 498 LINE",
"20 446 LINE",
"140 446 LINE",
"140 132 LINE SMOOTH",
"140 53 OFFCURVE",
"171 8 OFFCURVE",
"246 -13 CURVE",
"262 30 LINE",
"218 45 OFFCURVE",
"196 79 OFFCURVE"
);
}
);
width = 350;
}
);
leftKerningGroup = v;
rightKerningGroup = v;
unicode = 03C4;
userData = {
com.typemytype.robofont.mark = (
0.6,
1,
0.694,
1
);
};
},
{
glyphname = tbar;
layers = (
{
layerId = "F362B091-5F2C-44B8-BCF3-B70645E7FBBC";
name = Regular;
paths = (
{
closed = 1;
nodes = (
"136 132 CURVE SMOOTH",
"136 302 LINE",
"255 302 LINE",
"255 355 LINE",
"136 355 LINE",
"136 447 LINE",
"232 447 LINE",
"256 499 LINE",
"136 499 LINE",
"136 698 LINE",
"80 698 LINE",
"80 355 LINE",
"25 355 LINE",
"25 302 LINE",
"80 302 LINE",
"80 132 LINE SMOOTH",
"80 53 OFFCURVE",
"111 8 OFFCURVE",
"185 -13 CURVE",
"202 30 LINE",
"158 45 OFFCURVE",
"136 79 OFFCURVE"
);
}
);
width = 286;
}
);
leftKerningGroup = t;
rightKerningGroup = t;
unicode = 0167;
userData = {
com.typemytype.robofont.mark = (
0.6,
1,
0.694,
1
);
};
},
{
glyphname = theta;
layers = (
{
layerId = "F362B091-5F2C-44B8-BCF3-B70645E7FBBC";
name = Regular;
paths = (
{
closed = 1;
nodes = (
"219 707 CURVE SMOOTH",
"107 707 OFFCURVE",
"50 635 OFFCURVE",
"50 557 CURVE SMOOTH",
"50 532 OFFCURVE",
"53 491 OFFCURVE",
"77 451 CURVE",
"48 418 OFFCURVE",
"32 370 OFFCURVE",
"32 310 CURVE SMOOTH",
"32 188 LINE SMOOTH",
"32 67 OFFCURVE",
"93 -6 OFFCURVE",
"219 -6 CURVE SMOOTH",
"341 -6 OFFCURVE",
"404 59 OFFCURVE",
"404 188 CURVE SMOOTH",
"404 503 LINE SMOOTH",
"404 629 OFFCURVE",
"346 707 OFFCURVE"
);
},
{
closed = 1;
nodes = (
"348 504 CURVE SMOOTH",
"348 393 LINE",
"99 393 OFFCURVE",
"108 530 OFFCURVE",
"108 555 CURVE SMOOTH",
"108 608 OFFCURVE",
"145 654 OFFCURVE",
"220 654 CURVE SMOOTH",
"296 654 OFFCURVE",
"348 612 OFFCURVE"
);
},
{
closed = 1;
nodes = (
"219 42 CURVE SMOOTH",
"140 42 OFFCURVE",
"88 87 OFFCURVE",
"88 175 CURVE SMOOTH",
"88 310 LINE SMOOTH",
"88 351 OFFCURVE",
"96 384 OFFCURVE",
"113 408 CURVE",
"155 370 OFFCURVE",
"228 342 OFFCURVE",
"348 348 CURVE",
"348 175 LINE SMOOTH",
"348 87 OFFCURVE",
"305 42 OFFCURVE"
);
}
);
width = 441;
}
);
leftKerningGroup = beta;
rightKerningGroup = beta;
unicode = 03B8;
userData = {
com.typemytype.robofont.mark = (
0.6,
1,
0.694,
1
);
};
},
{
glyphname = thorn;
layers = (
{
layerId = "F362B091-5F2C-44B8-BCF3-B70645E7FBBC";
name = Regular;
paths = (
{
closed = 1;
nodes = (
"97 453 CURVE",
"97 698 LINE",
"41 698 LINE",
"41 0 LINE",
"97 0 LINE",
"97 185 LINE",
"124 142 OFFCURVE",
"184 116 OFFCURVE",
"232 116 CURVE SMOOTH",
"343 116 OFFCURVE",
"418 190 OFFCURVE",
"418 310 CURVE SMOOTH",
"418 422 OFFCURVE",
"346 507 OFFCURVE",
"236 507 CURVE SMOOTH",
"178 507 OFFCURVE",
"135 490 OFFCURVE"
);
},
{
closed = 1;
nodes = (
"231 457 CURVE SMOOTH",
"304 457 OFFCURVE",
"362 416 OFFCURVE",
"362 316 CURVE SMOOTH",
"362 217 OFFCURVE",
"309 169 OFFCURVE",
"230 169 CURVE SMOOTH",
"152 169 OFFCURVE",
"98 220 OFFCURVE",
"98 323 CURVE",
"103 415 OFFCURVE",
"161 457 OFFCURVE"
);
}
);
width = 444;
}
);
unicode = 00FE;
userData = {
com.typemytype.robofont.mark = (
0.6,
1,
0.694,
1
);
};
},
{
glyphname = three;
layers = (
{
layerId = "F362B091-5F2C-44B8-BCF3-B70645E7FBBC";
name = Regular;
paths = (
{
closed = 1;
nodes = (
"202 413 CURVE SMOOTH",
"200 413 LINE",
"359 649 LINE",
"359 698 LINE",
"70 698 LINE",
"70 641 LINE",
"291 641 LINE",
"98 355 LINE",
"209 355 LINE SMOOTH",
"250 355 OFFCURVE",
"285 339 OFFCURVE",
"315 307 CURVE SMOOTH",
"344 277 OFFCURVE",
"358 242 OFFCURVE",
"358 199 CURVE SMOOTH",
"358 156 OFFCURVE",
"344 121 OFFCURVE",
"313 90 CURVE SMOOTH",
"282 58 OFFCURVE",
"245 44 OFFCURVE",
"202 44 CURVE SMOOTH",
"146 44 OFFCURVE",
"103 67 OFFCURVE",
"72 112 CURVE",
"26 82 LINE",
"64 24 OFFCURVE",
"130 -12 OFFCURVE",
"202 -12 CURVE SMOOTH",
"261 -12 OFFCURVE",
"312 9 OFFCURVE",
"353 50 CURVE SMOOTH",
"393 90 OFFCURVE",
"414 141 OFFCURVE",
"414 199 CURVE SMOOTH",
"414 258 OFFCURVE",
"393 309 OFFCURVE",
"353 350 CURVE SMOOTH",
"312 391 OFFCURVE",
"261 413 OFFCURVE"
);
}
);
width = 442;
}
);
unicode = 0033;
userData = {
com.typemytype.robofont.mark = (
0.6,
1,
0.694,
1
);
};
},
{
glyphname = trademark;
layers = (
{
layerId = "F362B091-5F2C-44B8-BCF3-B70645E7FBBC";
name = Regular;
paths = (
{
closed = 1;
nodes = (
"127 664 LINE",
"190 664 LINE",
"190 512 LINE",
"224 512 LINE",
"224 651 LINE",
"282 512 LINE",
"303 512 LINE",
"362 651 LINE",
"362 512 LINE",
"393 512 LINE",
"393 698 LINE",
"351 698 LINE",
"293 561 LINE",
"233 698 LINE",
"23 698 LINE",
"23 664 LINE",
"94 664 LINE",
"94 512 LINE",
"127 512 LINE"
);
}
);
width = 428;
}
);
unicode = 2122;
userData = {
com.typemytype.robofont.mark = (
0.6,
1,
0.694,
1
);
};
},
{
glyphname = two;
layers = (
{
layerId = "F362B091-5F2C-44B8-BCF3-B70645E7FBBC";
name = Regular;
paths = (
{
closed = 1;
nodes = (
"42 588 CURVE",
"94 569 LINE",
"116 628 OFFCURVE",
"161 654 OFFCURVE",
"206 654 CURVE SMOOTH",
"263 656 OFFCURVE",
"318 612 OFFCURVE",
"318 539 CURVE SMOOTH",
"318 508 OFFCURVE",
"312 486 OFFCURVE",
"274 425 CURVE SMOOTH",
"196 295 OFFCURVE",
"109 176 OFFCURVE",
"29 53 CURVE",
"29 0 LINE",
"378 0 LINE",
"378 53 LINE",
"94 53 LINE",
"170 166 OFFCURVE",
"246 280 OFFCURVE",
"322 394 CURVE",
"363 464 OFFCURVE",
"377 509 OFFCURVE",
"377 549 CURVE SMOOTH",
"378 650 OFFCURVE",
"293 710 OFFCURVE",
"207 708 CURVE SMOOTH",
"140 707 OFFCURVE",
"73 670 OFFCURVE"
);
}
);
width = 412;
}
);
unicode = 0032;
userData = {
com.typemytype.robofont.mark = (
0.6,
1,
0.694,
1
);
};
},
{
glyphname = u;
layers = (
{
anchors = (
{
name = bottom;
position = "{222, 0}";
},
{
name = center;
position = "{222, 300}";
},
{
name = ogonek;
position = "{222, 0}";
},
{
name = tonos;
position = "{222, 545}";
},
{
name = top;
position = "{222, 545}";
}
);
layerId = "F362B091-5F2C-44B8-BCF3-B70645E7FBBC";
name = Regular;
paths = (
{
closed = 1;
nodes = (
"348 48 CURVE",
"348 0 LINE",
"404 0 LINE",
"404 499 LINE",
"348 499 LINE",
"348 172 LINE SMOOTH",
"348 101 OFFCURVE",
"292 44 OFFCURVE",
"221 44 CURVE SMOOTH",
"157 44 OFFCURVE",
"91 68 OFFCURVE",
"91 159 CURVE SMOOTH",
"91 499 LINE",
"35 499 LINE",
"35 156 LINE SMOOTH",
"35 43 OFFCURVE",
"98 -10 OFFCURVE",
"209 -10 CURVE SMOOTH",
"259 -10 OFFCURVE",
"314 9 OFFCURVE"
);
}
);
width = 444;
}
);
leftKerningGroup = u;
rightKerningGroup = u;
unicode = 0075;
userData = {
com.typemytype.robofont.mark = (
0.6,
1,
0.694,
1
);
};
},
{
glyphname = underscore;
layers = (
{
layerId = "F362B091-5F2C-44B8-BCF3-B70645E7FBBC";
name = Regular;
paths = (
{
closed = 1;
nodes = (
"33 -56 LINE",
"352 -56 LINE",
"352 0 LINE",
"33 0 LINE"
);
}
);
width = 383;
}
);
leftKerningGroup = equal;
rightKerningGroup = equal;
unicode = 005F;
userData = {
com.typemytype.robofont.mark = (
0.6,
1,
0.694,
1
);
};
},
{
glyphname = upsilon;
layers = (
{
anchors = (
{
name = bottom;
position = "{220, 0}";
},
{
name = center;
position = "{220, 300}";
},
{
name = ogonek;
position = "{219, 0}";
},
{
name = tonos;
position = "{220, 545}";
},
{
name = top;
position = "{220, 545}";
}
);
layerId = "F362B091-5F2C-44B8-BCF3-B70645E7FBBC";
name = Regular;
paths = (
{
closed = 1;
nodes = (
"404 184 CURVE SMOOTH",
"404 499 LINE",
"350 499 LINE",
"350 174 LINE SMOOTH",
"350 92 OFFCURVE",
"307 40 OFFCURVE",
"224 40 CURVE SMOOTH",
"143 40 OFFCURVE",
"91 94 OFFCURVE",
"91 174 CURVE SMOOTH",
"91 499 LINE",
"34 499 LINE",
"34 184 LINE SMOOTH",
"34 75 OFFCURVE",
"98 -10 OFFCURVE",
"222 -10 CURVE SMOOTH",
"346 -10 OFFCURVE",
"404 71 OFFCURVE"
);
}
);
width = 440;
}
);
leftKerningGroup = upsilon;
rightKerningGroup = upsilon;
unicode = 03C5;
userData = {
com.typemytype.robofont.mark = (
0.6,
1,
0.694,
1
);
};
},
{
glyphname = w;
layers = (
{
anchors = (
{
name = bottom;
position = "{353, 0}";
},
{
name = center;
position = "{353, 300}";
},
{
name = ogonek;
position = "{352, 0}";
},
{
name = tonos;
position = "{353, 545}";
},
{
name = top;
position = "{353, 545}";
}
);
layerId = "F362B091-5F2C-44B8-BCF3-B70645E7FBBC";
name = Regular;
paths = (
{
closed = 1;
nodes = (
"380 498 LINE",
"323 498 LINE",
"211 57 LINE",
"77 498 LINE",
"19 498 LINE",
"171 0 LINE",
"248 0 LINE",
"350 404 LINE",
"450 0 LINE",
"527 0 LINE",
"682 498 LINE",
"623 498 LINE",
"490 57 LINE"
);
}
);
width = 706;
}
);
leftKerningGroup = w;
rightKerningGroup = w;
unicode = 0077;
userData = {
com.typemytype.robofont.mark = (
0.6,
1,
0.694,
1
);
};
},
{
glyphname = x;
layers = (
{
layerId = "F362B091-5F2C-44B8-BCF3-B70645E7FBBC";
name = Regular;
paths = (
{
closed = 1;
nodes = (
"219 299 LINE",
"94 498 LINE",
"30 498 LINE",
"186 248 LINE",
"30 0 LINE",
"96 0 LINE",
"219 197 LINE",
"341 0 LINE",
"407 0 LINE",
"251 248 LINE",
"407 498 LINE",
"345 498 LINE"
);
}
);
width = 436;
}
);
leftKerningGroup = z;
rightKerningGroup = z;
unicode = 0078;
userData = {
com.typemytype.robofont.mark = (
0.6,
1,
0.694,
1
);
};
},
{
glyphname = xi;
layers = (
{
layerId = "F362B091-5F2C-44B8-BCF3-B70645E7FBBC";
name = Regular;
paths = (
{
closed = 1;
nodes = (
"359 649 CURVE",
"381 700 LINE",
"381 700 OFFCURVE",
"292 700 OFFCURVE",
"235 700 CURVE SMOOTH",
"143 700 OFFCURVE",
"89 635 OFFCURVE",
"92 546 CURVE SMOOTH",
"94 504 OFFCURVE",
"103 453 OFFCURVE",
"159 404 CURVE",
"157 404 OFFCURVE",
"155 404 OFFCURVE",
"151 404 CURVE",
"80 398 OFFCURVE",
"28 356 OFFCURVE",
"28 254 CURVE SMOOTH",
"28 226 OFFCURVE",
"28 197 OFFCURVE",
"28 168 CURVE SMOOTH",
"28 21 OFFCURVE",
"114 -14 OFFCURVE",
"243 -10 CURVE SMOOTH",
"269 -9 OFFCURVE",
"311 -7 OFFCURVE",
"344 -4 CURVE",
"344 -197 LINE",
"400 -211 LINE",
"400 51 LINE",
"374 48 OFFCURVE",
"277 41 OFFCURVE",
"240 38 CURVE SMOOTH",
"106 33 OFFCURVE",
"84 80 OFFCURVE",
"84 175 CURVE SMOOTH",
"84 195 OFFCURVE",
"84 228 OFFCURVE",
"84 251 CURVE SMOOTH",
"84 341 OFFCURVE",
"144 358 OFFCURVE",
"180 358 CURVE SMOOTH",
"243 358 OFFCURVE",
"288 346 OFFCURVE",
"288 346 CURVE",
"293 363 OFFCURVE",
"300 378 OFFCURVE",
"305 395 CURVE",
"305 395 OFFCURVE",
"283 400 OFFCURVE",
"273 403 CURVE",
"191 421 OFFCURVE",
"155 477 OFFCURVE",
"149 543 CURVE",
"147 607 OFFCURVE",
"181 649 OFFCURVE",
"238 649 CURVE SMOOTH",
"274 649 OFFCURVE",
"359 649 OFFCURVE"
);
}
);
width = 430;
}
);
leftKerningGroup = xi;
rightKerningGroup = xi;
unicode = 03BE;
userData = {
com.typemytype.robofont.mark = (
0.6,
1,
0.694,
1
);
};
},
{
glyphname = y;
layers = (
{
anchors = (
{
name = bottom;
position = "{233, 0}";
},
{
name = center;
position = "{233, 300}";
},
{
name = ogonek;
position = "{232, 0}";
},
{
name = tonos;
position = "{233, 545}";
},
{
name = top;
position = "{233, 545}";
}
);
layerId = "F362B091-5F2C-44B8-BCF3-B70645E7FBBC";
name = Regular;
paths = (
{
closed = 1;
nodes = (
"437 468 CURVE",
"417 510 LINE",
"369 494 OFFCURVE",
"348 453 OFFCURVE",
"348 408 CURVE SMOOTH",
"348 173 LINE SMOOTH",
"348 102 OFFCURVE",
"292 44 OFFCURVE",
"221 44 CURVE SMOOTH",
"159 44 OFFCURVE",
"91 69 OFFCURVE",
"91 161 CURVE SMOOTH",
"91 499 LINE",
"35 499 LINE",
"35 157 LINE SMOOTH",
"35 44 OFFCURVE",
"99 -9 OFFCURVE",
"209 -9 CURVE SMOOTH",
"259 -9 OFFCURVE",
"315 10 OFFCURVE",
"348 50 CURVE",
"348 -61 LINE SMOOTH",
"348 -89 OFFCURVE",
"342 -112 OFFCURVE",
"329 -130 CURVE SMOOTH",
"318 -145 OFFCURVE",
"303 -157 OFFCURVE",
"283 -165 CURVE",
"299 -208 LINE",
"331 -197 OFFCURVE",
"355 -184 OFFCURVE",
"373 -165 CURVE SMOOTH",
"395 -140 OFFCURVE",
"404 -107 OFFCURVE",
"404 -62 CURVE SMOOTH",
"404 407 LINE SMOOTH",
"404 448 OFFCURVE",
"418 460 OFFCURVE"
);
}
);
width = 467;
}
);
leftKerningGroup = y;
rightKerningGroup = y;
unicode = 0079;
userData = {
com.typemytype.robofont.mark = (
0.6,
1,
0.694,
1
);
};
},
{
glyphname = y_alt;
layers = (
{
layerId = "F362B091-5F2C-44B8-BCF3-B70645E7FBBC";
name = Regular;
paths = (
{
closed = 1;
nodes = (
"116 -210 LINE",
"174 -210 LINE",
"484 510 LINE",
"422 510 LINE",
"244 86 LINE",
"81 510 LINE",
"17 510 LINE",
"215 20 LINE"
);
}
);
width = 506;
}
);
unicode = 9998;
userData = {
com.typemytype.robofont.mark = (
0.6,
1,
0.694,
1
);
};
},
{
glyphname = yen;
layers = (
{
layerId = "F362B091-5F2C-44B8-BCF3-B70645E7FBBC";
name = Regular;
paths = (
{
closed = 1;
nodes = (
"97 198 LINE",
"229 198 LINE",
"229 148 LINE",
"97 148 LINE",
"97 94 LINE",
"229 94 LINE",
"229 0 LINE",
"285 0 LINE",
"285 94 LINE",
"416 94 LINE",
"416 148 LINE",
"285 148 LINE",
"285 198 LINE",
"416 198 LINE",
"416 253 LINE",
"285 253 LINE",
"285 341 LINE",
"492 698 LINE",
"430 698 LINE",
"256 405 LINE",
"85 698 LINE",
"21 698 LINE",
"229 339 LINE",
"229 253 LINE",
"97 253 LINE"
);
}
);
width = 514;
}
);
unicode = 00A5;
userData = {
com.typemytype.robofont.mark = (
0.6,
1,
0.694,
1
);
};
},
{
glyphname = z;
layers = (
{
anchors = (
{
name = bottom;
position = "{213, 0}";
},
{
name = center;
position = "{213, 300}";
},
{
name = ogonek;
position = "{213, 0}";
},
{
name = tonos;
position = "{213, 545}";
},
{
name = top;
position = "{213, 545}";
}
);
layerId = "F362B091-5F2C-44B8-BCF3-B70645E7FBBC";
name = Regular;
paths = (
{
closed = 1;
nodes = (
"377 499 LINE",
"40 499 LINE",
"40 449 LINE",
"305 449 LINE",
"31 50 LINE",
"31 0 LINE",
"398 0 LINE",
"398 51 LINE",
"100 51 LINE",
"377 450 LINE"
);
}
);
width = 427;
}
);
leftKerningGroup = z;
rightKerningGroup = z;
unicode = 007A;
userData = {
com.typemytype.robofont.mark = (
0.6,
1,
0.694,
1
);
};
},
{
glyphname = zeta;
layers = (
{
layerId = "F362B091-5F2C-44B8-BCF3-B70645E7FBBC";
name = Regular;
paths = (
{
closed = 1;
nodes = (
"387 652 CURVE",
"365 698 LINE",
"94 698 LINE",
"94 651 LINE",
"303 651 LINE",
"257 608 OFFCURVE",
"216 563 OFFCURVE",
"183 521 CURVE SMOOTH",
"146 477 OFFCURVE",
"116 435 OFFCURVE",
"93 394 CURVE SMOOTH",
"48 313 OFFCURVE",
"27 243 OFFCURVE",
"26 184 CURVE SMOOTH",
"25 128 OFFCURVE",
"42 81 OFFCURVE",
"74 50 CURVE SMOOTH",
"122 3 OFFCURVE",
"201 -13 OFFCURVE",
"298 8 CURVE",
"298 -183 LINE",
"354 -209 LINE",
"354 71 LINE",
"237 41 OFFCURVE",
"161 50 OFFCURVE",
"121 82 CURVE SMOOTH",
"92 106 OFFCURVE",
"80 141 OFFCURVE",
"82 183 CURVE SMOOTH",
"84 235 OFFCURVE",
"106 298 OFFCURVE",
"141 364 CURVE SMOOTH",
"166 408 OFFCURVE",
"196 454 OFFCURVE",
"231 498 CURVE SMOOTH",
"311 601 OFFCURVE",
"387 652 OFFCURVE"
);
}
);
width = 412;
}
);
leftKerningGroup = xi;
rightKerningGroup = xi;
unicode = 03B6;
userData = {
com.typemytype.robofont.mark = (
0.6,
1,
0.694,
1
);
};
},
{
glyphname = brevecomb;
layers = (
{
anchors = (
{
name = _top;
position = "{133, 600}";
},
{
name = top;
position = "{133, 750}";
}
);
layerId = "F362B091-5F2C-44B8-BCF3-B70645E7FBBC";
name = Regular;
paths = (
{
closed = 1;
nodes = (
"245 702 LINE",
"200 702 LINE",
"200 695 LINE SMOOTH",
"200 657 OFFCURVE",
"171 627 OFFCURVE",
"133 627 CURVE SMOOTH",
"96 627 OFFCURVE",
"65 657 OFFCURVE",
"65 695 CURVE SMOOTH",
"65 702 LINE",
"20 702 LINE",
"20 695 LINE SMOOTH",
"20 632 OFFCURVE",
"71 582 OFFCURVE",
"133 582 CURVE SMOOTH",
"195 582 OFFCURVE",
"245 632 OFFCURVE",
"245 695 CURVE SMOOTH"
);
}
);
width = 266;
}
);
unicode = 0306;
userData = {
com.typemytype.robofont.mark = (
0.6,
0.609,
1,
1
);
};
},
{
glyphname = caroncomb;
layers = (
{
anchors = (
{
name = _top;
position = "{133, 600}";
},
{
name = top;
position = "{133, 750}";
}
);
layerId = "F362B091-5F2C-44B8-BCF3-B70645E7FBBC";
name = Regular;
paths = (
{
closed = 1;
nodes = (
"263 715 LINE",
"224 752 LINE",
"131 663 LINE",
"42 751 LINE",
"3 713 LINE",
"131 587 LINE"
);
}
);
width = 266;
}
);
userData = {
com.typemytype.robofont.mark = (
0.6,
0.609,
1,
1
);
};
},
{
glyphname = circumflexcomb;
layers = (
{
anchors = (
{
name = _top;
position = "{133, 600}";
},
{
name = top;
position = "{133, 750}";
}
);
layerId = "F362B091-5F2C-44B8-BCF3-B70645E7FBBC";
name = Regular;
paths = (
{
closed = 1;
nodes = (
"263 642 LINE",
"134 769 LINE",
"3 641 LINE",
"42 603 LINE",
"134 693 LINE",
"223 605 LINE"
);
}
);
width = 266;
}
);
unicode = 0302;
userData = {
com.typemytype.robofont.mark = (
0.6,
0.609,
1,
1
);
};
},
{
glyphname = commaturnedabovecomb;
layers = (
{
anchors = (
{
name = _bottom;
position = "{133, 0}";
},
{
name = bottom;
position = "{133, -250}";
}
);
layerId = "F362B091-5F2C-44B8-BCF3-B70645E7FBBC";
name = Regular;
paths = (
{
closed = 1;
nodes = (
"168 716 CURVE",
"151 728 LINE",
"131 711 OFFCURVE",
"99 671 OFFCURVE",
"98 608 CURVE",
"99 588 OFFCURVE",
"113 575 OFFCURVE",
"132 575 CURVE SMOOTH",
"151 575 OFFCURVE",
"165 590 OFFCURVE",
"165 608 CURVE SMOOTH",
"165 625 OFFCURVE",
"153 638 OFFCURVE",
"138 641 CURVE",
"140 662 OFFCURVE",
"147 690 OFFCURVE"
);
}
);
width = 266;
}
);
userData = {
com.typemytype.robofont.mark = (
0.6,
0.609,
1,
1
);
};
},
{
glyphname = dieresiscomb;
layers = (
{
anchors = (
{
name = _top;
position = "{133, 600}";
},
{
name = top;
position = "{133, 750}";
}
);
layerId = "F362B091-5F2C-44B8-BCF3-B70645E7FBBC";
name = Regular;
paths = (
{
closed = 1;
nodes = (
"54 740 CURVE SMOOTH",
"36 740 OFFCURVE",
"21 725 OFFCURVE",
"21 706 CURVE SMOOTH",
"21 687 OFFCURVE",
"36 673 OFFCURVE",
"54 673 CURVE SMOOTH",
"72 673 OFFCURVE",
"88 687 OFFCURVE",
"88 706 CURVE SMOOTH",
"88 725 OFFCURVE",
"72 740 OFFCURVE"
);
},
{
closed = 1;
nodes = (
"212 740 CURVE SMOOTH",
"193 740 OFFCURVE",
"179 725 OFFCURVE",
"179 706 CURVE SMOOTH",
"179 687 OFFCURVE",
"193 673 OFFCURVE",
"212 673 CURVE SMOOTH",
"231 673 OFFCURVE",
"245 687 OFFCURVE",
"245 706 CURVE SMOOTH",
"245 725 OFFCURVE",
"231 740 OFFCURVE"
);
}
);
width = 266;
}
);
unicode = 0308;
userData = {
com.typemytype.robofont.mark = (
0.6,
0.609,
1,
1
);
};
},
{
glyphname = dotaccentcomb;
layers = (
{
anchors = (
{
name = _top;
position = "{133, 600}";
},
{
name = top;
position = "{133, 750}";
}
);
layerId = "F362B091-5F2C-44B8-BCF3-B70645E7FBBC";
name = Regular;
paths = (
{
closed = 1;
nodes = (
"133 748 CURVE SMOOTH",
"114 748 OFFCURVE",
"100 733 OFFCURVE",
"100 714 CURVE SMOOTH",
"100 696 OFFCURVE",
"114 681 OFFCURVE",
"133 681 CURVE SMOOTH",
"151 681 OFFCURVE",
"166 696 OFFCURVE",
"166 714 CURVE SMOOTH",
"166 733 OFFCURVE",
"151 748 OFFCURVE"
);
}
);
width = 266;
}
);
unicode = 0307;
userData = {
com.typemytype.robofont.mark = (
0.6,
0.609,
1,
1
);
};
},
{
glyphname = gravecomb;
layers = (
{
anchors = (
{
name = _top;
position = "{133, 600}";
},
{
name = top;
position = "{133, 750}";
}
);
layerId = "F362B091-5F2C-44B8-BCF3-B70645E7FBBC";
name = Regular;
paths = (
{
closed = 1;
nodes = (
"113 715 LINE",
"108 734 OFFCURVE",
"87 745 OFFCURVE",
"69 735 CURVE SMOOTH",
"52 725 OFFCURVE",
"51 702 OFFCURVE",
"63 687 CURVE",
"116 608 LINE",
"152 608 LINE"
);
}
);
width = 266;
}
);
unicode = 0300;
userData = {
com.typemytype.robofont.mark = (
0.6,
0.609,
1,
1
);
};
},
{
glyphname = hungarumlautcomb;
layers = (
{
anchors = (
{
name = _top;
position = "{133, 600}";
},
{
name = top;
position = "{133, 750}";
}
);
layerId = "F362B091-5F2C-44B8-BCF3-B70645E7FBBC";
name = Regular;
paths = (
{
closed = 1;
nodes = (
"145 658 LINE",
"157 673 OFFCURVE",
"156 696 OFFCURVE",
"138 706 CURVE SMOOTH",
"121 716 OFFCURVE",
"100 705 OFFCURVE",
"94 686 CURVE SMOOTH",
"56 580 LINE",
"91 580 LINE"
);
},
{
closed = 1;
nodes = (
"256 658 LINE",
"269 673 OFFCURVE",
"267 696 OFFCURVE",
"249 706 CURVE SMOOTH",
"232 716 OFFCURVE",
"212 705 OFFCURVE",
"205 686 CURVE SMOOTH",
"168 580 LINE",
"203 580 LINE"
);
}
);
width = 266;
}
);
userData = {
com.typemytype.robofont.mark = (
0.6,
0.609,
1,
1
);
};
},
{
glyphname = macroncomb;
layers = (
{
anchors = (
{
name = _top;
position = "{133, 600}";
},
{
name = top;
position = "{133, 750}";
}
);
layerId = "F362B091-5F2C-44B8-BCF3-B70645E7FBBC";
name = Regular;
paths = (
{
closed = 1;
nodes = (
"243 675 LINE",
"23 675 LINE",
"23 617 LINE",
"243 617 LINE"
);
}
);
width = 266;
}
);
unicode = 0304;
userData = {
com.typemytype.robofont.mark = (
0.6,
0.609,
1,
1
);
};
},
{
glyphname = ringcomb;
layers = (
{
anchors = (
{
name = _top;
position = "{133, 600}";
},
{
name = top;
position = "{133, 750}";
}
);
layerId = "F362B091-5F2C-44B8-BCF3-B70645E7FBBC";
name = Regular;
paths = (
{
closed = 1;
nodes = (
"133 773 CURVE SMOOTH",
"70 773 OFFCURVE",
"19 723 OFFCURVE",
"19 660 CURVE SMOOTH",
"19 596 OFFCURVE",
"70 546 OFFCURVE",
"133 546 CURVE SMOOTH",
"195 546 OFFCURVE",
"246 596 OFFCURVE",
"246 660 CURVE SMOOTH",
"246 723 OFFCURVE",
"195 773 OFFCURVE"
);
},
{
closed = 1;
nodes = (
"133 729 CURVE SMOOTH",
"171 729 OFFCURVE",
"202 698 OFFCURVE",
"202 660 CURVE SMOOTH",
"202 621 OFFCURVE",
"171 590 OFFCURVE",
"133 590 CURVE SMOOTH",
"94 590 OFFCURVE",
"63 621 OFFCURVE",
"63 660 CURVE SMOOTH",
"63 698 OFFCURVE",
"94 729 OFFCURVE"
);
}
);
width = 266;
}
);
userData = {
com.typemytype.robofont.mark = (
0.6,
0.609,
1,
1
);
};
},
{
glyphname = tildecomb;
layers = (
{
anchors = (
{
name = _top;
position = "{133, 600}";
},
{
name = top;
position = "{133, 750}";
}
);
layerId = "F362B091-5F2C-44B8-BCF3-B70645E7FBBC";
name = Regular;
paths = (
{
closed = 1;
nodes = (
"205 717 LINE",
"205 699 LINE SMOOTH",
"205 680 OFFCURVE",
"200 659 OFFCURVE",
"176 670 CURVE SMOOTH",
"167 674 OFFCURVE",
"162 678 OFFCURVE",
"151 685 CURVE SMOOTH",
"137 694 OFFCURVE",
"123 705 OFFCURVE",
"108 711 CURVE SMOOTH",
"85 721 OFFCURVE",
"56 721 OFFCURVE",
"36 705 CURVE SMOOTH",
"16 688 OFFCURVE",
"11 662 OFFCURVE",
"11 638 CURVE",
"11 620 LINE",
"61 620 LINE",
"61 638 LINE SMOOTH",
"61 645 OFFCURVE",
"60 660 OFFCURVE",
"67 666 CURVE SMOOTH",
"76 673 OFFCURVE",
"89 666 OFFCURVE",
"99 660 CURVE SMOOTH",
"110 653 OFFCURVE",
"121 645 OFFCURVE",
"133 638 CURVE SMOOTH",
"150 627 OFFCURVE",
"168 617 OFFCURVE",
"189 617 CURVE",
"235 617 OFFCURVE",
"255 657 OFFCURVE",
"255 699 CURVE",
"255 717 LINE"
);
}
);
width = 266;
}
);
unicode = 0303;
userData = {
com.typemytype.robofont.mark = (
0.6,
0.609,
1,
1
);
};
},
{
glyphname = cedillacomb;
layers = (
{
anchors = (
{
name = _bottom;
position = "{133, 0}";
},
{
name = bottom;
position = "{133, -250}";
}
);
layerId = "F362B091-5F2C-44B8-BCF3-B70645E7FBBC";
name = Regular;
paths = (
{
closed = 1;
nodes = (
"165 0 LINE",
"115 0 LINE",
"75 -69 LINE",
"88 -98 LINE",
"115 -96 OFFCURVE",
"140 -92 OFFCURVE",
"162 -91 CURVE SMOOTH",
"196 -91 OFFCURVE",
"220 -98 OFFCURVE",
"220 -133 CURVE SMOOTH",
"220 -173 OFFCURVE",
"188 -185 OFFCURVE",
"149 -184 CURVE SMOOTH",
"122 -184 OFFCURVE",
"93 -178 OFFCURVE",
"66 -173 CURVE",
"58 -202 OFFCURVE",
"61 -193 OFFCURVE",
"54 -221 CURVE",
"57 -221 OFFCURVE",
"108 -233 OFFCURVE",
"155 -233 CURVE SMOOTH",
"234 -233 OFFCURVE",
"271 -184 OFFCURVE",
"270 -135 CURVE SMOOTH",
"270 -85 OFFCURVE",
"231 -35 OFFCURVE",
"165 -42 CURVE SMOOTH",
"156 -43 OFFCURVE",
"147 -43 OFFCURVE",
"139 -44 CURVE"
);
}
);
width = 266;
}
);
userData = {
com.typemytype.robofont.mark = (
0.6,
0.609,
1,
1
);
};
},
{
glyphname = ogonekcomb;
layers = (
{
anchors = (
{
name = _bottom;
position = "{133, 0}";
},
{
name = bottom;
position = "{133, -250}";
}
);
layerId = "F362B091-5F2C-44B8-BCF3-B70645E7FBBC";
name = Regular;
paths = (
{
closed = 1;
nodes = (
"161 11 LINE",
"117 8 LINE",
"117 3 LINE",
"53 -108 LINE SMOOTH",
"13 -180 OFFCURVE",
"61 -251 OFFCURVE",
"150 -226 CURVE SMOOTH",
"169 -220 OFFCURVE",
"253 -190 OFFCURVE",
"254 -189 CURVE",
"236 -150 LINE",
"236 -150 OFFCURVE",
"194 -164 OFFCURVE",
"139 -184 CURVE SMOOTH",
"90 -200 OFFCURVE",
"64 -168 OFFCURVE",
"90 -122 CURVE SMOOTH",
"161 2 LINE"
);
}
);
width = 266;
}
);
userData = {
com.typemytype.robofont.mark = (
0.6,
0.609,
1,
1
);
};
},
{
glyphname = eth;
layers = (
{
layerId = "F362B091-5F2C-44B8-BCF3-B70645E7FBBC";
name = Regular;
paths = (
{
closed = 1;
nodes = (
"182 670 LINE",
"216 661 OFFCURVE",
"340 625 OFFCURVE",
"340 479 CURVE",
"340 359 LINE",
"317 401 OFFCURVE",
"259 433 OFFCURVE",
"197 433 CURVE SMOOTH",
"87 433 OFFCURVE",
"28 368 OFFCURVE",
"28 245 CURVE",
"28 187 LINE",
"28 66 OFFCURVE",
"92 -9 OFFCURVE",
"211 -9 CURVE SMOOTH",
"329 -9 OFFCURVE",
"397 60 OFFCURVE",
"397 187 CURVE",
"397 469 LINE",
"397 589 OFFCURVE",
"321 681 OFFCURVE",
"189 699 CURVE"
);
},
{
closed = 1;
nodes = (
"84 253 LINE SMOOTH",
"84 337 OFFCURVE",
"126 380 OFFCURVE",
"202 380 CURVE SMOOTH",
"278 380 OFFCURVE",
"340 333 OFFCURVE",
"340 248 CURVE",
"340 187 LINE",
"340 90 OFFCURVE",
"296 43 OFFCURVE",
"208 43 CURVE SMOOTH",
"124 43 OFFCURVE",
"84 90 OFFCURVE",
"84 187 CURVE"
);
},
{
closed = 1;
nodes = (
"377 673 LINE",
"349 701 LINE",
"170 522 LINE",
"198 494 LINE"
);
}
);
width = 424;
}
);
unicode = 00F0;
},
{
glyphname = IJ;
layers = (
{
layerId = "F362B091-5F2C-44B8-BCF3-B70645E7FBBC";
name = Regular;
paths = (
{
closed = 1;
nodes = (
"505 698 LINE",
"382 698 LINE",
"382 649 LINE",
"450 647 LINE",
"450 186 LINE SMOOTH",
"450 140 OFFCURVE",
"435 106 OFFCURVE",
"411 81 CURVE SMOOTH",
"384 54 OFFCURVE",
"344 42 OFFCURVE",
"296 42 CURVE SMOOTH",
"254 42 OFFCURVE",
"216 53 OFFCURVE",
"190 74 CURVE SMOOTH",
"159 98 OFFCURVE",
"142 135 OFFCURVE",
"142 186 CURVE SMOOTH",
"142 222 LINE",
"87 222 LINE",
"87 185 LINE SMOOTH",
"87 118 OFFCURVE",
"108 68 OFFCURVE",
"148 36 CURVE SMOOTH",
"190 4 OFFCURVE",
"240 -11 OFFCURVE",
"297 -11 CURVE SMOOTH",
"353 -11 OFFCURVE",
"402 4 OFFCURVE",
"443 36 CURVE SMOOTH",
"484 68 OFFCURVE",
"505 118 OFFCURVE",
"505 185 CURVE SMOOTH"
);
},
{
closed = 1;
nodes = (
"142 698 LINE",
"19 698 LINE",
"19 649 LINE",
"87 647 LINE",
"87 274 LINE",
"142 274 LINE"
);
}
);
width = 549;
}
);
unicode = 0132;
},
{
glyphname = ij;
layers = (
{
layerId = "F362B091-5F2C-44B8-BCF3-B70645E7FBBC";
name = Regular;
paths = (
{
closed = 1;
nodes = (
"75 708 CURVE SMOOTH",
"56 708 OFFCURVE",
"41 693 OFFCURVE",
"41 674 CURVE SMOOTH",
"41 656 OFFCURVE",
"56 641 OFFCURVE",
"75 641 CURVE SMOOTH",
"92 641 OFFCURVE",
"108 656 OFFCURVE",
"108 674 CURVE SMOOTH",
"108 693 OFFCURVE",
"92 708 OFFCURVE"
);
},
{
closed = 1;
nodes = (
"418 674 CURVE SMOOTH",
"418 693 OFFCURVE",
"403 707 OFFCURVE",
"384 707 CURVE SMOOTH",
"366 707 OFFCURVE",
"351 693 OFFCURVE",
"351 674 CURVE SMOOTH",
"351 656 OFFCURVE",
"366 641 OFFCURVE",
"384 641 CURVE SMOOTH",
"403 641 OFFCURVE",
"418 656 OFFCURVE"
);
},
{
closed = 1;
nodes = (
"359 500 LINE",
"359 173 LINE SMOOTH",
"359 102 OFFCURVE",
"303 44 OFFCURVE",
"232 44 CURVE SMOOTH",
"170 44 OFFCURVE",
"102 69 OFFCURVE",
"102 161 CURVE SMOOTH",
"102 499 LINE",
"46 499 LINE",
"46 157 LINE SMOOTH",
"46 44 OFFCURVE",
"110 -9 OFFCURVE",
"220 -9 CURVE SMOOTH",
"270 -9 OFFCURVE",
"326 10 OFFCURVE",
"359 50 CURVE",
"359 -61 LINE SMOOTH",
"359 -89 OFFCURVE",
"353 -112 OFFCURVE",
"340 -130 CURVE SMOOTH",
"329 -145 OFFCURVE",
"314 -157 OFFCURVE",
"294 -165 CURVE",
"310 -208 LINE",
"342 -197 OFFCURVE",
"366 -184 OFFCURVE",
"384 -165 CURVE SMOOTH",
"406 -140 OFFCURVE",
"415 -107 OFFCURVE",
"415 -62 CURVE SMOOTH",
"415 500 LINE SMOOTH"
);
}
);
width = 465;
}
);
unicode = 0133;
},
{
glyphname = V.alt;
layers = (
{
layerId = "F362B091-5F2C-44B8-BCF3-B70645E7FBBC";
name = Regular;
paths = (
{
closed = 1;
nodes = (
"15 698 LINE",
"215 0 LINE",
"292 0 LINE",
"491 698 LINE",
"432 698 LINE",
"253 69 LINE",
"75 698 LINE"
);
}
);
width = 509;
}
);
leftKerningGroup = V;
rightKerningGroup = V;
unicode = 9996;
},
{
glyphname = acutecomb;
layers = (
{
anchors = (
{
name = _top;
position = "{133, 600}";
},
{
name = top;
position = "{133, 750}";
}
);
layerId = "F362B091-5F2C-44B8-BCF3-B70645E7FBBC";
name = Regular;
paths = (
{
closed = 1;
nodes = (
"196 682 LINE",
"209 696 OFFCURVE",
"207 719 OFFCURVE",
"189 729 CURVE SMOOTH",
"172 739 OFFCURVE",
"152 728 OFFCURVE",
"146 710 CURVE SMOOTH",
"108 603 LINE",
"143 603 LINE"
);
}
);
width = 266;
}
);
unicode = 0301;
userData = {
com.typemytype.robofont.mark = (
0.6,
0.609,
1,
1
);
};
},
{
glyphname = tonoscomb;
layers = (
{
anchors = (
{
name = _tonos;
position = "{133, 600}";
},
{
name = tonos;
position = "{133, 750}";
}
);
layerId = "F362B091-5F2C-44B8-BCF3-B70645E7FBBC";
name = Regular;
paths = (
{
closed = 1;
nodes = (
"202 682 LINE",
"215 696 OFFCURVE",
"213 719 OFFCURVE",
"195 729 CURVE SMOOTH",
"178 739 OFFCURVE",
"158 728 OFFCURVE",
"152 710 CURVE SMOOTH",
"114 603 LINE",
"149 603 LINE"
);
}
);
width = 266;
}
);
userData = {
com.typemytype.robofont.mark = (
0.6,
0.609,
1,
1
);
};
},
{
glyphname = dieresistonoscomb;
layers = (
{
anchors = (
{
name = _tonos;
position = "{133, 600}";
},
{
name = tonos;
position = "{133, 750}";
}
);
layerId = "F362B091-5F2C-44B8-BCF3-B70645E7FBBC";
name = Regular;
paths = (
{
closed = 1;
nodes = (
"87 690 CURVE SMOOTH",
"87 708 OFFCURVE",
"72 723 OFFCURVE",
"54 723 CURVE SMOOTH",
"35 723 OFFCURVE",
"20 708 OFFCURVE",
"20 690 CURVE SMOOTH",
"20 671 OFFCURVE",
"35 657 OFFCURVE",
"54 657 CURVE SMOOTH",
"72 657 OFFCURVE",
"87 671 OFFCURVE"
);
},
{
closed = 1;
nodes = (
"245 690 CURVE SMOOTH",
"245 708 OFFCURVE",
"230 723 OFFCURVE",
"211 723 CURVE SMOOTH",
"193 723 OFFCURVE",
"178 708 OFFCURVE",
"178 690 CURVE SMOOTH",
"178 671 OFFCURVE",
"193 657 OFFCURVE",
"211 657 CURVE SMOOTH",
"230 657 OFFCURVE",
"245 671 OFFCURVE"
);
},
{
closed = 1;
nodes = (
"195 813 LINE SMOOTH",
"207 827 OFFCURVE",
"206 850 OFFCURVE",
"188 860 CURVE SMOOTH",
"171 870 OFFCURVE",
"150 859 OFFCURVE",
"144 840 CURVE SMOOTH",
"106 734 LINE",
"142 734 LINE"
);
}
);
width = 266;
}
);
userData = {
com.typemytype.robofont.mark = (
0.6,
0.609,
1,
1
);
};
},
{
glyphname = commaturnedbelowcomb;
layers = (
{
anchors = (
{
name = _bottom;
position = "{133, 0}";
},
{
name = bottom;
position = "{133, -250}";
}
);
layerId = "F362B091-5F2C-44B8-BCF3-B70645E7FBBC";
name = Regular;
paths = (
{
closed = 1;
nodes = (
"98 -195 CURVE",
"115 -207 LINE",
"135 -189 OFFCURVE",
"167 -150 OFFCURVE",
"168 -87 CURVE",
"167 -67 OFFCURVE",
"153 -54 OFFCURVE",
"134 -54 CURVE SMOOTH",
"115 -54 OFFCURVE",
"101 -68 OFFCURVE",
"101 -87 CURVE SMOOTH",
"101 -103 OFFCURVE",
"113 -117 OFFCURVE",
"129 -120 CURVE",
"126 -141 OFFCURVE",
"119 -168 OFFCURVE"
);
}
);
width = 266;
}
);
userData = {
com.typemytype.robofont.mark = (
0.6,
0.609,
1,
1
);
};
},
